<svg xmlns="http://www.w3.org/2000/svg" viewBox="0 0 794.55 120.52" width="794.55" height="120.52" role="img" aria-label="Arctivate">
  <defs>
    <linearGradient id="tealGrad" x1="0" y1="0" x2="1" y2="1" gradientUnits="objectBoundingBox">
      <stop offset="0%" stop-color="#5EE7D6"></stop>
      <stop offset="55%" stop-color="#15B8AE"></stop>
      <stop offset="100%" stop-color="#0E8F88"></stop>
    </linearGradient>
  </defs>
  <g transform="translate(10.44 22.01) scale(0.4781)">
    <path d="M88 0 L20 84 L56 84 L32 160 L100 76 L64 76 Z" fill="url(#tealGrad)"></path>
  </g>
  <g transform="translate(102.39 98.76)">
    <path d="M19.25 0.00 L-8.14 0.00 L40.92 -77.00 L66.44 -77.00 L84.70 0.00 L58.85 0.00 L56.32 -13.42 L26.95 -13.42 L19.25 0.00 Z M48.95 -51.81 L37.62 -32.12 L52.69 -32.12 L48.95 -51.81 Z M112.84 0.00 L86.88 0.00 L102.28 -77.00 L136.82 -77.00 Q152.11 -77.00 160.47 -70.34 Q168.83 -63.69 168.83 -51.70 L168.83 -51.70 Q168.83 -41.36 163.33 -33.77 Q157.83 -26.18 148.04 -22.44 L148.04 -22.44 L160.91 0.00 L133.96 0.00 L123.07 -19.36 L116.69 -19.36 L112.84 0.00 Z M124.17 -56.98 L120.54 -38.94 L131.21 -38.94 Q136.60 -38.94 139.57 -41.63 Q142.54 -44.33 142.54 -49.17 L142.54 -49.17 Q142.54 -53.35 139.95 -55.16 Q137.37 -56.98 132.86 -56.98 L132.86 -56.98 L124.17 -56.98 Z M210.61 1.76 L210.61 1.76 Q198.73 1.76 189.82 -2.58 Q180.91 -6.93 176.02 -14.69 Q171.12 -22.44 171.12 -32.67 L171.12 -32.67 Q171.12 -42.79 174.70 -51.26 Q178.27 -59.73 184.76 -65.89 Q191.25 -72.05 200.16 -75.41 Q209.07 -78.76 219.74 -78.76 L219.74 -78.76 Q230.85 -78.76 239.43 -74.80 Q248.01 -70.84 252.19 -63.36 L252.19 -63.36 L233.49 -48.73 Q231.07 -53.02 227.22 -55.38 Q223.37 -57.75 218.09 -57.75 L218.09 -57.75 Q212.04 -57.75 207.31 -54.78 Q202.58 -51.81 199.94 -46.53 Q197.30 -41.25 197.30 -34.32 L197.30 -34.32 Q197.30 -27.61 201.65 -23.43 Q205.99 -19.25 213.14 -19.25 L213.14 -19.25 Q217.65 -19.25 222.00 -21.34 Q226.34 -23.43 230.30 -28.16 L230.30 -28.16 L245.59 -13.53 Q238.55 -4.95 229.92 -1.59 Q221.28 1.76 210.61 1.76 Z M289.35 0.00 L263.39 0.00 L274.72 -56.87 L252.17 -56.87 L256.24 -77.00 L327.30 -77.00 L323.23 -56.87 L300.68 -56.87 L289.35 0.00 Z M342.57 0.00 L316.61 0.00 L332.01 -77.00 L357.97 -77.00 L342.57 0.00 Z M402.83 0.00 L377.31 0.00 L360.15 -77.00 L386.77 -77.00 L396.34 -32.12 L424.17 -77.00 L450.79 -77.00 L402.83 0.00 Z M456.60 0.00 L429.21 0.00 L478.27 -77.00 L503.79 -77.00 L522.05 0.00 L496.20 0.00 L493.67 -13.42 L464.30 -13.42 L456.60 0.00 Z M486.30 -51.81 L474.97 -32.12 L490.04 -32.12 L486.30 -51.81 Z M566.91 0.00 L540.95 0.00 L552.28 -56.87 L529.73 -56.87 L533.80 -77.00 L604.86 -77.00 L600.79 -56.87 L578.24 -56.87 L566.91 0.00 Z M625.52 -29.70 L623.54 -19.58 L662.15 -19.58 L658.19 0.00 L594.17 0.00 L609.57 -77.00 L672.16 -77.00 L668.20 -57.42 L631.13 -57.42 L629.37 -48.40 L661.93 -48.40 L658.19 -29.70 L625.52 -29.70 Z" fill="url(#tealGrad)"></path>
  </g>
</svg>