<svg xmlns="http://www.w3.org/2000/svg" viewBox="0 0 480 480" width="480" height="480" shape-rendering="crispEdges">
  
  <path d="M16.000 16.000h13.576v13.576h-13.576zM29.576 16.000h13.576v13.576h-13.576zM43.152 16.000h13.576v13.576h-13.576zM56.727 16.000h13.576v13.576h-13.576zM70.303 16.000h13.576v13.576h-13.576zM83.879 16.000h13.576v13.576h-13.576zM97.455 16.000h13.576v13.576h-13.576zM124.606 16.000h13.576v13.576h-13.576zM138.182 16.000h13.576v13.576h-13.576zM151.758 16.000h13.576v13.576h-13.576zM192.485 16.000h13.576v13.576h-13.576zM246.788 16.000h13.576v13.576h-13.576zM260.364 16.000h13.576v13.576h-13.576zM273.939 16.000h13.576v13.576h-13.576zM287.515 16.000h13.576v13.576h-13.576zM301.091 16.000h13.576v13.576h-13.576zM328.242 16.000h13.576v13.576h-13.576zM368.970 16.000h13.576v13.576h-13.576zM382.545 16.000h13.576v13.576h-13.576zM396.121 16.000h13.576v13.576h-13.576zM409.697 16.000h13.576v13.576h-13.576zM423.273 16.000h13.576v13.576h-13.576zM436.848 16.000h13.576v13.576h-13.576zM450.424 16.000h13.576v13.576h-13.576zM16.000 29.576h13.576v13.576h-13.576zM97.455 29.576h13.576v13.576h-13.576zM124.606 29.576h13.576v13.576h-13.576zM151.758 29.576h13.576v13.576h-13.576zM178.909 29.576h13.576v13.576h-13.576zM192.485 29.576h13.576v13.576h-13.576zM260.364 29.576h13.576v13.576h-13.576zM301.091 29.576h13.576v13.576h-13.576zM314.667 29.576h13.576v13.576h-13.576zM328.242 29.576h13.576v13.576h-13.576zM368.970 29.576h13.576v13.576h-13.576zM450.424 29.576h13.576v13.576h-13.576zM16.000 43.152h13.576v13.576h-13.576zM43.152 43.152h13.576v13.576h-13.576zM56.727 43.152h13.576v13.576h-13.576zM70.303 43.152h13.576v13.576h-13.576zM97.455 43.152h13.576v13.576h-13.576zM138.182 43.152h13.576v13.576h-13.576zM233.212 43.152h13.576v13.576h-13.576zM246.788 43.152h13.576v13.576h-13.576zM287.515 43.152h13.576v13.576h-13.576zM314.667 43.152h13.576v13.576h-13.576zM328.242 43.152h13.576v13.576h-13.576zM341.818 43.152h13.576v13.576h-13.576zM368.970 43.152h13.576v13.576h-13.576zM396.121 43.152h13.576v13.576h-13.576zM409.697 43.152h13.576v13.576h-13.576zM423.273 43.152h13.576v13.576h-13.576zM450.424 43.152h13.576v13.576h-13.576zM16.000 56.727h13.576v13.576h-13.576zM43.152 56.727h13.576v13.576h-13.576zM56.727 56.727h13.576v13.576h-13.576zM70.303 56.727h13.576v13.576h-13.576zM97.455 56.727h13.576v13.576h-13.576zM124.606 56.727h13.576v13.576h-13.576zM151.758 56.727h13.576v13.576h-13.576zM178.909 56.727h13.576v13.576h-13.576zM206.061 56.727h13.576v13.576h-13.576zM219.636 56.727h13.576v13.576h-13.576zM233.212 56.727h13.576v13.576h-13.576zM273.939 56.727h13.576v13.576h-13.576zM328.242 56.727h13.576v13.576h-13.576zM368.970 56.727h13.576v13.576h-13.576zM396.121 56.727h13.576v13.576h-13.576zM409.697 56.727h13.576v13.576h-13.576zM423.273 56.727h13.576v13.576h-13.576zM450.424 56.727h13.576v13.576h-13.576zM16.000 70.303h13.576v13.576h-13.576zM43.152 70.303h13.576v13.576h-13.576zM56.727 70.303h13.576v13.576h-13.576zM70.303 70.303h13.576v13.576h-13.576zM97.455 70.303h13.576v13.576h-13.576zM165.333 70.303h13.576v13.576h-13.576zM178.909 70.303h13.576v13.576h-13.576zM192.485 70.303h13.576v13.576h-13.576zM206.061 70.303h13.576v13.576h-13.576zM287.515 70.303h13.576v13.576h-13.576zM314.667 70.303h13.576v13.576h-13.576zM368.970 70.303h13.576v13.576h-13.576zM396.121 70.303h13.576v13.576h-13.576zM409.697 70.303h13.576v13.576h-13.576zM423.273 70.303h13.576v13.576h-13.576zM450.424 70.303h13.576v13.576h-13.576zM16.000 83.879h13.576v13.576h-13.576zM97.455 83.879h13.576v13.576h-13.576zM138.182 83.879h13.576v13.576h-13.576zM206.061 83.879h13.576v13.576h-13.576zM260.364 83.879h13.576v13.576h-13.576zM273.939 83.879h13.576v13.576h-13.576zM314.667 83.879h13.576v13.576h-13.576zM341.818 83.879h13.576v13.576h-13.576zM368.970 83.879h13.576v13.576h-13.576zM450.424 83.879h13.576v13.576h-13.576zM16.000 97.455h13.576v13.576h-13.576zM29.576 97.455h13.576v13.576h-13.576zM43.152 97.455h13.576v13.576h-13.576zM56.727 97.455h13.576v13.576h-13.576zM70.303 97.455h13.576v13.576h-13.576zM83.879 97.455h13.576v13.576h-13.576zM97.455 97.455h13.576v13.576h-13.576zM124.606 97.455h13.576v13.576h-13.576zM151.758 97.455h13.576v13.576h-13.576zM178.909 97.455h13.576v13.576h-13.576zM206.061 97.455h13.576v13.576h-13.576zM233.212 97.455h13.576v13.576h-13.576zM260.364 97.455h13.576v13.576h-13.576zM287.515 97.455h13.576v13.576h-13.576zM314.667 97.455h13.576v13.576h-13.576zM341.818 97.455h13.576v13.576h-13.576zM368.970 97.455h13.576v13.576h-13.576zM382.545 97.455h13.576v13.576h-13.576zM396.121 97.455h13.576v13.576h-13.576zM409.697 97.455h13.576v13.576h-13.576zM423.273 97.455h13.576v13.576h-13.576zM436.848 97.455h13.576v13.576h-13.576zM450.424 97.455h13.576v13.576h-13.576zM124.606 111.030h13.576v13.576h-13.576zM165.333 111.030h13.576v13.576h-13.576zM178.909 111.030h13.576v13.576h-13.576zM246.788 111.030h13.576v13.576h-13.576zM260.364 111.030h13.576v13.576h-13.576zM273.939 111.030h13.576v13.576h-13.576zM287.515 111.030h13.576v13.576h-13.576zM314.667 111.030h13.576v13.576h-13.576zM341.818 111.030h13.576v13.576h-13.576zM16.000 124.606h13.576v13.576h-13.576zM43.152 124.606h13.576v13.576h-13.576zM56.727 124.606h13.576v13.576h-13.576zM83.879 124.606h13.576v13.576h-13.576zM97.455 124.606h13.576v13.576h-13.576zM111.030 124.606h13.576v13.576h-13.576zM138.182 124.606h13.576v13.576h-13.576zM165.333 124.606h13.576v13.576h-13.576zM206.061 124.606h13.576v13.576h-13.576zM246.788 124.606h13.576v13.576h-13.576zM273.939 124.606h13.576v13.576h-13.576zM301.091 124.606h13.576v13.576h-13.576zM368.970 124.606h13.576v13.576h-13.576zM409.697 124.606h13.576v13.576h-13.576zM436.848 124.606h13.576v13.576h-13.576zM450.424 124.606h13.576v13.576h-13.576zM16.000 138.182h13.576v13.576h-13.576zM29.576 138.182h13.576v13.576h-13.576zM56.727 138.182h13.576v13.576h-13.576zM70.303 138.182h13.576v13.576h-13.576zM83.879 138.182h13.576v13.576h-13.576zM138.182 138.182h13.576v13.576h-13.576zM151.758 138.182h13.576v13.576h-13.576zM165.333 138.182h13.576v13.576h-13.576zM233.212 138.182h13.576v13.576h-13.576zM260.364 138.182h13.576v13.576h-13.576zM273.939 138.182h13.576v13.576h-13.576zM287.515 138.182h13.576v13.576h-13.576zM301.091 138.182h13.576v13.576h-13.576zM314.667 138.182h13.576v13.576h-13.576zM328.242 138.182h13.576v13.576h-13.576zM341.818 138.182h13.576v13.576h-13.576zM368.970 138.182h13.576v13.576h-13.576zM382.545 138.182h13.576v13.576h-13.576zM409.697 138.182h13.576v13.576h-13.576zM423.273 138.182h13.576v13.576h-13.576zM436.848 138.182h13.576v13.576h-13.576zM450.424 138.182h13.576v13.576h-13.576zM16.000 151.758h13.576v13.576h-13.576zM97.455 151.758h13.576v13.576h-13.576zM111.030 151.758h13.576v13.576h-13.576zM124.606 151.758h13.576v13.576h-13.576zM138.182 151.758h13.576v13.576h-13.576zM151.758 151.758h13.576v13.576h-13.576zM178.909 151.758h13.576v13.576h-13.576zM206.061 151.758h13.576v13.576h-13.576zM246.788 151.758h13.576v13.576h-13.576zM328.242 151.758h13.576v13.576h-13.576zM341.818 151.758h13.576v13.576h-13.576zM355.394 151.758h13.576v13.576h-13.576zM368.970 151.758h13.576v13.576h-13.576zM382.545 151.758h13.576v13.576h-13.576zM396.121 151.758h13.576v13.576h-13.576zM409.697 151.758h13.576v13.576h-13.576zM436.848 151.758h13.576v13.576h-13.576zM450.424 151.758h13.576v13.576h-13.576zM16.000 165.333h13.576v13.576h-13.576zM43.152 165.333h13.576v13.576h-13.576zM56.727 165.333h13.576v13.576h-13.576zM70.303 165.333h13.576v13.576h-13.576zM83.879 165.333h13.576v13.576h-13.576zM111.030 165.333h13.576v13.576h-13.576zM138.182 165.333h13.576v13.576h-13.576zM151.758 165.333h13.576v13.576h-13.576zM178.909 165.333h13.576v13.576h-13.576zM192.485 165.333h13.576v13.576h-13.576zM206.061 165.333h13.576v13.576h-13.576zM233.212 165.333h13.576v13.576h-13.576zM260.364 165.333h13.576v13.576h-13.576zM328.242 165.333h13.576v13.576h-13.576zM382.545 165.333h13.576v13.576h-13.576zM409.697 165.333h13.576v13.576h-13.576zM450.424 165.333h13.576v13.576h-13.576zM56.727 178.909h13.576v13.576h-13.576zM70.303 178.909h13.576v13.576h-13.576zM83.879 178.909h13.576v13.576h-13.576zM97.455 178.909h13.576v13.576h-13.576zM124.606 178.909h13.576v13.576h-13.576zM219.636 178.909h13.576v13.576h-13.576zM260.364 178.909h13.576v13.576h-13.576zM287.515 178.909h13.576v13.576h-13.576zM382.545 178.909h13.576v13.576h-13.576zM396.121 178.909h13.576v13.576h-13.576zM409.697 178.909h13.576v13.576h-13.576zM16.000 192.485h13.576v13.576h-13.576zM29.576 192.485h13.576v13.576h-13.576zM43.152 192.485h13.576v13.576h-13.576zM70.303 192.485h13.576v13.576h-13.576zM178.909 192.485h13.576v13.576h-13.576zM192.485 192.485h13.576v13.576h-13.576zM233.212 192.485h13.576v13.576h-13.576zM260.364 192.485h13.576v13.576h-13.576zM273.939 192.485h13.576v13.576h-13.576zM287.515 192.485h13.576v13.576h-13.576zM314.667 192.485h13.576v13.576h-13.576zM382.545 192.485h13.576v13.576h-13.576zM436.848 192.485h13.576v13.576h-13.576zM16.000 206.061h13.576v13.576h-13.576zM43.152 206.061h13.576v13.576h-13.576zM56.727 206.061h13.576v13.576h-13.576zM97.455 206.061h13.576v13.576h-13.576zM111.030 206.061h13.576v13.576h-13.576zM138.182 206.061h13.576v13.576h-13.576zM192.485 206.061h13.576v13.576h-13.576zM219.636 206.061h13.576v13.576h-13.576zM233.212 206.061h13.576v13.576h-13.576zM246.788 206.061h13.576v13.576h-13.576zM260.364 206.061h13.576v13.576h-13.576zM273.939 206.061h13.576v13.576h-13.576zM287.515 206.061h13.576v13.576h-13.576zM314.667 206.061h13.576v13.576h-13.576zM368.970 206.061h13.576v13.576h-13.576zM396.121 206.061h13.576v13.576h-13.576zM43.152 219.636h13.576v13.576h-13.576zM151.758 219.636h13.576v13.576h-13.576zM165.333 219.636h13.576v13.576h-13.576zM178.909 219.636h13.576v13.576h-13.576zM192.485 219.636h13.576v13.576h-13.576zM233.212 219.636h13.576v13.576h-13.576zM301.091 219.636h13.576v13.576h-13.576zM328.242 219.636h13.576v13.576h-13.576zM355.394 219.636h13.576v13.576h-13.576zM368.970 219.636h13.576v13.576h-13.576zM409.697 219.636h13.576v13.576h-13.576zM423.273 219.636h13.576v13.576h-13.576zM29.576 233.212h13.576v13.576h-13.576zM43.152 233.212h13.576v13.576h-13.576zM56.727 233.212h13.576v13.576h-13.576zM83.879 233.212h13.576v13.576h-13.576zM97.455 233.212h13.576v13.576h-13.576zM124.606 233.212h13.576v13.576h-13.576zM151.758 233.212h13.576v13.576h-13.576zM178.909 233.212h13.576v13.576h-13.576zM206.061 233.212h13.576v13.576h-13.576zM219.636 233.212h13.576v13.576h-13.576zM233.212 233.212h13.576v13.576h-13.576zM260.364 233.212h13.576v13.576h-13.576zM287.515 233.212h13.576v13.576h-13.576zM301.091 233.212h13.576v13.576h-13.576zM314.667 233.212h13.576v13.576h-13.576zM328.242 233.212h13.576v13.576h-13.576zM341.818 233.212h13.576v13.576h-13.576zM355.394 233.212h13.576v13.576h-13.576zM368.970 233.212h13.576v13.576h-13.576zM396.121 233.212h13.576v13.576h-13.576zM409.697 233.212h13.576v13.576h-13.576zM423.273 233.212h13.576v13.576h-13.576zM29.576 246.788h13.576v13.576h-13.576zM43.152 246.788h13.576v13.576h-13.576zM56.727 246.788h13.576v13.576h-13.576zM70.303 246.788h13.576v13.576h-13.576zM178.909 246.788h13.576v13.576h-13.576zM206.061 246.788h13.576v13.576h-13.576zM219.636 246.788h13.576v13.576h-13.576zM246.788 246.788h13.576v13.576h-13.576zM287.515 246.788h13.576v13.576h-13.576zM328.242 246.788h13.576v13.576h-13.576zM341.818 246.788h13.576v13.576h-13.576zM355.394 246.788h13.576v13.576h-13.576zM368.970 246.788h13.576v13.576h-13.576zM396.121 246.788h13.576v13.576h-13.576zM409.697 246.788h13.576v13.576h-13.576zM436.848 246.788h13.576v13.576h-13.576zM450.424 246.788h13.576v13.576h-13.576zM16.000 260.364h13.576v13.576h-13.576zM43.152 260.364h13.576v13.576h-13.576zM56.727 260.364h13.576v13.576h-13.576zM70.303 260.364h13.576v13.576h-13.576zM83.879 260.364h13.576v13.576h-13.576zM97.455 260.364h13.576v13.576h-13.576zM111.030 260.364h13.576v13.576h-13.576zM151.758 260.364h13.576v13.576h-13.576zM165.333 260.364h13.576v13.576h-13.576zM192.485 260.364h13.576v13.576h-13.576zM206.061 260.364h13.576v13.576h-13.576zM219.636 260.364h13.576v13.576h-13.576zM233.212 260.364h13.576v13.576h-13.576zM246.788 260.364h13.576v13.576h-13.576zM341.818 260.364h13.576v13.576h-13.576zM355.394 260.364h13.576v13.576h-13.576zM368.970 260.364h13.576v13.576h-13.576zM382.545 260.364h13.576v13.576h-13.576zM396.121 260.364h13.576v13.576h-13.576zM423.273 260.364h13.576v13.576h-13.576zM436.848 260.364h13.576v13.576h-13.576zM16.000 273.939h13.576v13.576h-13.576zM29.576 273.939h13.576v13.576h-13.576zM124.606 273.939h13.576v13.576h-13.576zM192.485 273.939h13.576v13.576h-13.576zM206.061 273.939h13.576v13.576h-13.576zM273.939 273.939h13.576v13.576h-13.576zM314.667 273.939h13.576v13.576h-13.576zM328.242 273.939h13.576v13.576h-13.576zM355.394 273.939h13.576v13.576h-13.576zM396.121 273.939h13.576v13.576h-13.576zM16.000 287.515h13.576v13.576h-13.576zM43.152 287.515h13.576v13.576h-13.576zM70.303 287.515h13.576v13.576h-13.576zM97.455 287.515h13.576v13.576h-13.576zM138.182 287.515h13.576v13.576h-13.576zM192.485 287.515h13.576v13.576h-13.576zM260.364 287.515h13.576v13.576h-13.576zM287.515 287.515h13.576v13.576h-13.576zM301.091 287.515h13.576v13.576h-13.576zM314.667 287.515h13.576v13.576h-13.576zM341.818 287.515h13.576v13.576h-13.576zM382.545 287.515h13.576v13.576h-13.576zM409.697 287.515h13.576v13.576h-13.576zM423.273 287.515h13.576v13.576h-13.576zM436.848 287.515h13.576v13.576h-13.576zM16.000 301.091h13.576v13.576h-13.576zM29.576 301.091h13.576v13.576h-13.576zM70.303 301.091h13.576v13.576h-13.576zM83.879 301.091h13.576v13.576h-13.576zM111.030 301.091h13.576v13.576h-13.576zM124.606 301.091h13.576v13.576h-13.576zM138.182 301.091h13.576v13.576h-13.576zM165.333 301.091h13.576v13.576h-13.576zM192.485 301.091h13.576v13.576h-13.576zM206.061 301.091h13.576v13.576h-13.576zM219.636 301.091h13.576v13.576h-13.576zM260.364 301.091h13.576v13.576h-13.576zM273.939 301.091h13.576v13.576h-13.576zM301.091 301.091h13.576v13.576h-13.576zM314.667 301.091h13.576v13.576h-13.576zM328.242 301.091h13.576v13.576h-13.576zM341.818 301.091h13.576v13.576h-13.576zM368.970 301.091h13.576v13.576h-13.576zM450.424 301.091h13.576v13.576h-13.576zM43.152 314.667h13.576v13.576h-13.576zM97.455 314.667h13.576v13.576h-13.576zM124.606 314.667h13.576v13.576h-13.576zM151.758 314.667h13.576v13.576h-13.576zM192.485 314.667h13.576v13.576h-13.576zM233.212 314.667h13.576v13.576h-13.576zM246.788 314.667h13.576v13.576h-13.576zM287.515 314.667h13.576v13.576h-13.576zM328.242 314.667h13.576v13.576h-13.576zM368.970 314.667h13.576v13.576h-13.576zM382.545 314.667h13.576v13.576h-13.576zM436.848 314.667h13.576v13.576h-13.576zM450.424 314.667h13.576v13.576h-13.576zM29.576 328.242h13.576v13.576h-13.576zM56.727 328.242h13.576v13.576h-13.576zM70.303 328.242h13.576v13.576h-13.576zM83.879 328.242h13.576v13.576h-13.576zM124.606 328.242h13.576v13.576h-13.576zM178.909 328.242h13.576v13.576h-13.576zM192.485 328.242h13.576v13.576h-13.576zM206.061 328.242h13.576v13.576h-13.576zM233.212 328.242h13.576v13.576h-13.576zM260.364 328.242h13.576v13.576h-13.576zM273.939 328.242h13.576v13.576h-13.576zM287.515 328.242h13.576v13.576h-13.576zM314.667 328.242h13.576v13.576h-13.576zM341.818 328.242h13.576v13.576h-13.576zM396.121 328.242h13.576v13.576h-13.576zM409.697 328.242h13.576v13.576h-13.576zM436.848 328.242h13.576v13.576h-13.576zM16.000 341.818h13.576v13.576h-13.576zM97.455 341.818h13.576v13.576h-13.576zM124.606 341.818h13.576v13.576h-13.576zM138.182 341.818h13.576v13.576h-13.576zM151.758 341.818h13.576v13.576h-13.576zM165.333 341.818h13.576v13.576h-13.576zM206.061 341.818h13.576v13.576h-13.576zM219.636 341.818h13.576v13.576h-13.576zM246.788 341.818h13.576v13.576h-13.576zM314.667 341.818h13.576v13.576h-13.576zM341.818 341.818h13.576v13.576h-13.576zM355.394 341.818h13.576v13.576h-13.576zM368.970 341.818h13.576v13.576h-13.576zM382.545 341.818h13.576v13.576h-13.576zM396.121 341.818h13.576v13.576h-13.576zM409.697 341.818h13.576v13.576h-13.576zM436.848 341.818h13.576v13.576h-13.576zM124.606 355.394h13.576v13.576h-13.576zM178.909 355.394h13.576v13.576h-13.576zM219.636 355.394h13.576v13.576h-13.576zM233.212 355.394h13.576v13.576h-13.576zM246.788 355.394h13.576v13.576h-13.576zM260.364 355.394h13.576v13.576h-13.576zM273.939 355.394h13.576v13.576h-13.576zM287.515 355.394h13.576v13.576h-13.576zM341.818 355.394h13.576v13.576h-13.576zM396.121 355.394h13.576v13.576h-13.576zM409.697 355.394h13.576v13.576h-13.576zM436.848 355.394h13.576v13.576h-13.576zM16.000 368.970h13.576v13.576h-13.576zM29.576 368.970h13.576v13.576h-13.576zM43.152 368.970h13.576v13.576h-13.576zM56.727 368.970h13.576v13.576h-13.576zM70.303 368.970h13.576v13.576h-13.576zM83.879 368.970h13.576v13.576h-13.576zM97.455 368.970h13.576v13.576h-13.576zM124.606 368.970h13.576v13.576h-13.576zM138.182 368.970h13.576v13.576h-13.576zM165.333 368.970h13.576v13.576h-13.576zM192.485 368.970h13.576v13.576h-13.576zM273.939 368.970h13.576v13.576h-13.576zM287.515 368.970h13.576v13.576h-13.576zM328.242 368.970h13.576v13.576h-13.576zM341.818 368.970h13.576v13.576h-13.576zM368.970 368.970h13.576v13.576h-13.576zM396.121 368.970h13.576v13.576h-13.576zM16.000 382.545h13.576v13.576h-13.576zM97.455 382.545h13.576v13.576h-13.576zM124.606 382.545h13.576v13.576h-13.576zM151.758 382.545h13.576v13.576h-13.576zM178.909 382.545h13.576v13.576h-13.576zM192.485 382.545h13.576v13.576h-13.576zM206.061 382.545h13.576v13.576h-13.576zM233.212 382.545h13.576v13.576h-13.576zM287.515 382.545h13.576v13.576h-13.576zM301.091 382.545h13.576v13.576h-13.576zM314.667 382.545h13.576v13.576h-13.576zM328.242 382.545h13.576v13.576h-13.576zM341.818 382.545h13.576v13.576h-13.576zM396.121 382.545h13.576v13.576h-13.576zM409.697 382.545h13.576v13.576h-13.576zM423.273 382.545h13.576v13.576h-13.576zM436.848 382.545h13.576v13.576h-13.576zM16.000 396.121h13.576v13.576h-13.576zM43.152 396.121h13.576v13.576h-13.576zM56.727 396.121h13.576v13.576h-13.576zM70.303 396.121h13.576v13.576h-13.576zM97.455 396.121h13.576v13.576h-13.576zM138.182 396.121h13.576v13.576h-13.576zM165.333 396.121h13.576v13.576h-13.576zM219.636 396.121h13.576v13.576h-13.576zM246.788 396.121h13.576v13.576h-13.576zM301.091 396.121h13.576v13.576h-13.576zM328.242 396.121h13.576v13.576h-13.576zM341.818 396.121h13.576v13.576h-13.576zM355.394 396.121h13.576v13.576h-13.576zM368.970 396.121h13.576v13.576h-13.576zM382.545 396.121h13.576v13.576h-13.576zM396.121 396.121h13.576v13.576h-13.576zM423.273 396.121h13.576v13.576h-13.576zM450.424 396.121h13.576v13.576h-13.576zM16.000 409.697h13.576v13.576h-13.576zM43.152 409.697h13.576v13.576h-13.576zM56.727 409.697h13.576v13.576h-13.576zM70.303 409.697h13.576v13.576h-13.576zM97.455 409.697h13.576v13.576h-13.576zM124.606 409.697h13.576v13.576h-13.576zM151.758 409.697h13.576v13.576h-13.576zM165.333 409.697h13.576v13.576h-13.576zM260.364 409.697h13.576v13.576h-13.576zM301.091 409.697h13.576v13.576h-13.576zM382.545 409.697h13.576v13.576h-13.576zM409.697 409.697h13.576v13.576h-13.576zM450.424 409.697h13.576v13.576h-13.576zM16.000 423.273h13.576v13.576h-13.576zM43.152 423.273h13.576v13.576h-13.576zM56.727 423.273h13.576v13.576h-13.576zM70.303 423.273h13.576v13.576h-13.576zM97.455 423.273h13.576v13.576h-13.576zM124.606 423.273h13.576v13.576h-13.576zM138.182 423.273h13.576v13.576h-13.576zM151.758 423.273h13.576v13.576h-13.576zM206.061 423.273h13.576v13.576h-13.576zM301.091 423.273h13.576v13.576h-13.576zM314.667 423.273h13.576v13.576h-13.576zM341.818 423.273h13.576v13.576h-13.576zM355.394 423.273h13.576v13.576h-13.576zM368.970 423.273h13.576v13.576h-13.576zM382.545 423.273h13.576v13.576h-13.576zM16.000 436.848h13.576v13.576h-13.576zM97.455 436.848h13.576v13.576h-13.576zM151.758 436.848h13.576v13.576h-13.576zM192.485 436.848h13.576v13.576h-13.576zM206.061 436.848h13.576v13.576h-13.576zM219.636 436.848h13.576v13.576h-13.576zM233.212 436.848h13.576v13.576h-13.576zM246.788 436.848h13.576v13.576h-13.576zM260.364 436.848h13.576v13.576h-13.576zM287.515 436.848h13.576v13.576h-13.576zM328.242 436.848h13.576v13.576h-13.576zM341.818 436.848h13.576v13.576h-13.576zM382.545 436.848h13.576v13.576h-13.576zM396.121 436.848h13.576v13.576h-13.576zM450.424 436.848h13.576v13.576h-13.576zM16.000 450.424h13.576v13.576h-13.576zM29.576 450.424h13.576v13.576h-13.576zM43.152 450.424h13.576v13.576h-13.576zM56.727 450.424h13.576v13.576h-13.576zM70.303 450.424h13.576v13.576h-13.576zM83.879 450.424h13.576v13.576h-13.576zM97.455 450.424h13.576v13.576h-13.576zM124.606 450.424h13.576v13.576h-13.576zM138.182 450.424h13.576v13.576h-13.576zM192.485 450.424h13.576v13.576h-13.576zM219.636 450.424h13.576v13.576h-13.576zM233.212 450.424h13.576v13.576h-13.576zM246.788 450.424h13.576v13.576h-13.576zM301.091 450.424h13.576v13.576h-13.576zM328.242 450.424h13.576v13.576h-13.576zM396.121 450.424h13.576v13.576h-13.576zM423.273 450.424h13.576v13.576h-13.576z" fill="#f6f4ef"></path>
</svg>