<svg xmlns="http://www.w3.org/2000/svg" viewBox="0 0 480 480" width="480" height="480" shape-rendering="crispEdges">
  
  <path d="M16.000 16.000h12.108v12.108h-12.108zM28.108 16.000h12.108v12.108h-12.108zM40.216 16.000h12.108v12.108h-12.108zM52.324 16.000h12.108v12.108h-12.108zM64.432 16.000h12.108v12.108h-12.108zM76.541 16.000h12.108v12.108h-12.108zM88.649 16.000h12.108v12.108h-12.108zM124.973 16.000h12.108v12.108h-12.108zM209.730 16.000h12.108v12.108h-12.108zM221.838 16.000h12.108v12.108h-12.108zM233.946 16.000h12.108v12.108h-12.108zM246.054 16.000h12.108v12.108h-12.108zM270.270 16.000h12.108v12.108h-12.108zM294.486 16.000h12.108v12.108h-12.108zM306.595 16.000h12.108v12.108h-12.108zM330.811 16.000h12.108v12.108h-12.108zM379.243 16.000h12.108v12.108h-12.108zM391.351 16.000h12.108v12.108h-12.108zM403.459 16.000h12.108v12.108h-12.108zM415.568 16.000h12.108v12.108h-12.108zM427.676 16.000h12.108v12.108h-12.108zM439.784 16.000h12.108v12.108h-12.108zM451.892 16.000h12.108v12.108h-12.108zM16.000 28.108h12.108v12.108h-12.108zM88.649 28.108h12.108v12.108h-12.108zM112.865 28.108h12.108v12.108h-12.108zM124.973 28.108h12.108v12.108h-12.108zM149.189 28.108h12.108v12.108h-12.108zM161.297 28.108h12.108v12.108h-12.108zM185.514 28.108h12.108v12.108h-12.108zM209.730 28.108h12.108v12.108h-12.108zM221.838 28.108h12.108v12.108h-12.108zM233.946 28.108h12.108v12.108h-12.108zM246.054 28.108h12.108v12.108h-12.108zM270.270 28.108h12.108v12.108h-12.108zM318.703 28.108h12.108v12.108h-12.108zM330.811 28.108h12.108v12.108h-12.108zM379.243 28.108h12.108v12.108h-12.108zM451.892 28.108h12.108v12.108h-12.108zM16.000 40.216h12.108v12.108h-12.108zM40.216 40.216h12.108v12.108h-12.108zM52.324 40.216h12.108v12.108h-12.108zM64.432 40.216h12.108v12.108h-12.108zM88.649 40.216h12.108v12.108h-12.108zM112.865 40.216h12.108v12.108h-12.108zM124.973 40.216h12.108v12.108h-12.108zM173.405 40.216h12.108v12.108h-12.108zM185.514 40.216h12.108v12.108h-12.108zM197.622 40.216h12.108v12.108h-12.108zM209.730 40.216h12.108v12.108h-12.108zM246.054 40.216h12.108v12.108h-12.108zM258.162 40.216h12.108v12.108h-12.108zM270.270 40.216h12.108v12.108h-12.108zM282.378 40.216h12.108v12.108h-12.108zM306.595 40.216h12.108v12.108h-12.108zM330.811 40.216h12.108v12.108h-12.108zM342.919 40.216h12.108v12.108h-12.108zM355.027 40.216h12.108v12.108h-12.108zM379.243 40.216h12.108v12.108h-12.108zM403.459 40.216h12.108v12.108h-12.108zM415.568 40.216h12.108v12.108h-12.108zM427.676 40.216h12.108v12.108h-12.108zM451.892 40.216h12.108v12.108h-12.108zM16.000 52.324h12.108v12.108h-12.108zM40.216 52.324h12.108v12.108h-12.108zM52.324 52.324h12.108v12.108h-12.108zM64.432 52.324h12.108v12.108h-12.108zM88.649 52.324h12.108v12.108h-12.108zM112.865 52.324h12.108v12.108h-12.108zM137.081 52.324h12.108v12.108h-12.108zM149.189 52.324h12.108v12.108h-12.108zM173.405 52.324h12.108v12.108h-12.108zM185.514 52.324h12.108v12.108h-12.108zM221.838 52.324h12.108v12.108h-12.108zM233.946 52.324h12.108v12.108h-12.108zM246.054 52.324h12.108v12.108h-12.108zM270.270 52.324h12.108v12.108h-12.108zM318.703 52.324h12.108v12.108h-12.108zM355.027 52.324h12.108v12.108h-12.108zM379.243 52.324h12.108v12.108h-12.108zM403.459 52.324h12.108v12.108h-12.108zM415.568 52.324h12.108v12.108h-12.108zM427.676 52.324h12.108v12.108h-12.108zM451.892 52.324h12.108v12.108h-12.108zM16.000 64.432h12.108v12.108h-12.108zM40.216 64.432h12.108v12.108h-12.108zM52.324 64.432h12.108v12.108h-12.108zM64.432 64.432h12.108v12.108h-12.108zM88.649 64.432h12.108v12.108h-12.108zM124.973 64.432h12.108v12.108h-12.108zM173.405 64.432h12.108v12.108h-12.108zM233.946 64.432h12.108v12.108h-12.108zM246.054 64.432h12.108v12.108h-12.108zM258.162 64.432h12.108v12.108h-12.108zM282.378 64.432h12.108v12.108h-12.108zM294.486 64.432h12.108v12.108h-12.108zM355.027 64.432h12.108v12.108h-12.108zM379.243 64.432h12.108v12.108h-12.108zM403.459 64.432h12.108v12.108h-12.108zM415.568 64.432h12.108v12.108h-12.108zM427.676 64.432h12.108v12.108h-12.108zM451.892 64.432h12.108v12.108h-12.108zM16.000 76.541h12.108v12.108h-12.108zM88.649 76.541h12.108v12.108h-12.108zM137.081 76.541h12.108v12.108h-12.108zM149.189 76.541h12.108v12.108h-12.108zM161.297 76.541h12.108v12.108h-12.108zM197.622 76.541h12.108v12.108h-12.108zM233.946 76.541h12.108v12.108h-12.108zM270.270 76.541h12.108v12.108h-12.108zM282.378 76.541h12.108v12.108h-12.108zM330.811 76.541h12.108v12.108h-12.108zM355.027 76.541h12.108v12.108h-12.108zM379.243 76.541h12.108v12.108h-12.108zM451.892 76.541h12.108v12.108h-12.108zM16.000 88.649h12.108v12.108h-12.108zM28.108 88.649h12.108v12.108h-12.108zM40.216 88.649h12.108v12.108h-12.108zM52.324 88.649h12.108v12.108h-12.108zM64.432 88.649h12.108v12.108h-12.108zM76.541 88.649h12.108v12.108h-12.108zM88.649 88.649h12.108v12.108h-12.108zM112.865 88.649h12.108v12.108h-12.108zM137.081 88.649h12.108v12.108h-12.108zM161.297 88.649h12.108v12.108h-12.108zM185.514 88.649h12.108v12.108h-12.108zM209.730 88.649h12.108v12.108h-12.108zM233.946 88.649h12.108v12.108h-12.108zM258.162 88.649h12.108v12.108h-12.108zM282.378 88.649h12.108v12.108h-12.108zM306.595 88.649h12.108v12.108h-12.108zM330.811 88.649h12.108v12.108h-12.108zM355.027 88.649h12.108v12.108h-12.108zM379.243 88.649h12.108v12.108h-12.108zM391.351 88.649h12.108v12.108h-12.108zM403.459 88.649h12.108v12.108h-12.108zM415.568 88.649h12.108v12.108h-12.108zM427.676 88.649h12.108v12.108h-12.108zM439.784 88.649h12.108v12.108h-12.108zM451.892 88.649h12.108v12.108h-12.108zM112.865 100.757h12.108v12.108h-12.108zM149.189 100.757h12.108v12.108h-12.108zM161.297 100.757h12.108v12.108h-12.108zM185.514 100.757h12.108v12.108h-12.108zM197.622 100.757h12.108v12.108h-12.108zM209.730 100.757h12.108v12.108h-12.108zM270.270 100.757h12.108v12.108h-12.108zM294.486 100.757h12.108v12.108h-12.108zM330.811 100.757h12.108v12.108h-12.108zM342.919 100.757h12.108v12.108h-12.108zM355.027 100.757h12.108v12.108h-12.108zM16.000 112.865h12.108v12.108h-12.108zM88.649 112.865h12.108v12.108h-12.108zM112.865 112.865h12.108v12.108h-12.108zM137.081 112.865h12.108v12.108h-12.108zM161.297 112.865h12.108v12.108h-12.108zM173.405 112.865h12.108v12.108h-12.108zM185.514 112.865h12.108v12.108h-12.108zM197.622 112.865h12.108v12.108h-12.108zM233.946 112.865h12.108v12.108h-12.108zM258.162 112.865h12.108v12.108h-12.108zM270.270 112.865h12.108v12.108h-12.108zM282.378 112.865h12.108v12.108h-12.108zM294.486 112.865h12.108v12.108h-12.108zM306.595 112.865h12.108v12.108h-12.108zM318.703 112.865h12.108v12.108h-12.108zM355.027 112.865h12.108v12.108h-12.108zM367.135 112.865h12.108v12.108h-12.108zM379.243 112.865h12.108v12.108h-12.108zM415.568 112.865h12.108v12.108h-12.108zM427.676 112.865h12.108v12.108h-12.108zM439.784 112.865h12.108v12.108h-12.108zM16.000 124.973h12.108v12.108h-12.108zM28.108 124.973h12.108v12.108h-12.108zM40.216 124.973h12.108v12.108h-12.108zM124.973 124.973h12.108v12.108h-12.108zM161.297 124.973h12.108v12.108h-12.108zM221.838 124.973h12.108v12.108h-12.108zM258.162 124.973h12.108v12.108h-12.108zM282.378 124.973h12.108v12.108h-12.108zM330.811 124.973h12.108v12.108h-12.108zM342.919 124.973h12.108v12.108h-12.108zM367.135 124.973h12.108v12.108h-12.108zM391.351 124.973h12.108v12.108h-12.108zM403.459 124.973h12.108v12.108h-12.108zM415.568 124.973h12.108v12.108h-12.108zM427.676 124.973h12.108v12.108h-12.108zM439.784 124.973h12.108v12.108h-12.108zM16.000 137.081h12.108v12.108h-12.108zM28.108 137.081h12.108v12.108h-12.108zM52.324 137.081h12.108v12.108h-12.108zM64.432 137.081h12.108v12.108h-12.108zM76.541 137.081h12.108v12.108h-12.108zM88.649 137.081h12.108v12.108h-12.108zM100.757 137.081h12.108v12.108h-12.108zM124.973 137.081h12.108v12.108h-12.108zM137.081 137.081h12.108v12.108h-12.108zM173.405 137.081h12.108v12.108h-12.108zM221.838 137.081h12.108v12.108h-12.108zM258.162 137.081h12.108v12.108h-12.108zM270.270 137.081h12.108v12.108h-12.108zM282.378 137.081h12.108v12.108h-12.108zM294.486 137.081h12.108v12.108h-12.108zM306.595 137.081h12.108v12.108h-12.108zM318.703 137.081h12.108v12.108h-12.108zM330.811 137.081h12.108v12.108h-12.108zM342.919 137.081h12.108v12.108h-12.108zM355.027 137.081h12.108v12.108h-12.108zM379.243 137.081h12.108v12.108h-12.108zM391.351 137.081h12.108v12.108h-12.108zM415.568 137.081h12.108v12.108h-12.108zM439.784 137.081h12.108v12.108h-12.108zM451.892 137.081h12.108v12.108h-12.108zM40.216 149.189h12.108v12.108h-12.108zM112.865 149.189h12.108v12.108h-12.108zM124.973 149.189h12.108v12.108h-12.108zM161.297 149.189h12.108v12.108h-12.108zM173.405 149.189h12.108v12.108h-12.108zM197.622 149.189h12.108v12.108h-12.108zM209.730 149.189h12.108v12.108h-12.108zM294.486 149.189h12.108v12.108h-12.108zM330.811 149.189h12.108v12.108h-12.108zM379.243 149.189h12.108v12.108h-12.108zM451.892 149.189h12.108v12.108h-12.108zM52.324 161.297h12.108v12.108h-12.108zM64.432 161.297h12.108v12.108h-12.108zM76.541 161.297h12.108v12.108h-12.108zM88.649 161.297h12.108v12.108h-12.108zM100.757 161.297h12.108v12.108h-12.108zM112.865 161.297h12.108v12.108h-12.108zM149.189 161.297h12.108v12.108h-12.108zM161.297 161.297h12.108v12.108h-12.108zM185.514 161.297h12.108v12.108h-12.108zM246.054 161.297h12.108v12.108h-12.108zM306.595 161.297h12.108v12.108h-12.108zM342.919 161.297h12.108v12.108h-12.108zM355.027 161.297h12.108v12.108h-12.108zM379.243 161.297h12.108v12.108h-12.108zM451.892 161.297h12.108v12.108h-12.108zM52.324 173.405h12.108v12.108h-12.108zM100.757 173.405h12.108v12.108h-12.108zM137.081 173.405h12.108v12.108h-12.108zM149.189 173.405h12.108v12.108h-12.108zM173.405 173.405h12.108v12.108h-12.108zM197.622 173.405h12.108v12.108h-12.108zM209.730 173.405h12.108v12.108h-12.108zM221.838 173.405h12.108v12.108h-12.108zM233.946 173.405h12.108v12.108h-12.108zM246.054 173.405h12.108v12.108h-12.108zM258.162 173.405h12.108v12.108h-12.108zM294.486 173.405h12.108v12.108h-12.108zM306.595 173.405h12.108v12.108h-12.108zM318.703 173.405h12.108v12.108h-12.108zM342.919 173.405h12.108v12.108h-12.108zM355.027 173.405h12.108v12.108h-12.108zM391.351 173.405h12.108v12.108h-12.108zM415.568 173.405h12.108v12.108h-12.108zM28.108 185.514h12.108v12.108h-12.108zM40.216 185.514h12.108v12.108h-12.108zM64.432 185.514h12.108v12.108h-12.108zM88.649 185.514h12.108v12.108h-12.108zM100.757 185.514h12.108v12.108h-12.108zM137.081 185.514h12.108v12.108h-12.108zM149.189 185.514h12.108v12.108h-12.108zM161.297 185.514h12.108v12.108h-12.108zM173.405 185.514h12.108v12.108h-12.108zM197.622 185.514h12.108v12.108h-12.108zM221.838 185.514h12.108v12.108h-12.108zM270.270 185.514h12.108v12.108h-12.108zM318.703 185.514h12.108v12.108h-12.108zM330.811 185.514h12.108v12.108h-12.108zM342.919 185.514h12.108v12.108h-12.108zM355.027 185.514h12.108v12.108h-12.108zM379.243 185.514h12.108v12.108h-12.108zM391.351 185.514h12.108v12.108h-12.108zM403.459 185.514h12.108v12.108h-12.108zM415.568 185.514h12.108v12.108h-12.108zM439.784 185.514h12.108v12.108h-12.108zM451.892 185.514h12.108v12.108h-12.108zM28.108 197.622h12.108v12.108h-12.108zM100.757 197.622h12.108v12.108h-12.108zM112.865 197.622h12.108v12.108h-12.108zM124.973 197.622h12.108v12.108h-12.108zM161.297 197.622h12.108v12.108h-12.108zM185.514 197.622h12.108v12.108h-12.108zM221.838 197.622h12.108v12.108h-12.108zM233.946 197.622h12.108v12.108h-12.108zM258.162 197.622h12.108v12.108h-12.108zM330.811 197.622h12.108v12.108h-12.108zM342.919 197.622h12.108v12.108h-12.108zM391.351 197.622h12.108v12.108h-12.108zM415.568 197.622h12.108v12.108h-12.108zM427.676 197.622h12.108v12.108h-12.108zM439.784 197.622h12.108v12.108h-12.108zM451.892 197.622h12.108v12.108h-12.108zM28.108 209.730h12.108v12.108h-12.108zM76.541 209.730h12.108v12.108h-12.108zM88.649 209.730h12.108v12.108h-12.108zM112.865 209.730h12.108v12.108h-12.108zM124.973 209.730h12.108v12.108h-12.108zM149.189 209.730h12.108v12.108h-12.108zM161.297 209.730h12.108v12.108h-12.108zM173.405 209.730h12.108v12.108h-12.108zM185.514 209.730h12.108v12.108h-12.108zM209.730 209.730h12.108v12.108h-12.108zM270.270 209.730h12.108v12.108h-12.108zM294.486 209.730h12.108v12.108h-12.108zM318.703 209.730h12.108v12.108h-12.108zM330.811 209.730h12.108v12.108h-12.108zM342.919 209.730h12.108v12.108h-12.108zM367.135 209.730h12.108v12.108h-12.108zM379.243 209.730h12.108v12.108h-12.108zM403.459 209.730h12.108v12.108h-12.108zM427.676 209.730h12.108v12.108h-12.108zM52.324 221.838h12.108v12.108h-12.108zM100.757 221.838h12.108v12.108h-12.108zM149.189 221.838h12.108v12.108h-12.108zM161.297 221.838h12.108v12.108h-12.108zM233.946 221.838h12.108v12.108h-12.108zM258.162 221.838h12.108v12.108h-12.108zM270.270 221.838h12.108v12.108h-12.108zM282.378 221.838h12.108v12.108h-12.108zM306.595 221.838h12.108v12.108h-12.108zM318.703 221.838h12.108v12.108h-12.108zM342.919 221.838h12.108v12.108h-12.108zM355.027 221.838h12.108v12.108h-12.108zM391.351 221.838h12.108v12.108h-12.108zM415.568 221.838h12.108v12.108h-12.108zM427.676 221.838h12.108v12.108h-12.108zM439.784 221.838h12.108v12.108h-12.108zM64.432 233.946h12.108v12.108h-12.108zM76.541 233.946h12.108v12.108h-12.108zM88.649 233.946h12.108v12.108h-12.108zM100.757 233.946h12.108v12.108h-12.108zM161.297 233.946h12.108v12.108h-12.108zM173.405 233.946h12.108v12.108h-12.108zM197.622 233.946h12.108v12.108h-12.108zM221.838 233.946h12.108v12.108h-12.108zM258.162 233.946h12.108v12.108h-12.108zM294.486 233.946h12.108v12.108h-12.108zM318.703 233.946h12.108v12.108h-12.108zM342.919 233.946h12.108v12.108h-12.108zM355.027 233.946h12.108v12.108h-12.108zM391.351 233.946h12.108v12.108h-12.108zM427.676 233.946h12.108v12.108h-12.108zM451.892 233.946h12.108v12.108h-12.108zM28.108 246.054h12.108v12.108h-12.108zM40.216 246.054h12.108v12.108h-12.108zM112.865 246.054h12.108v12.108h-12.108zM137.081 246.054h12.108v12.108h-12.108zM149.189 246.054h12.108v12.108h-12.108zM161.297 246.054h12.108v12.108h-12.108zM233.946 246.054h12.108v12.108h-12.108zM246.054 246.054h12.108v12.108h-12.108zM258.162 246.054h12.108v12.108h-12.108zM282.378 246.054h12.108v12.108h-12.108zM306.595 246.054h12.108v12.108h-12.108zM342.919 246.054h12.108v12.108h-12.108zM355.027 246.054h12.108v12.108h-12.108zM379.243 246.054h12.108v12.108h-12.108zM391.351 246.054h12.108v12.108h-12.108zM403.459 246.054h12.108v12.108h-12.108zM415.568 246.054h12.108v12.108h-12.108zM451.892 246.054h12.108v12.108h-12.108zM16.000 258.162h12.108v12.108h-12.108zM64.432 258.162h12.108v12.108h-12.108zM88.649 258.162h12.108v12.108h-12.108zM137.081 258.162h12.108v12.108h-12.108zM197.622 258.162h12.108v12.108h-12.108zM221.838 258.162h12.108v12.108h-12.108zM246.054 258.162h12.108v12.108h-12.108zM258.162 258.162h12.108v12.108h-12.108zM282.378 258.162h12.108v12.108h-12.108zM306.595 258.162h12.108v12.108h-12.108zM318.703 258.162h12.108v12.108h-12.108zM330.811 258.162h12.108v12.108h-12.108zM342.919 258.162h12.108v12.108h-12.108zM367.135 258.162h12.108v12.108h-12.108zM379.243 258.162h12.108v12.108h-12.108zM403.459 258.162h12.108v12.108h-12.108zM415.568 258.162h12.108v12.108h-12.108zM427.676 258.162h12.108v12.108h-12.108zM28.108 270.270h12.108v12.108h-12.108zM40.216 270.270h12.108v12.108h-12.108zM52.324 270.270h12.108v12.108h-12.108zM64.432 270.270h12.108v12.108h-12.108zM137.081 270.270h12.108v12.108h-12.108zM149.189 270.270h12.108v12.108h-12.108zM197.622 270.270h12.108v12.108h-12.108zM233.946 270.270h12.108v12.108h-12.108zM246.054 270.270h12.108v12.108h-12.108zM270.270 270.270h12.108v12.108h-12.108zM294.486 270.270h12.108v12.108h-12.108zM330.811 270.270h12.108v12.108h-12.108zM342.919 270.270h12.108v12.108h-12.108zM403.459 270.270h12.108v12.108h-12.108zM427.676 270.270h12.108v12.108h-12.108zM16.000 282.378h12.108v12.108h-12.108zM40.216 282.378h12.108v12.108h-12.108zM88.649 282.378h12.108v12.108h-12.108zM100.757 282.378h12.108v12.108h-12.108zM112.865 282.378h12.108v12.108h-12.108zM124.973 282.378h12.108v12.108h-12.108zM173.405 282.378h12.108v12.108h-12.108zM185.514 282.378h12.108v12.108h-12.108zM197.622 282.378h12.108v12.108h-12.108zM209.730 282.378h12.108v12.108h-12.108zM233.946 282.378h12.108v12.108h-12.108zM258.162 282.378h12.108v12.108h-12.108zM282.378 282.378h12.108v12.108h-12.108zM342.919 282.378h12.108v12.108h-12.108zM379.243 282.378h12.108v12.108h-12.108zM391.351 282.378h12.108v12.108h-12.108zM403.459 282.378h12.108v12.108h-12.108zM415.568 282.378h12.108v12.108h-12.108zM439.784 282.378h12.108v12.108h-12.108zM451.892 282.378h12.108v12.108h-12.108zM16.000 294.486h12.108v12.108h-12.108zM64.432 294.486h12.108v12.108h-12.108zM76.541 294.486h12.108v12.108h-12.108zM124.973 294.486h12.108v12.108h-12.108zM137.081 294.486h12.108v12.108h-12.108zM149.189 294.486h12.108v12.108h-12.108zM161.297 294.486h12.108v12.108h-12.108zM185.514 294.486h12.108v12.108h-12.108zM270.270 294.486h12.108v12.108h-12.108zM294.486 294.486h12.108v12.108h-12.108zM330.811 294.486h12.108v12.108h-12.108zM342.919 294.486h12.108v12.108h-12.108zM355.027 294.486h12.108v12.108h-12.108zM367.135 294.486h12.108v12.108h-12.108zM391.351 294.486h12.108v12.108h-12.108zM403.459 294.486h12.108v12.108h-12.108zM415.568 294.486h12.108v12.108h-12.108zM439.784 294.486h12.108v12.108h-12.108zM76.541 306.595h12.108v12.108h-12.108zM88.649 306.595h12.108v12.108h-12.108zM100.757 306.595h12.108v12.108h-12.108zM124.973 306.595h12.108v12.108h-12.108zM173.405 306.595h12.108v12.108h-12.108zM209.730 306.595h12.108v12.108h-12.108zM221.838 306.595h12.108v12.108h-12.108zM233.946 306.595h12.108v12.108h-12.108zM246.054 306.595h12.108v12.108h-12.108zM270.270 306.595h12.108v12.108h-12.108zM306.595 306.595h12.108v12.108h-12.108zM379.243 306.595h12.108v12.108h-12.108zM391.351 306.595h12.108v12.108h-12.108zM16.000 318.703h12.108v12.108h-12.108zM52.324 318.703h12.108v12.108h-12.108zM76.541 318.703h12.108v12.108h-12.108zM112.865 318.703h12.108v12.108h-12.108zM149.189 318.703h12.108v12.108h-12.108zM161.297 318.703h12.108v12.108h-12.108zM209.730 318.703h12.108v12.108h-12.108zM330.811 318.703h12.108v12.108h-12.108zM342.919 318.703h12.108v12.108h-12.108zM355.027 318.703h12.108v12.108h-12.108zM367.135 318.703h12.108v12.108h-12.108zM16.000 330.811h12.108v12.108h-12.108zM52.324 330.811h12.108v12.108h-12.108zM76.541 330.811h12.108v12.108h-12.108zM88.649 330.811h12.108v12.108h-12.108zM137.081 330.811h12.108v12.108h-12.108zM173.405 330.811h12.108v12.108h-12.108zM185.514 330.811h12.108v12.108h-12.108zM258.162 330.811h12.108v12.108h-12.108zM294.486 330.811h12.108v12.108h-12.108zM306.595 330.811h12.108v12.108h-12.108zM330.811 330.811h12.108v12.108h-12.108zM342.919 330.811h12.108v12.108h-12.108zM355.027 330.811h12.108v12.108h-12.108zM379.243 330.811h12.108v12.108h-12.108zM391.351 330.811h12.108v12.108h-12.108zM427.676 330.811h12.108v12.108h-12.108zM439.784 330.811h12.108v12.108h-12.108zM451.892 330.811h12.108v12.108h-12.108zM16.000 342.919h12.108v12.108h-12.108zM40.216 342.919h12.108v12.108h-12.108zM112.865 342.919h12.108v12.108h-12.108zM137.081 342.919h12.108v12.108h-12.108zM185.514 342.919h12.108v12.108h-12.108zM197.622 342.919h12.108v12.108h-12.108zM258.162 342.919h12.108v12.108h-12.108zM282.378 342.919h12.108v12.108h-12.108zM294.486 342.919h12.108v12.108h-12.108zM355.027 342.919h12.108v12.108h-12.108zM367.135 342.919h12.108v12.108h-12.108zM379.243 342.919h12.108v12.108h-12.108zM391.351 342.919h12.108v12.108h-12.108zM415.568 342.919h12.108v12.108h-12.108zM427.676 342.919h12.108v12.108h-12.108zM439.784 342.919h12.108v12.108h-12.108zM16.000 355.027h12.108v12.108h-12.108zM40.216 355.027h12.108v12.108h-12.108zM64.432 355.027h12.108v12.108h-12.108zM88.649 355.027h12.108v12.108h-12.108zM100.757 355.027h12.108v12.108h-12.108zM112.865 355.027h12.108v12.108h-12.108zM124.973 355.027h12.108v12.108h-12.108zM161.297 355.027h12.108v12.108h-12.108zM185.514 355.027h12.108v12.108h-12.108zM221.838 355.027h12.108v12.108h-12.108zM282.378 355.027h12.108v12.108h-12.108zM294.486 355.027h12.108v12.108h-12.108zM306.595 355.027h12.108v12.108h-12.108zM318.703 355.027h12.108v12.108h-12.108zM355.027 355.027h12.108v12.108h-12.108zM367.135 355.027h12.108v12.108h-12.108zM379.243 355.027h12.108v12.108h-12.108zM391.351 355.027h12.108v12.108h-12.108zM403.459 355.027h12.108v12.108h-12.108zM415.568 355.027h12.108v12.108h-12.108zM427.676 355.027h12.108v12.108h-12.108zM439.784 355.027h12.108v12.108h-12.108zM112.865 367.135h12.108v12.108h-12.108zM137.081 367.135h12.108v12.108h-12.108zM149.189 367.135h12.108v12.108h-12.108zM161.297 367.135h12.108v12.108h-12.108zM197.622 367.135h12.108v12.108h-12.108zM209.730 367.135h12.108v12.108h-12.108zM221.838 367.135h12.108v12.108h-12.108zM246.054 367.135h12.108v12.108h-12.108zM258.162 367.135h12.108v12.108h-12.108zM294.486 367.135h12.108v12.108h-12.108zM355.027 367.135h12.108v12.108h-12.108zM403.459 367.135h12.108v12.108h-12.108zM439.784 367.135h12.108v12.108h-12.108zM16.000 379.243h12.108v12.108h-12.108zM28.108 379.243h12.108v12.108h-12.108zM40.216 379.243h12.108v12.108h-12.108zM52.324 379.243h12.108v12.108h-12.108zM64.432 379.243h12.108v12.108h-12.108zM76.541 379.243h12.108v12.108h-12.108zM88.649 379.243h12.108v12.108h-12.108zM149.189 379.243h12.108v12.108h-12.108zM173.405 379.243h12.108v12.108h-12.108zM197.622 379.243h12.108v12.108h-12.108zM246.054 379.243h12.108v12.108h-12.108zM270.270 379.243h12.108v12.108h-12.108zM282.378 379.243h12.108v12.108h-12.108zM294.486 379.243h12.108v12.108h-12.108zM318.703 379.243h12.108v12.108h-12.108zM330.811 379.243h12.108v12.108h-12.108zM355.027 379.243h12.108v12.108h-12.108zM379.243 379.243h12.108v12.108h-12.108zM403.459 379.243h12.108v12.108h-12.108zM439.784 379.243h12.108v12.108h-12.108zM451.892 379.243h12.108v12.108h-12.108zM16.000 391.351h12.108v12.108h-12.108zM88.649 391.351h12.108v12.108h-12.108zM149.189 391.351h12.108v12.108h-12.108zM161.297 391.351h12.108v12.108h-12.108zM221.838 391.351h12.108v12.108h-12.108zM233.946 391.351h12.108v12.108h-12.108zM246.054 391.351h12.108v12.108h-12.108zM258.162 391.351h12.108v12.108h-12.108zM282.378 391.351h12.108v12.108h-12.108zM294.486 391.351h12.108v12.108h-12.108zM306.595 391.351h12.108v12.108h-12.108zM355.027 391.351h12.108v12.108h-12.108zM403.459 391.351h12.108v12.108h-12.108zM439.784 391.351h12.108v12.108h-12.108zM16.000 403.459h12.108v12.108h-12.108zM40.216 403.459h12.108v12.108h-12.108zM52.324 403.459h12.108v12.108h-12.108zM64.432 403.459h12.108v12.108h-12.108zM88.649 403.459h12.108v12.108h-12.108zM137.081 403.459h12.108v12.108h-12.108zM149.189 403.459h12.108v12.108h-12.108zM173.405 403.459h12.108v12.108h-12.108zM197.622 403.459h12.108v12.108h-12.108zM209.730 403.459h12.108v12.108h-12.108zM246.054 403.459h12.108v12.108h-12.108zM270.270 403.459h12.108v12.108h-12.108zM306.595 403.459h12.108v12.108h-12.108zM318.703 403.459h12.108v12.108h-12.108zM330.811 403.459h12.108v12.108h-12.108zM342.919 403.459h12.108v12.108h-12.108zM355.027 403.459h12.108v12.108h-12.108zM367.135 403.459h12.108v12.108h-12.108zM379.243 403.459h12.108v12.108h-12.108zM391.351 403.459h12.108v12.108h-12.108zM403.459 403.459h12.108v12.108h-12.108zM427.676 403.459h12.108v12.108h-12.108zM451.892 403.459h12.108v12.108h-12.108zM16.000 415.568h12.108v12.108h-12.108zM40.216 415.568h12.108v12.108h-12.108zM52.324 415.568h12.108v12.108h-12.108zM64.432 415.568h12.108v12.108h-12.108zM88.649 415.568h12.108v12.108h-12.108zM124.973 415.568h12.108v12.108h-12.108zM137.081 415.568h12.108v12.108h-12.108zM161.297 415.568h12.108v12.108h-12.108zM173.405 415.568h12.108v12.108h-12.108zM185.514 415.568h12.108v12.108h-12.108zM209.730 415.568h12.108v12.108h-12.108zM233.946 415.568h12.108v12.108h-12.108zM306.595 415.568h12.108v12.108h-12.108zM318.703 415.568h12.108v12.108h-12.108zM342.919 415.568h12.108v12.108h-12.108zM355.027 415.568h12.108v12.108h-12.108zM367.135 415.568h12.108v12.108h-12.108zM379.243 415.568h12.108v12.108h-12.108zM415.568 415.568h12.108v12.108h-12.108zM439.784 415.568h12.108v12.108h-12.108zM16.000 427.676h12.108v12.108h-12.108zM40.216 427.676h12.108v12.108h-12.108zM52.324 427.676h12.108v12.108h-12.108zM64.432 427.676h12.108v12.108h-12.108zM88.649 427.676h12.108v12.108h-12.108zM161.297 427.676h12.108v12.108h-12.108zM197.622 427.676h12.108v12.108h-12.108zM209.730 427.676h12.108v12.108h-12.108zM246.054 427.676h12.108v12.108h-12.108zM270.270 427.676h12.108v12.108h-12.108zM282.378 427.676h12.108v12.108h-12.108zM306.595 427.676h12.108v12.108h-12.108zM318.703 427.676h12.108v12.108h-12.108zM330.811 427.676h12.108v12.108h-12.108zM342.919 427.676h12.108v12.108h-12.108zM355.027 427.676h12.108v12.108h-12.108zM367.135 427.676h12.108v12.108h-12.108zM427.676 427.676h12.108v12.108h-12.108zM451.892 427.676h12.108v12.108h-12.108zM16.000 439.784h12.108v12.108h-12.108zM88.649 439.784h12.108v12.108h-12.108zM124.973 439.784h12.108v12.108h-12.108zM149.189 439.784h12.108v12.108h-12.108zM185.514 439.784h12.108v12.108h-12.108zM233.946 439.784h12.108v12.108h-12.108zM246.054 439.784h12.108v12.108h-12.108zM258.162 439.784h12.108v12.108h-12.108zM282.378 439.784h12.108v12.108h-12.108zM306.595 439.784h12.108v12.108h-12.108zM355.027 439.784h12.108v12.108h-12.108zM367.135 439.784h12.108v12.108h-12.108zM379.243 439.784h12.108v12.108h-12.108zM403.459 439.784h12.108v12.108h-12.108zM415.568 439.784h12.108v12.108h-12.108zM451.892 439.784h12.108v12.108h-12.108zM16.000 451.892h12.108v12.108h-12.108zM28.108 451.892h12.108v12.108h-12.108zM40.216 451.892h12.108v12.108h-12.108zM52.324 451.892h12.108v12.108h-12.108zM64.432 451.892h12.108v12.108h-12.108zM76.541 451.892h12.108v12.108h-12.108zM88.649 451.892h12.108v12.108h-12.108zM112.865 451.892h12.108v12.108h-12.108zM161.297 451.892h12.108v12.108h-12.108zM173.405 451.892h12.108v12.108h-12.108zM197.622 451.892h12.108v12.108h-12.108zM209.730 451.892h12.108v12.108h-12.108zM258.162 451.892h12.108v12.108h-12.108zM282.378 451.892h12.108v12.108h-12.108zM294.486 451.892h12.108v12.108h-12.108zM306.595 451.892h12.108v12.108h-12.108zM355.027 451.892h12.108v12.108h-12.108zM367.135 451.892h12.108v12.108h-12.108zM379.243 451.892h12.108v12.108h-12.108zM391.351 451.892h12.108v12.108h-12.108zM415.568 451.892h12.108v12.108h-12.108zM451.892 451.892h12.108v12.108h-12.108z" fill="#f6f4ef"></path>
</svg>