<svg xmlns="http://www.w3.org/2000/svg" width="1600" height="900" viewBox="0 0 1600 900">
    <defs>
    <radialGradient id="amb1" cx="0.75" cy="0.25" r="0.5"><stop offset="0%" stop-color="rgba(94,231,214,0.22)"></stop><stop offset="100%" stop-color="rgba(94,231,214,0)"></stop></radialGradient>
    <radialGradient id="amb2" cx="0.20" cy="0.90" r="0.45"><stop offset="0%" stop-color="rgba(14,143,136,0.18)"></stop><stop offset="100%" stop-color="rgba(14,143,136,0)"></stop></radialGradient>
    <linearGradient id="boltGrad" x1="0" y1="0" x2="1" y2="1"><stop offset="0%" stop-color="#5EE7D6"></stop><stop offset="55%" stop-color="#15B8AE"></stop><stop offset="100%" stop-color="#0E8F88"></stop></linearGradient>
    <linearGradient id="textGrad" x1="80" y1="336" x2="1076.8" y2="502" gradientUnits="userSpaceOnUse"><stop offset="0%" stop-color="#5EE7D6"></stop><stop offset="50%" stop-color="#15B8AE"></stop><stop offset="100%" stop-color="#0E8F88"></stop></linearGradient>
    <linearGradient id="ticketBar" x1="0" y1="0" x2="0" y2="1"><stop offset="0%" stop-color="#5EE7D6"></stop><stop offset="100%" stop-color="#0E8F88"></stop></linearGradient>
  </defs>
    <rect width="1600" height="900" fill="#070E14"></rect>
    <rect width="1600" height="900" fill="url(#amb1)"></rect>
    <rect width="1600" height="900" fill="url(#amb2)"></rect>
    <g transform="translate(1500 360) rotate(-4) translate(-500 -650)" opacity="0.95">
      <polygon points="88,0 20,84 56,84 32,160 100,76 64,76" fill="url(#boltGrad)" transform="scale(8.333333333333334 8.125)"></polygon>
    </g>
    <circle cx="84" cy="45" r="9" fill="rgba(94,231,214,0.18)"></circle><circle cx="84" cy="45" r="4" fill="#5EE7D6"></circle><path d="M104.33 48L103.12 48L103.12 38.51L104.78 38.51L107.62 46.52Q107.58 46.18 107.54 45.68Q107.51 45.18 107.49 44.64Q107.47 44.10 107.47 43.62L107.47 43.62L107.47 38.51L108.69 38.51L108.69 48L107.02 48L104.20 39.99Q104.24 40.33 104.26 40.82Q104.29 41.30 104.31 41.84Q104.33 42.37 104.33 42.84L104.33 42.84L104.33 48Z M115.20 48.13L115.20 48.13Q113.90 48.13 113.15 47.38Q112.39 46.62 112.39 45.24L112.39 45.24L112.39 41.25Q112.39 39.89 113.15 39.13Q113.90 38.38 115.20 38.38L115.20 38.38Q116.50 38.38 117.25 39.13Q118.01 39.88 118.01 41.25L118.01 41.25L118.01 45.24Q118.01 46.62 117.25 47.38Q116.50 48.13 115.20 48.13ZM115.20 46.99L115.20 46.99Q115.93 46.99 116.32 46.57Q116.72 46.15 116.72 45.37L116.72 45.37L116.72 41.12Q116.72 40.36 116.33 39.94Q115.94 39.52 115.20 39.52L115.20 39.52Q114.46 39.52 114.07 39.94Q113.68 40.36 113.68 41.12L113.68 41.12L113.68 45.37Q113.68 46.15 114.08 46.57Q114.47 46.99 115.20 46.99Z M123.49 48L121.94 48L120.85 38.51L121.99 38.51L122.69 45.43Q122.73 45.84 122.76 46.32Q122.80 46.79 122.81 47.09L122.81 47.09Q122.84 46.79 122.88 46.32Q122.91 45.84 122.98 45.43L122.98 45.43L123.89 38.51L125.18 38.51L126.02 45.43Q126.06 45.84 126.11 46.32Q126.16 46.79 126.20 47.09L126.20 47.09Q126.22 46.79 126.25 46.32Q126.29 45.84 126.33 45.43L126.33 45.43L127.05 38.51L128.17 38.51L127.03 48L125.47 48L124.66 40.98Q124.60 40.55 124.57 40.10Q124.54 39.65 124.53 39.38L124.53 39.38Q124.49 39.65 124.46 40.10Q124.43 40.55 124.38 40.98L124.38 40.98L123.49 48Z  M146.38 48L140.86 48L140.86 38.51L142.15 38.51L142.15 46.83L146.38 46.83L146.38 48Z M154.99 48L149.81 48L149.81 46.83L151.75 46.83L151.75 39.68L149.81 39.68L149.81 38.51L154.99 38.51L154.99 39.68L153.05 39.68L153.05 46.83L154.99 46.83L154.99 48Z M162.56 48L160.83 48L158.40 38.51L159.72 38.51L161.30 44.91Q161.45 45.52 161.56 46.08Q161.67 46.65 161.73 46.95L161.73 46.95Q161.77 46.65 161.89 46.08Q162.01 45.50 162.16 44.89L162.16 44.89L163.68 38.51L165.00 38.51L162.56 48Z M173.89 48L168.36 48L168.36 38.51L173.89 38.51L173.89 39.67L169.64 39.67L169.64 42.49L173.43 42.49L173.43 43.61L169.64 43.61L169.64 46.84L173.89 46.84L173.89 48Z" fill="#8896a6"></path><path d="M196.68 49.43L195.32 49.43L199.93 37.21L201.28 37.21L196.68 49.43Z" fill="rgba(136,150,166,0.4)"></path><path d="M225.39 48L222.84 48L222.84 38.51L225.39 38.51Q226.32 38.51 227.00 38.87Q227.68 39.23 228.06 39.87Q228.43 40.51 228.43 41.38L228.43 41.38L228.43 45.11Q228.43 45.98 228.06 46.63Q227.68 47.28 227.00 47.64Q226.32 48 225.39 48L225.39 48ZM224.13 39.65L224.13 46.86L225.39 46.86Q226.21 46.86 226.68 46.39Q227.15 45.92 227.15 45.11L227.15 45.11L227.15 41.38Q227.15 40.58 226.68 40.12Q226.21 39.65 225.39 39.65L225.39 39.65L224.13 39.65Z M233.43 48L232.16 48L232.16 38.51L235.10 38.51Q235.97 38.51 236.62 38.85Q237.27 39.20 237.63 39.82Q237.99 40.43 237.99 41.27L237.99 41.27Q237.99 42.23 237.51 42.92Q237.02 43.61 236.21 43.89L236.21 43.89L238.12 48L236.71 48L234.90 44.03L233.43 44.03L233.43 48ZM233.43 39.65L233.43 42.89L235.10 42.89Q235.82 42.89 236.25 42.45Q236.67 42.01 236.67 41.28L236.67 41.28Q236.67 40.54 236.24 40.10Q235.81 39.65 235.10 39.65L235.10 39.65L233.43 39.65Z M244.20 48.13L244.20 48.13Q242.90 48.13 242.15 47.38Q241.39 46.62 241.39 45.24L241.39 45.24L241.39 41.25Q241.39 39.89 242.15 39.13Q242.90 38.38 244.20 38.38L244.20 38.38Q245.50 38.38 246.25 39.13Q247.01 39.88 247.01 41.25L247.01 41.25L247.01 45.24Q247.01 46.62 246.25 47.38Q245.50 48.13 244.20 48.13ZM244.20 46.99L244.20 46.99Q244.93 46.99 245.32 46.57Q245.72 46.15 245.72 45.37L245.72 45.37L245.72 41.12Q245.72 40.36 245.33 39.94Q244.94 39.52 244.20 39.52L244.20 39.52Q243.46 39.52 243.07 39.94Q242.68 40.36 242.68 41.12L242.68 41.12L242.68 45.37Q242.68 46.15 243.08 46.57Q243.47 46.99 244.20 46.99Z M252.03 48L250.74 48L250.74 38.51L253.83 38.51Q254.74 38.51 255.40 38.86Q256.06 39.21 256.43 39.84Q256.79 40.47 256.79 41.34L256.79 41.34Q256.79 42.20 256.43 42.83Q256.06 43.46 255.39 43.81Q254.72 44.16 253.83 44.16L253.83 44.16L252.03 44.16L252.03 48ZM252.03 39.65L252.03 43.02L253.83 43.02Q254.58 43.02 255.02 42.56Q255.46 42.10 255.46 41.34L255.46 41.34Q255.46 40.58 255.02 40.12Q254.58 39.65 253.83 39.65L253.83 39.65L252.03 39.65Z  M272.10 48.13L272.10 48.13Q270.76 48.13 269.98 47.37Q269.20 46.61 269.20 45.32L269.20 45.32L269.20 41.19Q269.20 39.90 269.98 39.14Q270.76 38.38 272.10 38.38L272.10 38.38Q273.44 38.38 274.22 39.14Q275.00 39.90 275.00 41.19L275.00 41.19L275.00 45.32Q275.00 46.17 274.64 46.80Q274.28 47.43 273.63 47.78Q272.98 48.13 272.10 48.13ZM272.10 47.02L272.10 47.02Q272.85 47.02 273.31 46.55Q273.76 46.08 273.76 45.32L273.76 45.32L273.76 41.19Q273.76 40.43 273.31 39.96Q272.85 39.48 272.10 39.48L272.10 39.48Q271.35 39.48 270.89 39.96Q270.44 40.43 270.44 41.19L270.44 41.19L270.44 45.32Q270.44 46.08 270.89 46.55Q271.35 47.02 272.10 47.02ZM272.10 43.98L272.10 43.98Q271.74 43.98 271.52 43.78Q271.31 43.58 271.31 43.22L271.31 43.22Q271.31 42.85 271.52 42.66Q271.74 42.48 272.10 42.48L272.10 42.48Q272.46 42.48 272.69 42.66Q272.91 42.85 272.91 43.22L272.91 43.22Q272.91 43.58 272.69 43.78Q272.46 43.98 272.10 43.98Z M281.40 48.13L281.40 48.13Q280.06 48.13 279.28 47.37Q278.50 46.61 278.50 45.32L278.50 45.32L278.50 41.19Q278.50 39.90 279.28 39.14Q280.06 38.38 281.40 38.38L281.40 38.38Q282.74 38.38 283.52 39.14Q284.30 39.90 284.30 41.19L284.30 41.19L284.30 45.32Q284.30 46.17 283.94 46.80Q283.58 47.43 282.93 47.78Q282.28 48.13 281.40 48.13ZM281.40 47.02L281.40 47.02Q282.15 47.02 282.61 46.55Q283.06 46.08 283.06 45.32L283.06 45.32L283.06 41.19Q283.06 40.43 282.61 39.96Q282.15 39.48 281.40 39.48L281.40 39.48Q280.65 39.48 280.19 39.96Q279.74 40.43 279.74 41.19L279.74 41.19L279.74 45.32Q279.74 46.08 280.19 46.55Q280.65 47.02 281.40 47.02ZM281.40 43.98L281.40 43.98Q281.04 43.98 280.82 43.78Q280.61 43.58 280.61 43.22L280.61 43.22Q280.61 42.85 280.82 42.66Q281.04 42.48 281.40 42.48L281.40 42.48Q281.76 42.48 281.99 42.66Q282.21 42.85 282.21 43.22L282.21 43.22Q282.21 43.58 281.99 43.78Q281.76 43.98 281.40 43.98Z M293.86 48L287.96 48L287.96 46.83L290.49 46.83L290.49 39.67L287.94 41.56L287.94 40.11L290.10 38.51L291.78 38.51L291.78 46.83L293.86 46.83L293.86 48Z" fill="#8896a6"></path><path d="M316.38 49.43L315.02 49.43L319.63 37.21L320.98 37.21L316.38 49.43Z" fill="rgba(136,150,166,0.4)"></path><path d="M347.89 48L342.71 48L342.71 46.83L344.65 46.83L344.65 39.68L342.71 39.68L342.71 38.51L347.89 38.51L347.89 39.68L345.95 39.68L345.95 46.83L347.89 46.83L347.89 48Z M354.60 48.13L354.60 48.13Q353.30 48.13 352.55 47.38Q351.79 46.62 351.79 45.24L351.79 45.24L351.79 41.25Q351.79 39.89 352.55 39.13Q353.30 38.38 354.60 38.38L354.60 38.38Q355.90 38.38 356.65 39.13Q357.41 39.88 357.41 41.25L357.41 41.25L357.41 45.24Q357.41 46.62 356.65 47.38Q355.90 48.13 354.60 48.13ZM354.60 46.99L354.60 46.99Q355.33 46.99 355.72 46.57Q356.12 46.15 356.12 45.37L356.12 45.37L356.12 41.12Q356.12 40.36 355.73 39.94Q355.34 39.52 354.60 39.52L354.60 39.52Q353.86 39.52 353.47 39.94Q353.08 40.36 353.08 41.12L353.08 41.12L353.08 45.37Q353.08 46.15 353.48 46.57Q353.87 46.99 354.60 46.99Z M363.95 48.13L363.95 48.13Q362.55 48.13 361.72 47.40Q360.88 46.66 360.88 45.37L360.88 45.37L362.17 45.37Q362.17 46.13 362.65 46.56Q363.13 46.99 363.95 46.99L363.95 46.99Q364.73 46.99 365.19 46.55Q365.66 46.12 365.66 45.39L365.66 45.39Q365.66 44.84 365.36 44.43Q365.06 44.02 364.51 43.88L364.51 43.88L363.11 43.50Q362.18 43.24 361.64 42.56Q361.11 41.88 361.11 40.94L361.11 40.94Q361.11 40.17 361.45 39.60Q361.79 39.02 362.42 38.70Q363.04 38.38 363.86 38.38L363.86 38.38Q364.69 38.38 365.32 38.70Q365.95 39.02 366.31 39.59Q366.66 40.16 366.66 40.91L366.66 40.91L365.38 40.91Q365.38 40.29 364.96 39.90Q364.54 39.51 363.86 39.51L363.86 39.51Q363.19 39.51 362.78 39.90Q362.37 40.29 362.37 40.91L362.37 40.91Q362.37 41.42 362.64 41.77Q362.91 42.11 363.41 42.25L363.41 42.25L364.85 42.64Q365.82 42.90 366.37 43.64Q366.92 44.37 366.92 45.39L366.92 45.39Q366.92 46.22 366.55 46.84Q366.19 47.45 365.52 47.79Q364.85 48.13 363.95 48.13Z  M383.14 46.78L381.86 46.78L381.86 44.28L379.43 44.28L379.43 43.13L381.86 43.13L381.86 40.64L383.14 40.64L383.14 43.13L385.58 43.13L385.58 44.28L383.14 44.28L383.14 46.78Z  M399.11 48L397.80 48L400.26 38.51L401.96 38.51L404.40 48L403.09 48L402.49 45.53L399.71 45.53L399.11 48ZM400.66 41.62L399.96 44.46L402.23 44.46L401.54 41.63Q401.36 40.85 401.24 40.30Q401.13 39.76 401.10 39.56L401.10 39.56Q401.07 39.76 400.96 40.30Q400.84 40.85 400.66 41.62L400.66 41.62Z M408.83 48L407.62 48L407.62 38.51L409.28 38.51L412.12 46.52Q412.08 46.18 412.04 45.68Q412.01 45.18 411.99 44.64Q411.97 44.10 411.97 43.62L411.97 43.62L411.97 38.51L413.20 38.51L413.20 48L411.52 48L408.70 39.99Q408.74 40.33 408.76 40.82Q408.79 41.30 408.81 41.84Q408.83 42.37 408.83 42.84L408.83 42.84L408.83 48Z M419.49 48L416.94 48L416.94 38.51L419.49 38.51Q420.42 38.51 421.10 38.87Q421.78 39.23 422.16 39.87Q422.53 40.51 422.53 41.38L422.53 41.38L422.53 45.11Q422.53 45.98 422.16 46.63Q421.78 47.28 421.10 47.64Q420.42 48 419.49 48L419.49 48ZM418.23 39.65L418.23 46.86L419.49 46.86Q420.31 46.86 420.78 46.39Q421.25 45.92 421.25 45.11L421.25 45.11L421.25 41.38Q421.25 40.58 420.78 40.12Q420.31 39.65 419.49 39.65L419.49 39.65L418.23 39.65Z M427.53 48L426.26 48L426.26 38.51L429.20 38.51Q430.07 38.51 430.72 38.85Q431.37 39.20 431.73 39.82Q432.09 40.43 432.09 41.27L432.09 41.27Q432.09 42.23 431.61 42.92Q431.12 43.61 430.31 43.89L430.31 43.89L432.22 48L430.81 48L429.00 44.03L427.53 44.03L427.53 48ZM427.53 39.65L427.53 42.89L429.20 42.89Q429.92 42.89 430.35 42.45Q430.77 42.01 430.77 41.28L430.77 41.28Q430.77 40.54 430.34 40.10Q429.91 39.65 429.20 39.65L429.20 39.65L427.53 39.65Z M438.30 48.13L438.30 48.13Q437.00 48.13 436.25 47.38Q435.49 46.62 435.49 45.24L435.49 45.24L435.49 41.25Q435.49 39.89 436.25 39.13Q437.00 38.38 438.30 38.38L438.30 38.38Q439.60 38.38 440.35 39.13Q441.11 39.88 441.11 41.25L441.11 41.25L441.11 45.24Q441.11 46.62 440.35 47.38Q439.60 48.13 438.30 48.13ZM438.30 46.99L438.30 46.99Q439.03 46.99 439.42 46.57Q439.82 46.15 439.82 45.37L439.82 45.37L439.82 41.12Q439.82 40.36 439.43 39.94Q439.04 39.52 438.30 39.52L438.30 39.52Q437.56 39.52 437.17 39.94Q436.78 40.36 436.78 41.12L436.78 41.12L436.78 45.37Q436.78 46.15 437.18 46.57Q437.57 46.99 438.30 46.99Z M450.19 48L445.01 48L445.01 46.83L446.95 46.83L446.95 39.68L445.01 39.68L445.01 38.51L450.19 38.51L450.19 39.68L448.25 39.68L448.25 46.83L450.19 46.83L450.19 48Z M456.69 48L454.14 48L454.14 38.51L456.69 38.51Q457.62 38.51 458.30 38.87Q458.98 39.23 459.36 39.87Q459.73 40.51 459.73 41.38L459.73 41.38L459.73 45.11Q459.73 45.98 459.36 46.63Q458.98 47.28 458.30 47.64Q457.62 48 456.69 48L456.69 48ZM455.43 39.65L455.43 46.86L456.69 46.86Q457.51 46.86 457.98 46.39Q458.45 45.92 458.45 45.11L458.45 45.11L458.45 41.38Q458.45 40.58 457.98 40.12Q457.51 39.65 456.69 39.65L456.69 39.65L455.43 39.65Z" fill="#8896a6"></path><path d="M1396.06 48L1394.33 48L1391.90 38.51L1393.22 38.51L1394.80 44.91Q1394.95 45.52 1395.06 46.08Q1395.17 46.65 1395.23 46.95L1395.23 46.95Q1395.26 46.65 1395.39 46.08Q1395.51 45.50 1395.65 44.89L1395.65 44.89L1397.18 38.51L1398.50 38.51L1396.06 48Z M1404.50 48.13L1404.50 48.13Q1403.20 48.13 1402.45 47.38Q1401.69 46.62 1401.69 45.24L1401.69 45.24L1401.69 41.25Q1401.69 39.89 1402.45 39.13Q1403.20 38.38 1404.50 38.38L1404.50 38.38Q1405.80 38.38 1406.55 39.13Q1407.31 39.88 1407.31 41.25L1407.31 41.25L1407.31 45.24Q1407.31 46.62 1406.55 47.38Q1405.80 48.13 1404.50 48.13ZM1404.50 46.99L1404.50 46.99Q1405.23 46.99 1405.62 46.57Q1406.02 46.15 1406.02 45.37L1406.02 45.37L1406.02 41.12Q1406.02 40.36 1405.63 39.94Q1405.24 39.52 1404.50 39.52L1404.50 39.52Q1403.76 39.52 1403.37 39.94Q1402.98 40.36 1402.98 41.12L1402.98 41.12L1402.98 45.37Q1402.98 46.15 1403.38 46.57Q1403.77 46.99 1404.50 46.99Z M1417.08 48L1411.56 48L1411.56 38.51L1412.85 38.51L1412.85 46.83L1417.08 46.83L1417.08 48Z M1423.10 48.13L1423.10 48.13Q1422.61 48.13 1422.30 47.83Q1421.99 47.53 1421.99 47.06L1421.99 47.06Q1421.99 46.57 1422.30 46.26Q1422.61 45.95 1423.10 45.95L1423.10 45.95Q1423.59 45.95 1423.90 46.26Q1424.20 46.57 1424.20 47.06L1424.20 47.06Q1424.20 47.53 1423.90 47.83Q1423.59 48.13 1423.10 48.13Z  M1441.70 48.13L1441.70 48.13Q1440.36 48.13 1439.58 47.37Q1438.80 46.61 1438.80 45.32L1438.80 45.32L1438.80 41.19Q1438.80 39.90 1439.58 39.14Q1440.36 38.38 1441.70 38.38L1441.70 38.38Q1443.04 38.38 1443.82 39.14Q1444.60 39.90 1444.60 41.19L1444.60 41.19L1444.60 45.32Q1444.60 46.17 1444.24 46.80Q1443.88 47.43 1443.23 47.78Q1442.58 48.13 1441.70 48.13ZM1441.70 47.02L1441.70 47.02Q1442.45 47.02 1442.91 46.55Q1443.36 46.08 1443.36 45.32L1443.36 45.32L1443.36 41.19Q1443.36 40.43 1442.91 39.96Q1442.45 39.48 1441.70 39.48L1441.70 39.48Q1440.95 39.48 1440.49 39.96Q1440.04 40.43 1440.04 41.19L1440.04 41.19L1440.04 45.32Q1440.04 46.08 1440.49 46.55Q1440.95 47.02 1441.70 47.02ZM1441.70 43.98L1441.70 43.98Q1441.34 43.98 1441.12 43.78Q1440.91 43.58 1440.91 43.22L1440.91 43.22Q1440.91 42.85 1441.12 42.66Q1441.34 42.48 1441.70 42.48L1441.70 42.48Q1442.06 42.48 1442.28 42.66Q1442.51 42.85 1442.51 43.22L1442.51 43.22Q1442.51 43.58 1442.28 43.78Q1442.06 43.98 1441.70 43.98Z M1454.16 48L1448.26 48L1448.26 46.83L1450.79 46.83L1450.79 39.67L1448.24 41.56L1448.24 40.11L1450.40 38.51L1452.08 38.51L1452.08 46.83L1454.16 46.83L1454.16 48Z  M1473.50 44.28L1465.70 44.28L1465.70 43.13L1473.50 43.13L1473.50 44.28Z  M1491.19 48L1485.38 48L1485.38 46.82L1488.60 43.41Q1489.23 42.76 1489.49 42.22Q1489.76 41.68 1489.76 41.16L1489.76 41.16Q1489.76 40.42 1489.33 39.97Q1488.90 39.52 1488.17 39.52L1488.17 39.52Q1487.42 39.52 1486.98 39.98Q1486.54 40.43 1486.54 41.21L1486.54 41.21L1485.25 41.21Q1485.27 39.91 1486.07 39.15Q1486.87 38.38 1488.17 38.38L1488.17 38.38Q1489.50 38.38 1490.29 39.13Q1491.07 39.89 1491.07 41.15L1491.07 41.15Q1491.07 41.84 1490.71 42.59Q1490.34 43.33 1489.47 44.23L1489.47 44.23L1486.95 46.83L1491.19 46.83L1491.19 48Z M1497.50 48.13L1497.50 48.13Q1496.16 48.13 1495.38 47.37Q1494.60 46.61 1494.60 45.32L1494.60 45.32L1494.60 41.19Q1494.60 39.90 1495.38 39.14Q1496.16 38.38 1497.50 38.38L1497.50 38.38Q1498.84 38.38 1499.62 39.14Q1500.40 39.90 1500.40 41.19L1500.40 41.19L1500.40 45.32Q1500.40 46.17 1500.04 46.80Q1499.68 47.43 1499.03 47.78Q1498.38 48.13 1497.50 48.13ZM1497.50 47.02L1497.50 47.02Q1498.25 47.02 1498.71 46.55Q1499.16 46.08 1499.16 45.32L1499.16 45.32L1499.16 41.19Q1499.16 40.43 1498.71 39.96Q1498.25 39.48 1497.50 39.48L1497.50 39.48Q1496.75 39.48 1496.29 39.96Q1495.84 40.43 1495.84 41.19L1495.84 41.19L1495.84 45.32Q1495.84 46.08 1496.29 46.55Q1496.75 47.02 1497.50 47.02ZM1497.50 43.98L1497.50 43.98Q1497.14 43.98 1496.92 43.78Q1496.71 43.58 1496.71 43.22L1496.71 43.22Q1496.71 42.85 1496.92 42.66Q1497.14 42.48 1497.50 42.48L1497.50 42.48Q1497.86 42.48 1498.08 42.66Q1498.31 42.85 1498.31 43.22L1498.31 43.22Q1498.31 43.58 1498.08 43.78Q1497.86 43.98 1497.50 43.98Z M1509.79 48L1503.98 48L1503.98 46.82L1507.20 43.41Q1507.83 42.76 1508.09 42.22Q1508.36 41.68 1508.36 41.16L1508.36 41.16Q1508.36 40.42 1507.93 39.97Q1507.50 39.52 1506.77 39.52L1506.77 39.52Q1506.02 39.52 1505.58 39.98Q1505.14 40.43 1505.14 41.21L1505.14 41.21L1503.85 41.21Q1503.87 39.91 1504.67 39.15Q1505.47 38.38 1506.77 38.38L1506.77 38.38Q1508.10 38.38 1508.89 39.13Q1509.67 39.89 1509.67 41.15L1509.67 41.15Q1509.67 41.84 1509.31 42.59Q1508.94 43.33 1508.07 44.23L1508.07 44.23L1505.55 46.83L1509.79 46.83L1509.79 48Z M1516.11 48.13L1516.11 48.13Q1515.18 48.13 1514.47 47.75Q1513.77 47.36 1513.38 46.67Q1512.99 45.98 1512.99 45.08L1512.99 45.08Q1512.99 44.46 1513.23 43.79Q1513.47 43.11 1513.88 42.40L1513.88 42.40L1516.03 38.51L1517.48 38.51L1515.11 42.60L1515.15 42.63Q1515.32 42.41 1515.66 42.28Q1516.01 42.15 1516.44 42.15L1516.44 42.15Q1517.26 42.15 1517.88 42.51Q1518.50 42.88 1518.86 43.53Q1519.21 44.18 1519.21 45.05L1519.21 45.05Q1519.21 45.97 1518.82 46.66Q1518.43 47.35 1517.73 47.74Q1517.04 48.13 1516.11 48.13ZM1516.10 47.00L1516.10 47.00Q1516.92 47.00 1517.42 46.47Q1517.92 45.93 1517.92 45.08L1517.92 45.08Q1517.92 44.20 1517.42 43.67Q1516.92 43.14 1516.10 43.14L1516.10 43.14Q1515.28 43.14 1514.78 43.67Q1514.28 44.20 1514.28 45.08L1514.28 45.08Q1514.28 45.93 1514.78 46.47Q1515.28 47.00 1516.10 47.00Z" fill="#8896a6"></path>
    <path d="M158 320L110.80 320L131.40 216.60L90.40 216.60L97.80 180L227 180L219.60 216.60L178.60 216.60L158 320Z M301.80 208.60L301.80 208.60Q314.80 208.60 324.60 214.30Q334.40 220 338.70 231.30Q343 242.60 339.60 259.60L339.60 259.60L327.60 320L282.40 320L293.40 265Q297 246.60 282.80 246.60L282.80 246.60Q275.20 246.60 270 251.70Q264.80 256.80 262.60 267.40L262.60 267.40L252 320L206.80 320L236.40 171.60L281.60 171.60L272.20 219Q279 213.60 286.70 211.10Q294.40 208.60 301.80 208.60Z M409.40 322L409.40 322Q391.40 322 377.90 315.80Q364.40 309.60 356.80 298.20Q349.20 286.80 349.20 271.40L349.20 271.40Q349.20 253.40 357.60 239.20Q366.00 225 381.30 216.80Q396.60 208.60 417.00 208.60L417.00 208.60Q434.60 208.60 447.00 214.80Q459.40 221 466.00 231.80Q472.60 242.60 472.60 256.80L472.60 256.80Q472.60 261.80 471.90 266.60Q471.20 271.40 470.20 275.80L470.20 275.80L393.60 275.80Q395.00 282.60 400.30 285.60Q405.60 288.60 414.60 288.60L414.60 288.60Q420.80 288.60 427.00 286.70Q433.20 284.80 438.40 281L438.40 281L457.20 308.40Q446.00 316 433.90 319Q421.80 322 409.40 322ZM395.40 254L395.40 254L431.20 254Q431.20 247.20 426.70 243.30Q422.20 239.40 415.00 239.40L415.00 239.40Q407.20 239.40 402.50 243.50Q397.80 247.60 395.40 254Z" fill="#f6f4ef"></path><path d="M115 492L65.20 492L154.40 352L200.80 352L234 492L187 492L182.40 467.60L129 467.60L115 492ZM169 397.80L148.40 433.60L175.80 433.60L169 397.80Z M282.40 492L237.20 492L259 382.60L301.60 382.60L299.40 393.80Q306.40 386.80 316.30 383.70Q326.20 380.60 337.80 380.60L337.80 380.60L329.80 420.60Q324.80 419.80 320 419.80L320 419.80Q308.80 419.80 301.90 424.80Q295 429.80 292.60 441.40L292.60 441.40L282.40 492Z M389.80 494L389.80 494Q371.80 494 358.40 487.70Q345.00 481.40 337.60 470Q330.20 458.60 330.20 443.40L330.20 443.40Q330.20 425.40 339.00 411.20Q347.80 397 363.40 388.80Q379.00 380.60 399.20 380.60L399.20 380.60Q418.80 380.60 433.20 389.20Q447.60 397.80 453.40 412.60L453.40 412.60L415.00 430.20Q412.20 422.60 407.50 419.40Q402.80 416.20 397.00 416.20L397.00 416.20Q387.80 416.20 381.90 422.90Q376.00 429.60 376.00 440.60L376.00 440.60Q376.00 448.40 380.40 453.40Q384.80 458.40 393.20 458.40L393.20 458.40Q399.80 458.40 404.80 455.20Q409.80 452 413.60 444.40L413.60 444.40L446.60 463.60Q438.60 478 423.90 486Q409.20 494 389.80 494Z M498.80 494L498.80 494Q484.80 494 475.00 488.80Q465.20 483.60 461.20 473.50Q457.20 463.40 460.00 449.20L460.00 449.20L466.80 415.60L451.60 415.60L458.20 382.60L473.20 382.60L478.20 358L523.40 358L518.40 382.60L540.80 382.60L534.20 415.60L511.80 415.60L505.20 449Q504.20 454.60 506.40 457.20Q508.60 459.80 513.20 459.80L513.20 459.80Q516 459.80 518.30 459.10Q520.60 458.40 523.20 457.20L523.20 457.20L528.40 487.60Q522.20 491 514.50 492.50Q506.80 494 498.80 494Z M580.40 492L535.40 492L557.20 382.60L602.20 382.60L580.40 492ZM584.60 373.80L584.60 373.80Q572.80 373.80 565.90 367.60Q559.00 361.40 559.00 352.40L559.00 352.40Q559.00 341.80 566.90 334.80Q574.80 327.80 587.80 327.80L587.80 327.80Q599.60 327.80 606.50 333.60Q613.40 339.40 613.40 348.40L613.40 348.40Q613.40 359.60 605.50 366.70Q597.60 373.80 584.60 373.80Z M675.40 492L628.60 492L606.40 382.60L651.00 382.60L661.80 441.40L696.60 382.60L741.20 382.60L675.40 492Z M773.20 494L773.20 494Q762.40 494 752 488.10Q741.60 482.20 734.90 470.90Q728.20 459.60 728.20 443.40L728.20 443.40Q728.20 429.80 732.80 418.40Q737.40 407 745.50 398.50Q753.60 390 764.10 385.30Q774.60 380.60 786.40 380.60L786.40 380.60Q796.40 380.60 804.50 383.70Q812.60 386.80 817.60 394.20L817.60 394.20L820 382.60L865.20 382.60L843.40 492L800.80 492L802.80 482Q790.60 494 773.20 494ZM790.20 458.40L790.20 458.40Q799 458.40 804.50 451.60Q810 444.80 810 433.40L810 433.40Q810 425.80 805.70 421Q801.40 416.20 793.80 416.20L793.80 416.20Q785 416.20 779.50 423Q774 429.80 774 441.20L774 441.20Q774 448.80 778.30 453.60Q782.60 458.40 790.20 458.40Z M912.60 494L912.60 494Q898.60 494 888.80 488.80Q879 483.60 875 473.50Q871 463.40 873.80 449.20L873.80 449.20L880.60 415.60L865.40 415.60L872 382.60L887 382.60L892 358L937.20 358L932.20 382.60L954.60 382.60L948 415.60L925.60 415.60L919 449Q918 454.60 920.20 457.20Q922.40 459.80 927 459.80L927 459.80Q929.80 459.80 932.10 459.10Q934.40 458.40 937 457.20L937 457.20L942.20 487.60Q936 491 928.30 492.50Q920.60 494 912.60 494Z M1014.40 494L1014.40 494Q996.40 494 982.90 487.80Q969.40 481.60 961.80 470.20Q954.20 458.80 954.20 443.40L954.20 443.40Q954.20 425.40 962.60 411.20Q971 397 986.30 388.80Q1001.60 380.60 1022 380.60L1022 380.60Q1039.60 380.60 1052 386.80Q1064.40 393 1071 403.80Q1077.60 414.60 1077.60 428.80L1077.60 428.80Q1077.60 433.80 1076.90 438.60Q1076.20 443.40 1075.20 447.80L1075.20 447.80L998.60 447.80Q1000 454.60 1005.30 457.60Q1010.60 460.60 1019.60 460.60L1019.60 460.60Q1025.80 460.60 1032 458.70Q1038.20 456.80 1043.40 453L1043.40 453L1062.20 480.40Q1051 488 1038.90 491Q1026.80 494 1014.40 494ZM1000.40 426L1000.40 426L1036.20 426Q1036.20 419.20 1031.70 415.30Q1027.20 411.40 1020 411.40L1020 411.40Q1012.20 411.40 1007.50 415.50Q1002.80 419.60 1000.40 426Z" fill="url(#textGrad)"></path><path d="M129 666L129 666Q118.20 666 107.80 660.10Q97.40 654.20 90.70 642.90Q84 631.60 84 615.40L84 615.40Q84 601.80 88.60 590.40Q93.20 579 101.30 570.50Q109.40 562 119.90 557.30Q130.40 552.60 142.20 552.60L142.20 552.60Q152.20 552.60 160.30 555.70Q168.40 558.80 173.40 566.20L173.40 566.20L175.80 554.60L221 554.60L199.20 664L156.60 664L158.60 654Q146.40 666 129 666ZM146 630.40L146 630.40Q154.80 630.40 160.30 623.60Q165.80 616.80 165.80 605.40L165.80 605.40Q165.80 597.80 161.50 593Q157.20 588.20 149.60 588.20L149.60 588.20Q140.80 588.20 135.30 595Q129.80 601.80 129.80 613.20L129.80 613.20Q129.80 620.80 134.10 625.60Q138.40 630.40 146 630.40Z M294.80 666L294.80 666Q284.80 666 276.70 662.90Q268.60 659.80 263.60 652.40L263.60 652.40L253.40 702.80L208.20 702.80L237.80 554.60L280.40 554.60L278.40 564.60Q290.60 552.60 308 552.60L308 552.60Q319 552.60 329.30 558.50Q339.60 564.40 346.30 575.60Q353 586.80 353 603.20L353 603.20Q353 616.60 348.40 628.10Q343.80 639.60 335.70 648.10Q327.60 656.60 317.10 661.30Q306.60 666 294.80 666ZM287.40 630.40L287.40 630.40Q296.20 630.40 301.70 623.60Q307.20 616.80 307.20 605.40L307.20 605.40Q307.20 597.80 302.90 593Q298.60 588.20 291 588.20L291 588.20Q282.20 588.20 276.70 595Q271.20 601.80 271.20 613.20L271.20 613.20Q271.20 620.80 275.50 625.60Q279.80 630.40 287.40 630.40Z M431.80 666L431.80 666Q421.80 666 413.70 662.90Q405.60 659.80 400.60 652.40L400.60 652.40L390.40 702.80L345.20 702.80L374.80 554.60L417.40 554.60L415.40 564.60Q427.60 552.60 445 552.60L445 552.60Q456 552.60 466.30 558.50Q476.60 564.40 483.30 575.60Q490 586.80 490 603.20L490 603.20Q490 616.60 485.40 628.10Q480.80 639.60 472.70 648.10Q464.60 656.60 454.10 661.30Q443.60 666 431.80 666ZM424.40 630.40L424.40 630.40Q433.20 630.40 438.70 623.60Q444.20 616.80 444.20 605.40L444.20 605.40Q444.20 597.80 439.90 593Q435.60 588.20 428 588.20L428 588.20Q419.20 588.20 413.70 595Q408.20 601.80 408.20 613.20L408.20 613.20Q408.20 620.80 412.50 625.60Q416.80 630.40 424.40 630.40Z M513.40 666L513.40 666Q502.40 666 495.50 659.30Q488.60 652.60 488.60 642.20L488.60 642.20Q488.60 629.60 496.90 622Q505.20 614.40 517 614.40L517 614.40Q528.20 614.40 534.90 621Q541.60 627.60 541.60 638.20L541.60 638.20Q541.60 646.60 537.80 652.80Q534 659 527.60 662.50Q521.20 666 513.40 666Z" fill="#f6f4ef"></path>
    <path d="M84.20 726.64L81.70 726.64L90.20 704.08L92.70 704.08L84.20 726.64Z M99.60 726.64L97.10 726.64L105.60 704.08L108.10 704.08L99.60 726.64Z  M138.63 724L134.72 724Q133.02 724 132.02 723.02Q131.02 722.03 131.02 720.40L131.02 720.40L131.02 712.96L127.26 712.96L127.26 710.80L131.02 710.80L131.02 707.08L133.40 707.08L133.40 710.80L138.75 710.80L138.75 712.96L133.40 712.96L133.40 720.38Q133.40 721.02 133.77 721.43Q134.14 721.84 134.77 721.84L134.77 721.84L138.63 721.84L138.63 724Z M146.57 724L144.19 724L144.19 710.80L146.54 710.80L146.54 713.34L146.57 713.34Q146.76 712.05 147.68 711.30Q148.61 710.56 150.14 710.56L150.14 710.56Q152.18 710.56 153.31 711.82Q154.44 713.08 154.44 715.36L154.44 715.36L154.44 716.51L152.06 716.51L152.06 715.38Q152.06 712.62 149.35 712.62L149.35 712.62Q147.98 712.62 147.28 713.42Q146.57 714.21 146.57 715.67L146.57 715.67L146.57 724Z M162.98 724.24L162.98 724.24Q160.94 724.24 159.75 723.10Q158.56 721.96 158.56 720.11L158.56 720.11Q158.56 718.26 159.80 717.14Q161.03 716.01 163.05 716.01L163.05 716.01L166.91 716.01L166.91 715Q166.91 712.58 164.22 712.58L164.22 712.58Q163.02 712.58 162.29 713.02Q161.56 713.46 161.51 714.26L161.51 714.26L159.16 714.26Q159.28 712.65 160.62 711.60Q161.97 710.56 164.22 710.56L164.22 710.56Q166.65 710.56 167.97 711.71Q169.29 712.86 169.29 714.95L169.29 714.95L169.29 724L166.96 724L166.96 721.58L166.91 721.58Q166.74 722.80 165.70 723.52Q164.66 724.24 162.98 724.24ZM163.60 722.25L163.60 722.25Q165.11 722.25 166.01 721.52Q166.91 720.78 166.91 719.51L166.91 719.51L166.91 717.76L163.26 717.76Q162.23 717.76 161.60 718.37Q160.96 718.98 160.96 719.99L160.96 719.99Q160.96 721.02 161.66 721.64Q162.35 722.25 163.60 722.25Z M185.74 724L174.39 724L174.39 721.84L179.02 721.84L179.02 712.96L174.87 712.96L174.87 710.80L181.40 710.80L181.40 721.84L185.74 721.84L185.74 724ZM179.98 708.47L179.98 708.47Q179.17 708.47 178.69 708.05Q178.21 707.63 178.21 706.91L178.21 706.91Q178.21 706.17 178.69 705.74Q179.17 705.30 179.98 705.30L179.98 705.30Q180.80 705.30 181.28 705.74Q181.76 706.17 181.76 706.91L181.76 706.91Q181.76 707.63 181.28 708.05Q180.80 708.47 179.98 708.47Z M192.29 724L189.91 724L189.91 710.80L192.26 710.80L192.26 713.32L192.29 713.32Q192.46 712.02 193.38 711.29Q194.30 710.56 195.82 710.56L195.82 710.56Q197.78 710.56 198.96 711.81Q200.14 713.06 200.14 715.17L200.14 715.17L200.14 724L197.76 724L197.76 715.55Q197.76 714.11 197.04 713.34Q196.32 712.58 195.07 712.58L195.07 712.58Q193.78 712.58 193.03 713.38Q192.29 714.18 192.29 715.62L192.29 715.62L192.29 724Z  M225.80 717.78L225.80 717.78Q224.89 717.78 224.32 717.23Q223.76 716.68 223.76 715.82L223.76 715.82Q223.76 714.90 224.32 714.33Q224.89 713.75 225.80 713.75L225.80 713.75Q226.71 713.75 227.28 714.33Q227.84 714.90 227.84 715.82L227.84 715.82Q227.84 716.68 227.28 717.23Q226.71 717.78 225.80 717.78Z  M261.83 724L257.92 724Q256.22 724 255.22 723.02Q254.22 722.03 254.22 720.40L254.22 720.40L254.22 712.96L250.46 712.96L250.46 710.80L254.22 710.80L254.22 707.08L256.60 707.08L256.60 710.80L261.95 710.80L261.95 712.96L256.60 712.96L256.60 720.38Q256.60 721.02 256.97 721.43Q257.34 721.84 257.97 721.84L257.97 721.84L261.83 721.84L261.83 724Z M269.77 724L267.39 724L267.39 710.80L269.74 710.80L269.74 713.34L269.77 713.34Q269.96 712.05 270.88 711.30Q271.81 710.56 273.34 710.56L273.34 710.56Q275.38 710.56 276.51 711.82Q277.64 713.08 277.64 715.36L277.64 715.36L277.64 716.51L275.26 716.51L275.26 715.38Q275.26 712.62 272.55 712.62L272.55 712.62Q271.18 712.62 270.48 713.42Q269.77 714.21 269.77 715.67L269.77 715.67L269.77 724Z M286.18 724.24L286.18 724.24Q284.14 724.24 282.95 723.10Q281.76 721.96 281.76 720.11L281.76 720.11Q281.76 718.26 283.00 717.14Q284.23 716.01 286.25 716.01L286.25 716.01L290.11 716.01L290.11 715Q290.11 712.58 287.42 712.58L287.42 712.58Q286.22 712.58 285.49 713.02Q284.76 713.46 284.71 714.26L284.71 714.26L282.36 714.26Q282.48 712.65 283.82 711.60Q285.17 710.56 287.42 710.56L287.42 710.56Q289.85 710.56 291.17 711.71Q292.49 712.86 292.49 714.95L292.49 714.95L292.49 724L290.16 724L290.16 721.58L290.11 721.58Q289.94 722.80 288.90 723.52Q287.86 724.24 286.18 724.24ZM286.80 722.25L286.80 722.25Q288.31 722.25 289.21 721.52Q290.11 720.78 290.11 719.51L290.11 719.51L290.11 717.76L286.46 717.76Q285.43 717.76 284.80 718.37Q284.16 718.98 284.16 719.99L284.16 719.99Q284.16 721.02 284.86 721.64Q285.55 722.25 286.80 722.25Z M302.99 724.24L302.99 724.24Q300.57 724.24 299.10 722.88Q297.64 721.53 297.64 719.15L297.64 719.15L297.64 715.62Q297.64 713.27 299.10 711.92Q300.57 710.56 302.99 710.56L302.99 710.56Q305.32 710.56 306.75 711.80Q308.18 713.03 308.25 715.17L308.25 715.17L305.90 715.17Q305.82 713.97 305.04 713.31Q304.26 712.65 302.99 712.65L302.99 712.65Q301.62 712.65 300.82 713.43Q300.02 714.21 300.02 715.62L300.02 715.62L300.02 719.15Q300.02 720.59 300.82 721.36Q301.62 722.13 302.99 722.13L302.99 722.13Q304.29 722.13 305.06 721.48Q305.82 720.83 305.90 719.63L305.90 719.63L308.25 719.63Q308.18 721.77 306.75 723.00Q305.32 724.24 302.99 724.24Z M315.61 724L313.23 724L313.23 706.48L315.61 706.48L315.61 716.18L318.03 716.18L321.58 710.80L324.27 710.80L320.12 717.11L324.49 724L321.75 724L318.06 718.22L315.61 718.22L315.61 724Z  M349.00 717.78L349.00 717.78Q348.09 717.78 347.52 717.23Q346.96 716.68 346.96 715.82L346.96 715.82Q346.96 714.90 347.52 714.33Q348.09 713.75 349.00 713.75L349.00 713.75Q349.91 713.75 350.48 714.33Q351.04 714.90 351.04 715.82L351.04 715.82Q351.04 716.68 350.48 717.23Q349.91 717.78 349.00 717.78Z  M379.99 724.24L379.99 724.24Q377.57 724.24 376.10 722.88Q374.64 721.53 374.64 719.15L374.64 719.15L374.64 715.62Q374.64 713.27 376.10 711.92Q377.57 710.56 379.99 710.56L379.99 710.56Q382.32 710.56 383.75 711.80Q385.18 713.03 385.25 715.17L385.25 715.17L382.90 715.17Q382.82 713.97 382.04 713.31Q381.26 712.65 379.99 712.65L379.99 712.65Q378.62 712.65 377.82 713.43Q377.02 714.21 377.02 715.62L377.02 715.62L377.02 719.15Q377.02 720.59 377.82 721.36Q378.62 722.13 379.99 722.13L379.99 722.13Q381.29 722.13 382.06 721.48Q382.82 720.83 382.90 719.63L382.90 719.63L385.25 719.63Q385.18 721.77 383.75 723.00Q382.32 724.24 379.99 724.24Z M395.20 724.19L395.20 724.19Q392.78 724.19 391.35 722.80Q389.92 721.41 389.92 718.91L389.92 718.91L389.92 715.89Q389.92 713.39 391.35 712Q392.78 710.61 395.20 710.61L395.20 710.61Q397.62 710.61 399.05 712Q400.48 713.39 400.48 715.89L400.48 715.89L400.48 718.91Q400.48 721.41 399.05 722.80Q397.62 724.19 395.20 724.19ZM395.20 722.10L395.20 722.10Q396.54 722.10 397.32 721.35Q398.10 720.59 398.10 719.13L398.10 719.13L398.10 715.67Q398.10 714.21 397.32 713.45Q396.54 712.70 395.20 712.70L395.20 712.70Q393.86 712.70 393.08 713.45Q392.30 714.21 392.30 715.67L392.30 715.67L392.30 719.13Q392.30 720.59 393.08 721.35Q393.86 722.10 395.20 722.10Z M407.89 724L405.51 724L405.51 710.80L407.86 710.80L407.86 713.32L407.89 713.32Q408.06 712.02 408.98 711.29Q409.90 710.56 411.42 710.56L411.42 710.56Q413.38 710.56 414.56 711.81Q415.74 713.06 415.74 715.17L415.74 715.17L415.74 724L413.36 724L413.36 715.55Q413.36 714.11 412.64 713.34Q411.92 712.58 410.67 712.58L410.67 712.58Q409.38 712.58 408.63 713.38Q407.89 714.18 407.89 715.62L407.89 715.62L407.89 724Z M431.09 728.32L428.71 728.32L428.71 724.50L428.76 721.50L428.71 721.50Q428.47 722.78 427.52 723.51Q426.58 724.24 425.14 724.24L425.14 724.24Q423.14 724.24 421.97 722.91Q420.79 721.58 420.79 719.27L420.79 719.27L420.79 715.50Q420.79 713.22 421.97 711.89Q423.14 710.56 425.14 710.56L425.14 710.56Q426.60 710.56 427.56 711.30Q428.52 712.05 428.74 713.34L428.74 713.34L428.74 713.34L428.74 710.80L431.09 710.80L431.09 728.32ZM425.95 722.18L425.95 722.18Q427.22 722.18 427.97 721.38Q428.71 720.59 428.71 719.15L428.71 719.15L428.71 715.65Q428.71 714.21 427.97 713.42Q427.22 712.62 425.95 712.62L425.95 712.62Q424.63 712.62 423.90 713.30Q423.17 713.97 423.17 715.43L423.17 715.43L423.17 719.37Q423.17 720.83 423.90 721.50Q424.63 722.18 425.95 722.18Z M441.38 724.24L441.38 724.24Q439.05 724.24 437.66 722.87Q436.26 721.50 436.26 719.15L436.26 719.15L436.26 710.80L438.64 710.80L438.64 719.15Q438.64 720.54 439.37 721.35Q440.10 722.15 441.38 722.15L441.38 722.15Q442.67 722.15 443.42 721.35Q444.16 720.54 444.16 719.15L444.16 719.15L444.16 710.80L446.54 710.80L446.54 719.15Q446.54 721.50 445.13 722.87Q443.73 724.24 441.38 724.24Z M456.80 724.24L456.80 724.24Q454.42 724.24 452.97 722.82Q451.52 721.41 451.52 718.96L451.52 718.96L451.52 715.84Q451.52 713.39 452.97 711.98Q454.42 710.56 456.80 710.56L456.80 710.56Q458.38 710.56 459.57 711.20Q460.76 711.83 461.42 712.97Q462.08 714.11 462.08 715.62L462.08 715.62L462.08 718L453.85 718L453.85 719.15Q453.85 720.59 454.64 721.41Q455.43 722.22 456.80 722.22L456.80 722.22Q457.95 722.22 458.70 721.79Q459.44 721.36 459.58 720.59L459.58 720.59L461.96 720.59Q461.72 722.27 460.30 723.26Q458.89 724.24 456.80 724.24ZM453.85 715.62L453.85 715.62L453.85 716.25L459.75 716.25L459.75 715.62Q459.75 714.11 458.98 713.30Q458.22 712.48 456.80 712.48L456.80 712.48Q455.38 712.48 454.62 713.30Q453.85 714.11 453.85 715.62Z M469.97 724L467.59 724L467.59 710.80L469.94 710.80L469.94 713.34L469.97 713.34Q470.16 712.05 471.08 711.30Q472.01 710.56 473.54 710.56L473.54 710.56Q475.58 710.56 476.71 711.82Q477.84 713.08 477.84 715.36L477.84 715.36L477.84 716.51L475.46 716.51L475.46 715.38Q475.46 712.62 472.75 712.62L472.75 712.62Q471.38 712.62 470.68 713.42Q469.97 714.21 469.97 715.67L469.97 715.67L469.97 724Z" fill="#c4ccd6"></path><path d="M84.20 762.64L81.70 762.64L90.20 740.08L92.70 740.08L84.20 762.64Z M99.60 762.64L97.10 762.64L105.60 740.08L108.10 740.08L99.60 762.64Z  M132.54 760.24L132.54 760.24Q130.54 760.24 129.37 758.91Q128.19 757.58 128.19 755.30L128.19 755.30L128.19 751.50Q128.19 749.22 129.37 747.89Q130.54 746.56 132.54 746.56L132.54 746.56Q134.00 746.56 134.97 747.30Q135.94 748.05 136.16 749.34L136.16 749.34L136.16 749.34L136.11 746.27L136.11 742.48L138.49 742.48L138.49 760L136.14 760L136.14 757.43L136.14 757.43Q135.92 758.75 134.96 759.50Q134.00 760.24 132.54 760.24ZM133.35 758.18L133.35 758.18Q134.62 758.18 135.37 757.38Q136.11 756.59 136.11 755.15L136.11 755.15L136.11 751.65Q136.11 750.21 135.37 749.42Q134.62 748.62 133.35 748.62L133.35 748.62Q132.03 748.62 131.30 749.31Q130.57 749.99 130.57 751.53L130.57 751.53L130.57 755.27Q130.57 756.81 131.30 757.49Q132.03 758.18 133.35 758.18Z M148.80 760.19L148.80 760.19Q146.38 760.19 144.95 758.80Q143.52 757.41 143.52 754.91L143.52 754.91L143.52 751.89Q143.52 749.39 144.95 748Q146.38 746.61 148.80 746.61L148.80 746.61Q151.22 746.61 152.65 748Q154.08 749.39 154.08 751.89L154.08 751.89L154.08 754.91Q154.08 757.41 152.65 758.80Q151.22 760.19 148.80 760.19ZM148.80 758.10L148.80 758.10Q150.14 758.10 150.92 757.35Q151.70 756.59 151.70 755.13L151.70 755.13L151.70 751.67Q151.70 750.21 150.92 749.45Q150.14 748.70 148.80 748.70L148.80 748.70Q147.46 748.70 146.68 749.45Q145.90 750.21 145.90 751.67L145.90 751.67L145.90 755.13Q145.90 756.59 146.68 757.35Q147.46 758.10 148.80 758.10Z M162.35 760L159.78 760L157.65 746.80L159.66 746.80L160.96 755.80Q161.03 756.40 161.10 757.10Q161.18 757.79 161.20 758.22L161.20 758.22Q161.25 757.79 161.32 757.10Q161.39 756.40 161.49 755.80L161.49 755.80L163.07 746.80L165.33 746.80L166.91 755.80Q167.01 756.40 167.09 757.08Q167.18 757.77 167.22 758.22L167.22 758.22Q167.27 757.77 167.34 757.08Q167.42 756.40 167.49 755.80L167.49 755.80L168.83 746.80L170.75 746.80L168.52 760L165.98 760L164.51 751.12Q164.42 750.47 164.33 749.68Q164.25 748.89 164.20 748.43L164.20 748.43Q164.18 748.89 164.07 749.68Q163.96 750.47 163.86 751.12L163.86 751.12L162.35 760Z M176.89 760L174.51 760L174.51 746.80L176.86 746.80L176.86 749.32L176.89 749.32Q177.06 748.02 177.98 747.29Q178.90 746.56 180.42 746.56L180.42 746.56Q182.38 746.56 183.56 747.81Q184.74 749.06 184.74 751.17L184.74 751.17L184.74 760L182.36 760L182.36 751.55Q182.36 750.11 181.64 749.34Q180.92 748.58 179.67 748.58L179.67 748.58Q178.38 748.58 177.63 749.38Q176.89 750.18 176.89 751.62L176.89 751.62L176.89 760Z M201.05 760L196.97 760Q195.17 760 194.09 758.94Q193.01 757.89 193.01 756.14L193.01 756.14L193.01 744.64L188.50 744.64L188.50 742.48L195.38 742.48L195.38 756.11Q195.38 756.90 195.83 757.37Q196.27 757.84 197.04 757.84L197.04 757.84L201.05 757.84L201.05 760Z M210.40 760.19L210.40 760.19Q207.98 760.19 206.55 758.80Q205.12 757.41 205.12 754.91L205.12 754.91L205.12 751.89Q205.12 749.39 206.55 748Q207.98 746.61 210.40 746.61L210.40 746.61Q212.82 746.61 214.25 748Q215.68 749.39 215.68 751.89L215.68 751.89L215.68 754.91Q215.68 757.41 214.25 758.80Q212.82 760.19 210.40 760.19ZM210.40 758.10L210.40 758.10Q211.74 758.10 212.52 757.35Q213.30 756.59 213.30 755.13L213.30 755.13L213.30 751.67Q213.30 750.21 212.52 749.45Q211.74 748.70 210.40 748.70L210.40 748.70Q209.06 748.70 208.28 749.45Q207.50 750.21 207.50 751.67L207.50 751.67L207.50 755.13Q207.50 756.59 208.28 757.35Q209.06 758.10 210.40 758.10Z M224.58 760.24L224.58 760.24Q222.54 760.24 221.35 759.10Q220.16 757.96 220.16 756.11L220.16 756.11Q220.16 754.26 221.40 753.14Q222.63 752.01 224.65 752.01L224.65 752.01L228.51 752.01L228.51 751Q228.51 748.58 225.82 748.58L225.82 748.58Q224.62 748.58 223.89 749.02Q223.16 749.46 223.11 750.26L223.11 750.26L220.76 750.26Q220.88 748.65 222.22 747.60Q223.57 746.56 225.82 746.56L225.82 746.56Q228.25 746.56 229.57 747.71Q230.89 748.86 230.89 750.95L230.89 750.95L230.89 760L228.56 760L228.56 757.58L228.51 757.58Q228.34 758.80 227.30 759.52Q226.26 760.24 224.58 760.24ZM225.20 758.25L225.20 758.25Q226.71 758.25 227.61 757.52Q228.51 756.78 228.51 755.51L228.51 755.51L228.51 753.76L224.86 753.76Q223.83 753.76 223.20 754.37Q222.56 754.98 222.56 755.99L222.56 755.99Q222.56 757.02 223.26 757.64Q223.95 758.25 225.20 758.25Z M240.34 760.24L240.34 760.24Q238.34 760.24 237.17 758.91Q235.99 757.58 235.99 755.30L235.99 755.30L235.99 751.50Q235.99 749.22 237.17 747.89Q238.34 746.56 240.34 746.56L240.34 746.56Q241.80 746.56 242.77 747.30Q243.74 748.05 243.96 749.34L243.96 749.34L243.96 749.34L243.91 746.27L243.91 742.48L246.29 742.48L246.29 760L243.94 760L243.94 757.43L243.94 757.43Q243.72 758.75 242.76 759.50Q241.80 760.24 240.34 760.24ZM241.15 758.18L241.15 758.18Q242.42 758.18 243.17 757.38Q243.91 756.59 243.91 755.15L243.91 755.15L243.91 751.65Q243.91 750.21 243.17 749.42Q242.42 748.62 241.15 748.62L241.15 748.62Q239.83 748.62 239.10 749.31Q238.37 749.99 238.37 751.53L238.37 751.53L238.37 755.27Q238.37 756.81 239.10 757.49Q239.83 758.18 241.15 758.18Z  M272.24 760L269.86 760L269.86 750.76L266.07 750.76L266.07 748.60L269.86 748.60L269.86 745.94Q269.86 744.35 270.90 743.42Q271.93 742.48 273.70 742.48L273.70 742.48L277.57 742.48L277.57 744.62L273.70 744.62Q272.24 744.62 272.24 745.96L272.24 745.96L272.24 748.60L277.57 748.60L277.57 750.76L272.24 750.76L272.24 760Z M285.17 760L282.79 760L282.79 746.80L285.14 746.80L285.14 749.34L285.17 749.34Q285.36 748.05 286.28 747.30Q287.21 746.56 288.74 746.56L288.74 746.56Q290.78 746.56 291.91 747.82Q293.04 749.08 293.04 751.36L293.04 751.36L293.04 752.51L290.66 752.51L290.66 751.38Q290.66 748.62 287.95 748.62L287.95 748.62Q286.58 748.62 285.88 749.42Q285.17 750.21 285.17 751.67L285.17 751.67L285.17 760Z M302.80 760.24L302.80 760.24Q300.42 760.24 298.97 758.82Q297.52 757.41 297.52 754.96L297.52 754.96L297.52 751.84Q297.52 749.39 298.97 747.98Q300.42 746.56 302.80 746.56L302.80 746.56Q304.38 746.56 305.57 747.20Q306.76 747.83 307.42 748.97Q308.08 750.11 308.08 751.62L308.08 751.62L308.08 754L299.85 754L299.85 755.15Q299.85 756.59 300.64 757.41Q301.43 758.22 302.80 758.22L302.80 758.22Q303.95 758.22 304.70 757.79Q305.44 757.36 305.58 756.59L305.58 756.59L307.96 756.59Q307.72 758.27 306.30 759.26Q304.89 760.24 302.80 760.24ZM299.85 751.62L299.85 751.62L299.85 752.25L305.75 752.25L305.75 751.62Q305.75 750.11 304.98 749.30Q304.22 748.48 302.80 748.48L302.80 748.48Q301.38 748.48 300.62 749.30Q299.85 750.11 299.85 751.62Z M318.20 760.24L318.20 760.24Q315.82 760.24 314.37 758.82Q312.92 757.41 312.92 754.96L312.92 754.96L312.92 751.84Q312.92 749.39 314.37 747.98Q315.82 746.56 318.20 746.56L318.20 746.56Q319.78 746.56 320.97 747.20Q322.16 747.83 322.82 748.97Q323.48 750.11 323.48 751.62L323.48 751.62L323.48 754L315.25 754L315.25 755.15Q315.25 756.59 316.04 757.41Q316.83 758.22 318.20 758.22L318.20 758.22Q319.35 758.22 320.10 757.79Q320.84 757.36 320.98 756.59L320.98 756.59L323.36 756.59Q323.12 758.27 321.70 759.26Q320.29 760.24 318.20 760.24ZM315.25 751.62L315.25 751.62L315.25 752.25L321.15 752.25L321.15 751.62Q321.15 750.11 320.38 749.30Q319.62 748.48 318.20 748.48L318.20 748.48Q316.78 748.48 316.02 749.30Q315.25 750.11 315.25 751.62Z  M349.00 760.19L349.00 760.19Q346.58 760.19 345.15 758.80Q343.72 757.41 343.72 754.91L343.72 754.91L343.72 751.89Q343.72 749.39 345.15 748Q346.58 746.61 349.00 746.61L349.00 746.61Q351.42 746.61 352.85 748Q354.28 749.39 354.28 751.89L354.28 751.89L354.28 754.91Q354.28 757.41 352.85 758.80Q351.42 760.19 349.00 760.19ZM349.00 758.10L349.00 758.10Q350.34 758.10 351.12 757.35Q351.90 756.59 351.90 755.13L351.90 755.13L351.90 751.67Q351.90 750.21 351.12 749.45Q350.34 748.70 349.00 748.70L349.00 748.70Q347.66 748.70 346.88 749.45Q346.10 750.21 346.10 751.67L346.10 751.67L346.10 755.13Q346.10 756.59 346.88 757.35Q347.66 758.10 349.00 758.10Z M361.69 760L359.31 760L359.31 746.80L361.66 746.80L361.66 749.32L361.69 749.32Q361.86 748.02 362.78 747.29Q363.70 746.56 365.22 746.56L365.22 746.56Q367.18 746.56 368.36 747.81Q369.54 749.06 369.54 751.17L369.54 751.17L369.54 760L367.16 760L367.16 751.55Q367.16 750.11 366.44 749.34Q365.72 748.58 364.47 748.58L364.47 748.58Q363.18 748.58 362.43 749.38Q361.69 750.18 361.69 751.62L361.69 751.62L361.69 760Z  M401.34 760L389.99 760L389.99 757.84L394.62 757.84L394.62 748.96L390.47 748.96L390.47 746.80L397.00 746.80L397.00 757.84L401.34 757.84L401.34 760ZM395.58 744.47L395.58 744.47Q394.77 744.47 394.29 744.05Q393.81 743.63 393.81 742.91L393.81 742.91Q393.81 742.17 394.29 741.74Q394.77 741.30 395.58 741.30L395.58 741.30Q396.40 741.30 396.88 741.74Q397.36 742.17 397.36 742.91L397.36 742.91Q397.36 743.63 396.88 744.05Q396.40 744.47 395.58 744.47Z M410.60 760.19L410.60 760.19Q408.18 760.19 406.75 758.80Q405.32 757.41 405.32 754.91L405.32 754.91L405.32 751.89Q405.32 749.39 406.75 748Q408.18 746.61 410.60 746.61L410.60 746.61Q413.02 746.61 414.45 748Q415.88 749.39 415.88 751.89L415.88 751.89L415.88 754.91Q415.88 757.41 414.45 758.80Q413.02 760.19 410.60 760.19ZM410.60 758.10L410.60 758.10Q411.94 758.10 412.72 757.35Q413.50 756.59 413.50 755.13L413.50 755.13L413.50 751.67Q413.50 750.21 412.72 749.45Q411.94 748.70 410.60 748.70L410.60 748.70Q409.26 748.70 408.48 749.45Q407.70 750.21 407.70 751.67L407.70 751.67L407.70 755.13Q407.70 756.59 408.48 757.35Q409.26 758.10 410.60 758.10Z M426.53 760.19L425.47 760.19Q423.22 760.19 421.97 759.18Q420.72 758.18 420.72 756.35L420.72 756.35L423.07 756.35Q423.07 757.22 423.71 757.71Q424.34 758.20 425.47 758.20L425.47 758.20L426.53 758.20Q427.70 758.20 428.34 757.70Q428.98 757.19 428.98 756.28L428.98 756.28Q428.98 754.67 427.39 754.48L427.39 754.48L423.84 753.98Q422.42 753.76 421.66 752.81Q420.89 751.86 420.89 750.35L420.89 750.35Q420.89 748.58 422.09 747.59Q423.29 746.61 425.45 746.61L425.45 746.61L426.50 746.61Q428.52 746.61 429.77 747.57Q431.02 748.53 431.09 750.11L431.09 750.11L428.69 750.11Q428.64 749.44 428.06 749.00Q427.49 748.55 426.50 748.55L426.50 748.55L425.45 748.55Q424.37 748.55 423.78 749.03Q423.19 749.51 423.19 750.33L423.19 750.33Q423.19 751.65 424.51 751.82L424.51 751.82L427.85 752.30Q431.28 752.75 431.28 756.28L431.28 756.28Q431.28 758.15 430.04 759.17Q428.81 760.19 426.53 760.19L426.53 760.19Z  M457.98 757.74L455.62 757.74L455.62 753.14L451.14 753.14L451.14 751L455.62 751L455.62 746.42L457.98 746.42L457.98 751L462.49 751L462.49 753.14L457.98 753.14L457.98 757.74Z  M486.38 760.24L486.38 760.24Q484.34 760.24 483.15 759.10Q481.96 757.96 481.96 756.11L481.96 756.11Q481.96 754.26 483.20 753.14Q484.43 752.01 486.45 752.01L486.45 752.01L490.31 752.01L490.31 751Q490.31 748.58 487.62 748.58L487.62 748.58Q486.42 748.58 485.69 749.02Q484.96 749.46 484.91 750.26L484.91 750.26L482.56 750.26Q482.68 748.65 484.02 747.60Q485.37 746.56 487.62 746.56L487.62 746.56Q490.05 746.56 491.37 747.71Q492.69 748.86 492.69 750.95L492.69 750.95L492.69 760L490.36 760L490.36 757.58L490.31 757.58Q490.14 758.80 489.10 759.52Q488.06 760.24 486.38 760.24ZM487.00 758.25L487.00 758.25Q488.51 758.25 489.41 757.52Q490.31 756.78 490.31 755.51L490.31 755.51L490.31 753.76L486.66 753.76Q485.63 753.76 485.00 754.37Q484.36 754.98 484.36 755.99L484.36 755.99Q484.36 757.02 485.06 757.64Q485.75 758.25 487.00 758.25Z M500.29 760L497.91 760L497.91 746.80L500.26 746.80L500.26 749.32L500.29 749.32Q500.46 748.02 501.38 747.29Q502.30 746.56 503.82 746.56L503.82 746.56Q505.78 746.56 506.96 747.81Q508.14 749.06 508.14 751.17L508.14 751.17L508.14 760L505.76 760L505.76 751.55Q505.76 750.11 505.04 749.34Q504.32 748.58 503.07 748.58L503.07 748.58Q501.78 748.58 501.03 749.38Q500.29 750.18 500.29 751.62L500.29 751.62L500.29 760Z M517.54 760.24L517.54 760.24Q515.54 760.24 514.37 758.91Q513.19 757.58 513.19 755.30L513.19 755.30L513.19 751.50Q513.19 749.22 514.37 747.89Q515.54 746.56 517.54 746.56L517.54 746.56Q519.00 746.56 519.97 747.30Q520.94 748.05 521.16 749.34L521.16 749.34L521.16 749.34L521.11 746.27L521.11 742.48L523.49 742.48L523.49 760L521.14 760L521.14 757.43L521.14 757.43Q520.92 758.75 519.96 759.50Q519.00 760.24 517.54 760.24ZM518.35 758.18L518.35 758.18Q519.62 758.18 520.37 757.38Q521.11 756.59 521.11 755.15L521.11 755.15L521.11 751.65Q521.11 750.21 520.37 749.42Q519.62 748.62 518.35 748.62L518.35 748.62Q517.03 748.62 516.30 749.31Q515.57 749.99 515.57 751.53L515.57 751.53L515.57 755.27Q515.57 756.81 516.30 757.49Q517.03 758.18 518.35 758.18Z M531.57 760L529.19 760L529.19 746.80L531.54 746.80L531.54 749.34L531.57 749.34Q531.76 748.05 532.68 747.30Q533.61 746.56 535.14 746.56L535.14 746.56Q537.18 746.56 538.31 747.82Q539.44 749.08 539.44 751.36L539.44 751.36L539.44 752.51L537.06 752.51L537.06 751.38Q537.06 748.62 534.35 748.62L534.35 748.62Q532.98 748.62 532.28 749.42Q531.57 750.21 531.57 751.67L531.57 751.67L531.57 760Z M549.20 760.19L549.20 760.19Q546.78 760.19 545.35 758.80Q543.92 757.41 543.92 754.91L543.92 754.91L543.92 751.89Q543.92 749.39 545.35 748Q546.78 746.61 549.20 746.61L549.20 746.61Q551.62 746.61 553.05 748Q554.48 749.39 554.48 751.89L554.48 751.89L554.48 754.91Q554.48 757.41 553.05 758.80Q551.62 760.19 549.20 760.19ZM549.20 758.10L549.20 758.10Q550.54 758.10 551.32 757.35Q552.10 756.59 552.10 755.13L552.10 755.13L552.10 751.67Q552.10 750.21 551.32 749.45Q550.54 748.70 549.20 748.70L549.20 748.70Q547.86 748.70 547.08 749.45Q546.30 750.21 546.30 751.67L546.30 751.67L546.30 755.13Q546.30 756.59 547.08 757.35Q547.86 758.10 549.20 758.10Z M570.74 760L559.39 760L559.39 757.84L564.02 757.84L564.02 748.96L559.87 748.96L559.87 746.80L566.40 746.80L566.40 757.84L570.74 757.84L570.74 760ZM564.98 744.47L564.98 744.47Q564.17 744.47 563.69 744.05Q563.21 743.63 563.21 742.91L563.21 742.91Q563.21 742.17 563.69 741.74Q564.17 741.30 564.98 741.30L564.98 741.30Q565.80 741.30 566.28 741.74Q566.76 742.17 566.76 742.91L566.76 742.91Q566.76 743.63 566.28 744.05Q565.80 744.47 564.98 744.47Z M579.14 760.24L579.14 760.24Q577.14 760.24 575.97 758.91Q574.79 757.58 574.79 755.30L574.79 755.30L574.79 751.50Q574.79 749.22 575.97 747.89Q577.14 746.56 579.14 746.56L579.14 746.56Q580.60 746.56 581.57 747.30Q582.54 748.05 582.76 749.34L582.76 749.34L582.76 749.34L582.71 746.27L582.71 742.48L585.09 742.48L585.09 760L582.74 760L582.74 757.43L582.74 757.43Q582.52 758.75 581.56 759.50Q580.60 760.24 579.14 760.24ZM579.95 758.18L579.95 758.18Q581.22 758.18 581.97 757.38Q582.71 756.59 582.71 755.15L582.71 755.15L582.71 751.65Q582.71 750.21 581.97 749.42Q581.22 748.62 579.95 748.62L579.95 748.62Q578.63 748.62 577.90 749.31Q577.17 749.99 577.17 751.53L577.17 751.53L577.17 755.27Q577.17 756.81 577.90 757.49Q578.63 758.18 579.95 758.18Z" fill="#c4ccd6"></path>
    
    <rect x="1180" y="398" width="340" height="174" rx="6" fill="#f6f4ef" stroke="rgba(0,0,0,0.06)"></rect>
    <rect x="1180" y="398" width="6" height="174" fill="url(#ticketBar)"></rect>
    <rect x="1208" y="430" width="18" height="1" fill="#6B7785"></rect>
    <path d="M1237.30 434.11L1237.30 434.11Q1236.52 434.11 1235.95 433.81Q1235.38 433.52 1235.06 432.98Q1234.75 432.44 1234.75 431.71L1234.75 431.71L1234.75 428.26Q1234.75 427.53 1235.06 426.99Q1235.38 426.45 1235.95 426.16Q1236.52 425.86 1237.30 425.86L1237.30 425.86Q1238.08 425.86 1238.65 426.16Q1239.22 426.45 1239.54 426.99Q1239.85 427.53 1239.85 428.26L1239.85 428.26L1239.85 431.71Q1239.85 432.44 1239.54 432.98Q1239.22 433.52 1238.65 433.81Q1238.08 434.11 1237.30 434.11ZM1237.30 432.92L1237.30 432.92Q1237.87 432.92 1238.21 432.59Q1238.55 432.26 1238.55 431.71L1238.55 431.71L1238.55 428.26Q1238.55 427.71 1238.22 427.38Q1237.88 427.05 1237.30 427.05L1237.30 427.05Q1236.72 427.05 1236.38 427.38Q1236.05 427.71 1236.05 428.26L1236.05 428.26L1236.05 431.71Q1236.05 432.26 1236.39 432.59Q1236.73 432.92 1237.30 432.92ZM1237.30 430.64L1237.30 430.64Q1236.97 430.64 1236.77 430.46Q1236.57 430.28 1236.57 429.95L1236.57 429.95Q1236.57 429.62 1236.77 429.45Q1236.97 429.28 1237.30 429.28L1237.30 429.28Q1237.63 429.28 1237.83 429.45Q1238.03 429.62 1238.03 429.95L1238.03 429.95Q1238.03 430.28 1237.83 430.46Q1237.63 430.64 1237.30 430.64Z M1248.67 434L1243.52 434L1243.52 432.76L1245.61 432.76L1245.61 427.30L1243.51 428.84L1243.51 427.30L1245.36 425.97L1246.99 425.97L1246.99 432.76L1248.67 432.76L1248.67 434Z  M1266.40 431.01L1259.80 431.01L1259.80 429.73L1266.40 429.73L1266.40 431.01Z  M1278.79 434L1277.38 434L1279.41 425.97L1281.18 425.97L1283.21 434L1281.81 434L1281.37 432.05L1279.23 432.05L1278.79 434ZM1279.97 428.76L1279.49 430.93L1281.11 430.93L1280.63 428.77Q1280.51 428.24 1280.42 427.80Q1280.33 427.37 1280.30 427.17L1280.30 427.17Q1280.27 427.37 1280.18 427.80Q1280.09 428.24 1279.97 428.76L1279.97 428.76Z M1287.82 434L1286.45 434L1286.45 425.97L1289.12 425.97Q1289.92 425.97 1290.52 426.28Q1291.12 426.59 1291.45 427.14Q1291.78 427.70 1291.78 428.44L1291.78 428.44Q1291.78 429.19 1291.45 429.75Q1291.12 430.30 1290.52 430.61Q1289.92 430.92 1289.12 430.92L1289.12 430.92L1287.82 430.92L1287.82 434ZM1287.82 427.18L1287.82 429.71L1289.12 429.71Q1289.70 429.71 1290.04 429.36Q1290.38 429.01 1290.38 428.44L1290.38 428.44Q1290.38 427.88 1290.04 427.53Q1289.70 427.18 1289.12 427.18L1289.12 427.18L1287.82 427.18Z M1296.42 434L1295.05 434L1295.05 425.97L1297.72 425.97Q1298.52 425.97 1299.12 426.28Q1299.72 426.59 1300.05 427.14Q1300.38 427.70 1300.38 428.44L1300.38 428.44Q1300.38 429.19 1300.05 429.75Q1299.72 430.30 1299.12 430.61Q1298.52 430.92 1297.72 430.92L1297.72 430.92L1296.42 430.92L1296.42 434ZM1296.42 427.18L1296.42 429.71L1297.72 429.71Q1298.30 429.71 1298.64 429.36Q1298.98 429.01 1298.98 428.44L1298.98 428.44Q1298.98 427.88 1298.64 427.53Q1298.30 427.18 1297.72 427.18L1297.72 427.18L1296.42 427.18Z M1308.92 434L1304.13 434L1304.13 425.97L1305.51 425.97L1305.51 432.76L1308.92 432.76L1308.92 434Z M1317.19 434L1312.37 434L1312.37 425.97L1317.19 425.97L1317.19 427.18L1313.72 427.18L1313.72 429.27L1316.80 429.27L1316.80 430.44L1313.72 430.44L1313.72 432.79L1317.19 432.79L1317.19 434Z" fill="#6B7785"></path>
    <path d="M1213.25 495L1205.78 495L1219.16 474L1226.12 474L1231.10 495L1224.05 495L1223.36 491.34L1215.35 491.34L1213.25 495ZM1221.35 480.87L1218.26 486.24L1222.37 486.24L1221.35 480.87Z M1243.35 495.30L1243.35 495.30Q1241.85 495.30 1240.63 494.83Q1239.42 494.37 1238.67 493.26L1238.67 493.26L1237.14 500.82L1230.36 500.82L1234.80 478.59L1241.19 478.59L1240.89 480.09Q1242.72 478.29 1245.33 478.29L1245.33 478.29Q1246.98 478.29 1248.53 479.18Q1250.07 480.06 1251.08 481.74Q1252.08 483.42 1252.08 485.88L1252.08 485.88Q1252.08 487.89 1251.39 489.62Q1250.70 491.34 1249.49 492.62Q1248.27 493.89 1246.70 494.60Q1245.12 495.30 1243.35 495.30ZM1242.24 489.96L1242.24 489.96Q1243.56 489.96 1244.38 488.94Q1245.21 487.92 1245.21 486.21L1245.21 486.21Q1245.21 485.07 1244.57 484.35Q1243.92 483.63 1242.78 483.63L1242.78 483.63Q1241.46 483.63 1240.63 484.65Q1239.81 485.67 1239.81 487.38L1239.81 487.38Q1239.81 488.52 1240.46 489.24Q1241.10 489.96 1242.24 489.96Z M1263.85 495.30L1263.85 495.30Q1262.35 495.30 1261.13 494.83Q1259.92 494.37 1259.17 493.26L1259.17 493.26L1257.64 500.82L1250.86 500.82L1255.30 478.59L1261.69 478.59L1261.39 480.09Q1263.22 478.29 1265.83 478.29L1265.83 478.29Q1267.48 478.29 1269.03 479.18Q1270.57 480.06 1271.58 481.74Q1272.58 483.42 1272.58 485.88L1272.58 485.88Q1272.58 487.89 1271.89 489.62Q1271.20 491.34 1269.99 492.62Q1268.77 493.89 1267.20 494.60Q1265.62 495.30 1263.85 495.30ZM1262.74 489.96L1262.74 489.96Q1264.06 489.96 1264.88 488.94Q1265.71 487.92 1265.71 486.21L1265.71 486.21Q1265.71 485.07 1265.07 484.35Q1264.42 483.63 1263.28 483.63L1263.28 483.63Q1261.96 483.63 1261.13 484.65Q1260.31 485.67 1260.31 487.38L1260.31 487.38Q1260.31 488.52 1260.96 489.24Q1261.60 489.96 1262.74 489.96Z  M1289.58 495.48L1289.58 495.48Q1286.76 495.48 1284.38 494.88Q1281.99 494.28 1280.49 493.35L1280.49 493.35L1283.22 488.13Q1284.99 489.15 1286.78 489.62Q1288.56 490.08 1290.30 490.08L1290.30 490.08Q1291.68 490.08 1292.38 489.75Q1293.09 489.42 1293.09 488.85L1293.09 488.85Q1293.09 488.28 1292.37 487.96Q1291.65 487.65 1290.51 487.38Q1289.37 487.11 1288.10 486.74Q1286.82 486.36 1285.68 485.75Q1284.54 485.13 1283.82 484.08Q1283.10 483.03 1283.10 481.41L1283.10 481.41Q1283.10 479.01 1284.38 477.24Q1285.65 475.47 1288.04 474.50Q1290.42 473.52 1293.72 473.52L1293.72 473.52Q1296.06 473.52 1298.09 473.99Q1300.11 474.45 1301.58 475.32L1301.58 475.32L1299.03 480.48Q1297.77 479.70 1296.29 479.31Q1294.80 478.92 1293.27 478.92L1293.27 478.92Q1291.71 478.92 1290.95 479.36Q1290.18 479.79 1290.18 480.33L1290.18 480.33Q1290.18 480.90 1290.90 481.23Q1291.62 481.56 1292.76 481.81Q1293.90 482.07 1295.19 482.43Q1296.48 482.79 1297.62 483.39Q1298.76 483.99 1299.48 485.01Q1300.20 486.03 1300.20 487.65L1300.20 487.65Q1300.20 489.99 1298.91 491.75Q1297.62 493.50 1295.24 494.49Q1292.85 495.48 1289.58 495.48Z M1308.10 495.30L1308.10 495.30Q1306 495.30 1304.53 494.52Q1303.06 493.74 1302.46 492.23Q1301.86 490.71 1302.28 488.58L1302.28 488.58L1303.30 483.54L1301.02 483.54L1302.01 478.59L1304.26 478.59L1305.01 474.90L1311.79 474.90L1311.04 478.59L1314.40 478.59L1313.41 483.54L1310.05 483.54L1309.06 488.55Q1308.91 489.39 1309.24 489.78Q1309.57 490.17 1310.26 490.17L1310.26 490.17Q1310.68 490.17 1311.03 490.06Q1311.37 489.96 1311.76 489.78L1311.76 489.78L1312.54 494.34Q1311.61 494.85 1310.46 495.07Q1309.30 495.30 1308.10 495.30Z M1323.17 495.30L1323.17 495.30Q1320.47 495.30 1318.46 494.36Q1316.45 493.41 1315.36 491.70Q1314.26 489.99 1314.26 487.71L1314.26 487.71Q1314.26 485.01 1315.58 482.88Q1316.90 480.75 1319.21 479.52Q1321.52 478.29 1324.49 478.29L1324.49 478.29Q1327.22 478.29 1329.22 479.24Q1331.21 480.18 1332.31 481.88Q1333.40 483.57 1333.40 485.88L1333.40 485.88Q1333.40 488.58 1332.08 490.71Q1330.76 492.84 1328.47 494.07Q1326.17 495.30 1323.17 495.30ZM1323.56 490.02L1323.56 490.02Q1324.88 490.02 1325.71 488.99Q1326.53 487.95 1326.53 486.21L1326.53 486.21Q1326.53 485.16 1325.90 484.37Q1325.27 483.57 1324.10 483.57L1324.10 483.57Q1322.78 483.57 1321.96 484.61Q1321.13 485.64 1321.13 487.38L1321.13 487.38Q1321.13 488.55 1321.78 489.29Q1322.42 490.02 1323.56 490.02Z M1340.10 495L1333.32 495L1336.59 478.59L1342.98 478.59L1342.65 480.27Q1343.70 479.22 1345.18 478.75Q1346.67 478.29 1348.41 478.29L1348.41 478.29L1347.21 484.29Q1346.46 484.17 1345.74 484.17L1345.74 484.17Q1344.06 484.17 1343.03 484.92Q1341.99 485.67 1341.63 487.41L1341.63 487.41L1340.10 495Z M1356.28 495.30L1356.28 495.30Q1353.58 495.30 1351.56 494.37Q1349.53 493.44 1348.39 491.73Q1347.25 490.02 1347.25 487.71L1347.25 487.71Q1347.25 485.01 1348.51 482.88Q1349.77 480.75 1352.07 479.52Q1354.36 478.29 1357.42 478.29L1357.42 478.29Q1360.06 478.29 1361.92 479.22Q1363.78 480.15 1364.77 481.77Q1365.76 483.39 1365.76 485.52L1365.76 485.52Q1365.76 486.27 1365.66 486.99Q1365.55 487.71 1365.40 488.37L1365.40 488.37L1353.91 488.37Q1354.12 489.39 1354.92 489.84Q1355.71 490.29 1357.06 490.29L1357.06 490.29Q1357.99 490.29 1358.92 490.00Q1359.85 489.72 1360.63 489.15L1360.63 489.15L1363.45 493.26Q1361.77 494.40 1359.96 494.85Q1358.14 495.30 1356.28 495.30ZM1354.18 485.10L1354.18 485.10L1359.55 485.10Q1359.55 484.08 1358.88 483.50Q1358.20 482.91 1357.12 482.91L1357.12 482.91Q1355.95 482.91 1355.25 483.52Q1354.54 484.14 1354.18 485.10Z" fill="#070E14"></path>
    <path d="M1211.04 521.10L1211.04 521.10Q1209.96 521.10 1209.32 520.53Q1208.68 519.97 1208.68 518.98L1208.68 518.98L1209.67 518.98Q1209.67 519.56 1210.04 519.89Q1210.41 520.22 1211.04 520.22L1211.04 520.22Q1211.64 520.22 1211.99 519.88Q1212.35 519.55 1212.35 518.99L1212.35 518.99Q1212.35 518.57 1212.12 518.25Q1211.89 517.94 1211.47 517.83L1211.47 517.83L1210.39 517.54Q1209.68 517.34 1209.27 516.82Q1208.85 516.29 1208.85 515.57L1208.85 515.57Q1208.85 514.98 1209.12 514.53Q1209.38 514.09 1209.86 513.85Q1210.34 513.60 1210.97 513.60L1210.97 513.60Q1211.61 513.60 1212.10 513.85Q1212.58 514.09 1212.85 514.53Q1213.12 514.97 1213.12 515.55L1213.12 515.55L1212.14 515.55Q1212.14 515.07 1211.82 514.77Q1211.49 514.47 1210.97 514.47L1210.97 514.47Q1210.45 514.47 1210.13 514.77Q1209.82 515.07 1209.82 515.55L1209.82 515.55Q1209.82 515.94 1210.03 516.21Q1210.24 516.47 1210.62 516.58L1210.62 516.58L1211.73 516.88Q1212.48 517.08 1212.90 517.64Q1213.32 518.21 1213.32 518.99L1213.32 518.99Q1213.32 519.63 1213.04 520.11Q1212.76 520.58 1212.24 520.84Q1211.73 521.10 1211.04 521.10Z M1218.58 521.10L1218.58 521.10Q1217.57 521.10 1216.97 520.53Q1216.38 519.97 1216.38 518.98L1216.38 518.98L1216.38 515.71Q1216.38 514.73 1216.97 514.16Q1217.57 513.60 1218.58 513.60L1218.58 513.60Q1219.58 513.60 1220.17 514.17Q1220.77 514.74 1220.77 515.71L1220.77 515.71L1219.78 515.71Q1219.78 515.12 1219.46 514.80Q1219.14 514.48 1218.58 514.48L1218.58 514.48Q1218.01 514.48 1217.69 514.80Q1217.37 515.12 1217.37 515.71L1217.37 515.71L1217.37 518.98Q1217.37 519.58 1217.69 519.90Q1218.01 520.22 1218.58 520.22L1218.58 520.22Q1219.14 520.22 1219.46 519.90Q1219.78 519.58 1219.78 518.98L1219.78 518.98L1220.77 518.98Q1220.77 519.96 1220.17 520.53Q1219.58 521.10 1218.58 521.10Z M1224.47 521L1223.46 521L1225.35 513.70L1226.66 513.70L1228.54 521L1227.53 521L1227.07 519.10L1224.93 519.10L1224.47 521ZM1225.66 516.09L1225.12 518.28L1226.87 518.28L1226.34 516.10Q1226.20 515.50 1226.11 515.08Q1226.02 514.66 1226 514.51L1226 514.51Q1225.98 514.66 1225.89 515.08Q1225.80 515.50 1225.66 516.09L1225.66 516.09Z M1232.29 521L1231.36 521L1231.36 513.70L1232.64 513.70L1234.82 519.86Q1234.79 519.60 1234.77 519.22Q1234.74 518.83 1234.72 518.41Q1234.71 518 1234.71 517.63L1234.71 517.63L1234.71 513.70L1235.65 513.70L1235.65 521L1234.36 521L1232.19 514.84Q1232.22 515.10 1232.24 515.48Q1232.26 515.85 1232.28 516.26Q1232.29 516.67 1232.29 517.03L1232.29 517.03L1232.29 521Z  M1249 521L1248.01 521L1248.01 514.60L1246.03 514.60L1246.03 513.70L1250.97 513.70L1250.97 514.60L1249 514.60L1249 521Z M1256 521.10L1256 521.10Q1255 521.10 1254.42 520.52Q1253.84 519.94 1253.84 518.88L1253.84 518.88L1253.84 515.81Q1253.84 514.76 1254.42 514.18Q1255 513.60 1256 513.60L1256 513.60Q1257 513.60 1257.58 514.17Q1258.16 514.75 1258.16 515.81L1258.16 515.81L1258.16 518.88Q1258.16 519.94 1257.58 520.52Q1257 521.10 1256 521.10ZM1256 520.22L1256 520.22Q1256.56 520.22 1256.87 519.90Q1257.17 519.58 1257.17 518.98L1257.17 518.98L1257.17 515.71Q1257.17 515.12 1256.87 514.80Q1256.57 514.48 1256 514.48L1256 514.48Q1255.43 514.48 1255.13 514.80Q1254.83 515.12 1254.83 515.71L1254.83 515.71L1254.83 518.98Q1254.83 519.58 1255.13 519.90Q1255.44 520.22 1256 520.22Z  M1272.99 521L1269.01 521L1269.01 520.10L1270.50 520.10L1270.50 514.60L1269.01 514.60L1269.01 513.70L1272.99 513.70L1272.99 514.60L1271.50 514.60L1271.50 520.10L1272.99 520.10L1272.99 521Z M1277.29 521L1276.36 521L1276.36 513.70L1277.64 513.70L1279.82 519.86Q1279.79 519.60 1279.77 519.22Q1279.74 518.83 1279.72 518.41Q1279.71 518 1279.71 517.63L1279.71 517.63L1279.71 513.70L1280.65 513.70L1280.65 521L1279.36 521L1277.19 514.84Q1277.22 515.10 1277.24 515.48Q1277.26 515.85 1277.28 516.26Q1277.29 516.67 1277.29 517.03L1277.29 517.03L1277.29 521Z M1286.04 521.10L1286.04 521.10Q1284.96 521.10 1284.32 520.53Q1283.68 519.97 1283.68 518.98L1283.68 518.98L1284.67 518.98Q1284.67 519.56 1285.04 519.89Q1285.41 520.22 1286.04 520.22L1286.04 520.22Q1286.64 520.22 1286.99 519.88Q1287.35 519.55 1287.35 518.99L1287.35 518.99Q1287.35 518.57 1287.12 518.25Q1286.89 517.94 1286.47 517.83L1286.47 517.83L1285.39 517.54Q1284.68 517.34 1284.27 516.82Q1283.85 516.29 1283.85 515.57L1283.85 515.57Q1283.85 514.98 1284.12 514.53Q1284.38 514.09 1284.86 513.85Q1285.34 513.60 1285.97 513.60L1285.97 513.60Q1286.61 513.60 1287.10 513.85Q1287.58 514.09 1287.85 514.53Q1288.12 514.97 1288.12 515.55L1288.12 515.55L1287.14 515.55Q1287.14 515.07 1286.82 514.77Q1286.49 514.47 1285.97 514.47L1285.97 514.47Q1285.45 514.47 1285.13 514.77Q1284.82 515.07 1284.82 515.55L1284.82 515.55Q1284.82 515.94 1285.03 516.21Q1285.24 516.47 1285.62 516.58L1285.62 516.58L1286.73 516.88Q1287.48 517.08 1287.90 517.64Q1288.32 518.21 1288.32 518.99L1288.32 518.99Q1288.32 519.63 1288.04 520.11Q1287.76 520.58 1287.24 520.84Q1286.73 521.10 1286.04 521.10Z M1294 521L1293.01 521L1293.01 514.60L1291.03 514.60L1291.03 513.70L1295.97 513.70L1295.97 514.60L1294 514.60L1294 521Z M1299.47 521L1298.46 521L1300.35 513.70L1301.66 513.70L1303.54 521L1302.53 521L1302.07 519.10L1299.93 519.10L1299.47 521ZM1300.66 516.09L1300.12 518.28L1301.87 518.28L1301.34 516.10Q1301.20 515.50 1301.11 515.08Q1301.02 514.66 1301 514.51L1301 514.51Q1300.98 514.66 1300.89 515.08Q1300.80 515.50 1300.66 516.09L1300.66 516.09Z M1311.02 521L1306.78 521L1306.78 513.70L1307.77 513.70L1307.77 520.10L1311.02 520.10L1311.02 521Z M1318.52 521L1314.28 521L1314.28 513.70L1315.27 513.70L1315.27 520.10L1318.52 520.10L1318.52 521Z" fill="#6B7785"></path>
    <image x="1368" y="420" width="130" height="130"></image>
  
    <rect x="1180" y="586" width="340" height="174" rx="6" fill="#f6f4ef" stroke="rgba(0,0,0,0.06)"></rect>
    <rect x="1180" y="586" width="6" height="174" fill="url(#ticketBar)"></rect>
    <rect x="1208" y="618" width="18" height="1" fill="#6B7785"></rect>
    <path d="M1237.30 622.11L1237.30 622.11Q1236.52 622.11 1235.95 621.81Q1235.38 621.52 1235.06 620.98Q1234.75 620.44 1234.75 619.71L1234.75 619.71L1234.75 616.26Q1234.75 615.53 1235.06 614.99Q1235.38 614.45 1235.95 614.16Q1236.52 613.86 1237.30 613.86L1237.30 613.86Q1238.08 613.86 1238.65 614.16Q1239.22 614.45 1239.54 614.99Q1239.85 615.53 1239.85 616.26L1239.85 616.26L1239.85 619.71Q1239.85 620.44 1239.54 620.98Q1239.22 621.52 1238.65 621.81Q1238.08 622.11 1237.30 622.11ZM1237.30 620.92L1237.30 620.92Q1237.87 620.92 1238.21 620.59Q1238.55 620.26 1238.55 619.71L1238.55 619.71L1238.55 616.26Q1238.55 615.71 1238.22 615.38Q1237.88 615.05 1237.30 615.05L1237.30 615.05Q1236.72 615.05 1236.38 615.38Q1236.05 615.71 1236.05 616.26L1236.05 616.26L1236.05 619.71Q1236.05 620.26 1236.39 620.59Q1236.73 620.92 1237.30 620.92ZM1237.30 618.64L1237.30 618.64Q1236.97 618.64 1236.77 618.46Q1236.57 618.28 1236.57 617.95L1236.57 617.95Q1236.57 617.62 1236.77 617.45Q1236.97 617.28 1237.30 617.28L1237.30 617.28Q1237.63 617.28 1237.83 617.45Q1238.03 617.62 1238.03 617.95L1238.03 617.95Q1238.03 618.28 1237.83 618.46Q1237.63 618.64 1237.30 618.64Z M1248.52 622L1243.41 622L1243.41 620.76L1246.31 617.80Q1247.01 617.06 1247.01 616.30L1247.01 616.30Q1247.01 615.76 1246.70 615.43Q1246.38 615.09 1245.86 615.09L1245.86 615.09Q1245.32 615.09 1244.99 615.44Q1244.67 615.78 1244.67 616.36L1244.67 616.36L1243.29 616.36Q1243.29 615.61 1243.62 615.05Q1243.95 614.49 1244.54 614.17Q1245.12 613.86 1245.89 613.86L1245.89 613.86Q1246.65 613.86 1247.22 614.16Q1247.79 614.45 1248.11 614.99Q1248.42 615.52 1248.42 616.24L1248.42 616.24Q1248.42 616.85 1248.13 617.47Q1247.84 618.08 1247.16 618.74L1247.16 618.74L1245.14 620.76L1248.52 620.76L1248.52 622Z  M1266.40 619.01L1259.80 619.01L1259.80 617.73L1266.40 617.73L1266.40 619.01Z  M1278.79 622L1277.38 622L1279.41 613.97L1281.18 613.97L1283.21 622L1281.81 622L1281.37 620.05L1279.23 620.05L1278.79 622ZM1279.97 616.76L1279.49 618.93L1281.11 618.93L1280.63 616.77Q1280.51 616.24 1280.42 615.80Q1280.33 615.37 1280.30 615.17L1280.30 615.17Q1280.27 615.37 1280.18 615.80Q1280.09 616.24 1279.97 616.76L1279.97 616.76Z M1287.65 622L1286.39 622L1286.39 613.97L1288.07 613.97L1290.31 620.46Q1290.27 620.11 1290.24 619.63Q1290.21 619.15 1290.18 618.66Q1290.15 618.16 1290.15 617.78L1290.15 617.78L1290.15 613.97L1291.41 613.97L1291.41 622L1289.72 622L1287.51 615.51Q1287.54 615.83 1287.57 616.28Q1287.60 616.73 1287.62 617.20Q1287.65 617.68 1287.65 618.07L1287.65 618.07L1287.65 622Z M1297.41 622L1295.02 622L1295.02 613.97L1297.41 613.97Q1298.23 613.97 1298.83 614.28Q1299.42 614.60 1299.75 615.16Q1300.08 615.72 1300.08 616.48L1300.08 616.48L1300.08 619.48Q1300.08 620.24 1299.75 620.81Q1299.42 621.37 1298.83 621.69Q1298.23 622 1297.41 622L1297.41 622ZM1296.40 615.20L1296.40 620.77L1297.41 620.77Q1298.01 620.77 1298.36 620.42Q1298.71 620.08 1298.71 619.48L1298.71 619.48L1298.71 616.48Q1298.71 615.89 1298.36 615.55Q1298.01 615.20 1297.41 615.20L1297.41 615.20L1296.40 615.20Z M1305.01 622L1303.65 622L1303.65 613.97L1306.18 613.97Q1306.98 613.97 1307.57 614.27Q1308.16 614.56 1308.49 615.10Q1308.82 615.63 1308.82 616.36L1308.82 616.36Q1308.82 617.16 1308.42 617.76Q1308.02 618.36 1307.35 618.61L1307.35 618.61L1308.93 622L1307.42 622L1306.01 618.81L1305.01 618.81L1305.01 622ZM1305.01 615.18L1305.01 617.60L1306.18 617.60Q1306.76 617.60 1307.09 617.28Q1307.42 616.96 1307.42 616.40L1307.42 616.40Q1307.42 615.84 1307.08 615.51Q1306.75 615.18 1306.18 615.18L1306.18 615.18L1305.01 615.18Z M1314.70 622.11L1314.70 622.11Q1313.54 622.11 1312.87 621.45Q1312.19 620.79 1312.19 619.62L1312.19 619.62L1312.19 616.35Q1312.19 615.18 1312.87 614.52Q1313.54 613.86 1314.70 613.86L1314.70 613.86Q1315.85 613.86 1316.53 614.52Q1317.21 615.18 1317.21 616.34L1317.21 616.34L1317.21 619.62Q1317.21 620.79 1316.53 621.45Q1315.85 622.11 1314.70 622.11ZM1314.70 620.90L1314.70 620.90Q1315.26 620.90 1315.55 620.60Q1315.83 620.29 1315.83 619.73L1315.83 619.73L1315.83 616.24Q1315.83 615.67 1315.55 615.37Q1315.26 615.07 1314.70 615.07L1314.70 615.07Q1314.14 615.07 1313.85 615.37Q1313.57 615.67 1313.57 616.24L1313.57 616.24L1313.57 619.73Q1313.57 620.29 1313.85 620.60Q1314.14 620.90 1314.70 620.90Z M1325.61 622L1320.99 622L1320.99 620.76L1322.61 620.76L1322.61 615.21L1320.99 615.21L1320.99 613.97L1325.61 613.97L1325.61 615.21L1323.99 615.21L1323.99 620.76L1325.61 620.76L1325.61 622Z M1331.81 622L1329.42 622L1329.42 613.97L1331.81 613.97Q1332.63 613.97 1333.23 614.28Q1333.82 614.60 1334.15 615.16Q1334.48 615.72 1334.48 616.48L1334.48 616.48L1334.48 619.48Q1334.48 620.24 1334.15 620.81Q1333.82 621.37 1333.23 621.69Q1332.63 622 1331.81 622L1331.81 622ZM1330.80 615.20L1330.80 620.77L1331.81 620.77Q1332.41 620.77 1332.76 620.42Q1333.11 620.08 1333.11 619.48L1333.11 619.48L1333.11 616.48Q1333.11 615.89 1332.76 615.55Q1332.41 615.20 1331.81 615.20L1331.81 615.20L1330.80 615.20Z" fill="#6B7785"></path>
    <path d="M1220 683.48L1220 683.48Q1216.76 683.48 1214.33 682.29Q1211.90 681.11 1210.57 679.00Q1209.23 676.88 1209.23 674.09L1209.23 674.09Q1209.23 671.33 1210.20 669.02Q1211.18 666.71 1212.98 665.03Q1214.78 663.35 1217.26 662.43Q1219.73 661.52 1222.73 661.52L1222.73 661.52Q1226.03 661.52 1228.41 662.55Q1230.80 663.59 1232.27 665.63L1232.27 665.63L1227.20 669.56Q1226.18 668.24 1225.04 667.75Q1223.90 667.25 1222.40 667.25L1222.40 667.25Q1220.57 667.25 1219.20 668.06Q1217.84 668.87 1217.11 670.31Q1216.37 671.75 1216.37 673.64L1216.37 673.64Q1216.37 675.47 1217.59 676.61Q1218.80 677.75 1220.99 677.75L1220.99 677.75Q1222.07 677.75 1223.06 677.45L1223.06 677.45L1224.17 671.93L1230.32 671.93L1228.52 680.99Q1226.87 682.19 1224.68 682.84Q1222.49 683.48 1220 683.48Z M1240.05 683.30L1240.05 683.30Q1237.35 683.30 1235.34 682.36Q1233.33 681.41 1232.23 679.70Q1231.14 677.99 1231.14 675.71L1231.14 675.71Q1231.14 673.01 1232.46 670.88Q1233.78 668.75 1236.09 667.52Q1238.40 666.29 1241.37 666.29L1241.37 666.29Q1244.10 666.29 1246.10 667.24Q1248.09 668.18 1249.18 669.88Q1250.28 671.57 1250.28 673.88L1250.28 673.88Q1250.28 676.58 1248.96 678.71Q1247.64 680.84 1245.35 682.07Q1243.05 683.30 1240.05 683.30ZM1240.44 678.02L1240.44 678.02Q1241.76 678.02 1242.59 676.99Q1243.41 675.95 1243.41 674.21L1243.41 674.21Q1243.41 673.16 1242.78 672.37Q1242.15 671.57 1240.98 671.57L1240.98 671.57Q1239.66 671.57 1238.84 672.61Q1238.01 673.64 1238.01 675.38L1238.01 675.38Q1238.01 676.55 1238.65 677.28Q1239.30 678.02 1240.44 678.02Z M1259.83 683.30L1259.83 683.30Q1257.13 683.30 1255.12 682.36Q1253.11 681.41 1252.01 679.70Q1250.92 677.99 1250.92 675.71L1250.92 675.71Q1250.92 673.01 1252.24 670.88Q1253.56 668.75 1255.87 667.52Q1258.18 666.29 1261.15 666.29L1261.15 666.29Q1263.88 666.29 1265.88 667.24Q1267.87 668.18 1268.96 669.88Q1270.06 671.57 1270.06 673.88L1270.06 673.88Q1270.06 676.58 1268.74 678.71Q1267.42 680.84 1265.13 682.07Q1262.83 683.30 1259.83 683.30ZM1260.22 678.02L1260.22 678.02Q1261.54 678.02 1262.37 676.99Q1263.19 675.95 1263.19 674.21L1263.19 674.21Q1263.19 673.16 1262.56 672.37Q1261.93 671.57 1260.76 671.57L1260.76 671.57Q1259.44 671.57 1258.62 672.61Q1257.79 673.64 1257.79 675.38L1257.79 675.38Q1257.79 676.55 1258.43 677.28Q1259.08 678.02 1260.22 678.02Z M1277.78 689.12L1277.78 689.12Q1272.74 689.12 1269.65 687.08L1269.65 687.08L1272.53 682.46Q1273.52 683.21 1274.97 683.64Q1276.43 684.08 1277.90 684.08L1277.90 684.08Q1279.88 684.08 1280.78 683.25Q1281.68 682.43 1281.98 680.96L1281.98 680.96L1282.07 680.54Q1280.39 682.10 1277.93 682.10L1277.93 682.10Q1276.13 682.10 1274.51 681.26Q1272.89 680.42 1271.87 678.83Q1270.85 677.24 1270.85 675.02L1270.85 675.02Q1270.85 673.19 1271.52 671.62Q1272.20 670.04 1273.41 668.84Q1274.63 667.64 1276.23 666.97Q1277.84 666.29 1279.67 666.29L1279.67 666.29Q1281.38 666.29 1282.71 666.92Q1284.05 667.55 1284.68 669.08L1284.68 669.08L1284.68 669.08L1285.16 666.59L1291.61 666.59L1289.00 679.70Q1288.01 684.71 1285.11 686.91Q1282.22 689.12 1277.78 689.12ZM1280.09 676.79L1280.09 676.79Q1281.41 676.79 1282.20 675.95Q1283.00 675.11 1283.00 673.73L1283.00 673.73Q1283.00 672.80 1282.38 672.22Q1281.77 671.63 1280.63 671.63L1280.63 671.63Q1279.34 671.63 1278.51 672.46Q1277.69 673.28 1277.69 674.69L1277.69 674.69Q1277.69 675.62 1278.33 676.21Q1278.98 676.79 1280.09 676.79Z M1297.59 683L1290.81 683L1295.25 660.74L1302.03 660.74L1297.59 683Z M1309.87 683.30L1309.87 683.30Q1307.17 683.30 1305.14 682.37Q1303.12 681.44 1301.98 679.73Q1300.84 678.02 1300.84 675.71L1300.84 675.71Q1300.84 673.01 1302.10 670.88Q1303.36 668.75 1305.65 667.52Q1307.95 666.29 1311.01 666.29L1311.01 666.29Q1313.65 666.29 1315.51 667.22Q1317.37 668.15 1318.36 669.77Q1319.35 671.39 1319.35 673.52L1319.35 673.52Q1319.35 674.27 1319.24 674.99Q1319.14 675.71 1318.99 676.37L1318.99 676.37L1307.50 676.37Q1307.71 677.39 1308.50 677.84Q1309.30 678.29 1310.65 678.29L1310.65 678.29Q1311.58 678.29 1312.51 678.00Q1313.44 677.72 1314.22 677.15L1314.22 677.15L1317.04 681.26Q1315.36 682.40 1313.54 682.85Q1311.73 683.30 1309.87 683.30ZM1307.77 673.10L1307.77 673.10L1313.14 673.10Q1313.14 672.08 1312.46 671.50Q1311.79 670.91 1310.71 670.91L1310.71 670.91Q1309.54 670.91 1308.83 671.52Q1308.13 672.14 1307.77 673.10Z  M1334.82 683L1327.74 683L1331.94 662L1341.27 662Q1345.50 662 1347.79 663.83Q1350.09 665.66 1350.09 668.96L1350.09 668.96Q1350.09 671.60 1348.78 673.61Q1347.48 675.62 1345.09 676.73Q1342.71 677.84 1339.47 677.84L1339.47 677.84L1335.84 677.84L1334.82 683ZM1337.91 667.46L1336.92 672.38L1339.83 672.38Q1341.30 672.38 1342.11 671.64Q1342.92 670.91 1342.92 669.59L1342.92 669.59Q1342.92 668.45 1342.21 667.96Q1341.51 667.46 1340.28 667.46L1340.28 667.46L1337.91 667.46Z M1356.10 683L1349.32 683L1353.76 660.74L1360.54 660.74L1356.10 683Z M1366.10 683.30L1366.10 683.30Q1364.48 683.30 1362.92 682.41Q1361.36 681.53 1360.35 679.84Q1359.35 678.14 1359.35 675.71L1359.35 675.71Q1359.35 673.67 1360.04 671.96Q1360.73 670.25 1361.94 668.98Q1363.16 667.70 1364.73 667.00Q1366.31 666.29 1368.08 666.29L1368.08 666.29Q1369.58 666.29 1370.79 666.75Q1372.01 667.22 1372.76 668.33L1372.76 668.33L1373.12 666.59L1379.90 666.59L1376.63 683L1370.24 683L1370.54 681.50Q1368.71 683.30 1366.10 683.30ZM1368.65 677.96L1368.65 677.96Q1369.97 677.96 1370.79 676.94Q1371.62 675.92 1371.62 674.21L1371.62 674.21Q1371.62 673.07 1370.97 672.35Q1370.33 671.63 1369.19 671.63L1369.19 671.63Q1367.87 671.63 1367.04 672.65Q1366.22 673.67 1366.22 675.38L1366.22 675.38Q1366.22 676.52 1366.86 677.24Q1367.51 677.96 1368.65 677.96Z M1381.80 689.12L1381.80 689.12Q1380.45 689.12 1379.11 688.73Q1377.78 688.34 1376.97 687.71L1376.97 687.71L1379.91 683Q1380.42 683.39 1381.05 683.63Q1381.68 683.87 1382.37 683.87L1382.37 683.87Q1383.39 683.87 1384.05 683.18L1384.05 683.18L1380.45 666.59L1387.20 666.59L1388.88 675.41L1394.04 666.59L1400.67 666.59L1390.59 683.33Q1389.24 685.58 1387.95 686.84Q1386.66 688.10 1385.17 688.61Q1383.69 689.12 1381.80 689.12Z" fill="#070E14"></path>
    <path d="M1211.04 709.10L1211.04 709.10Q1209.96 709.10 1209.32 708.53Q1208.68 707.97 1208.68 706.98L1208.68 706.98L1209.67 706.98Q1209.67 707.56 1210.04 707.89Q1210.41 708.22 1211.04 708.22L1211.04 708.22Q1211.64 708.22 1211.99 707.88Q1212.35 707.55 1212.35 706.99L1212.35 706.99Q1212.35 706.57 1212.12 706.25Q1211.89 705.94 1211.47 705.83L1211.47 705.83L1210.39 705.54Q1209.68 705.34 1209.27 704.82Q1208.85 704.29 1208.85 703.57L1208.85 703.57Q1208.85 702.98 1209.12 702.53Q1209.38 702.09 1209.86 701.85Q1210.34 701.60 1210.97 701.60L1210.97 701.60Q1211.61 701.60 1212.10 701.85Q1212.58 702.09 1212.85 702.53Q1213.12 702.97 1213.12 703.55L1213.12 703.55L1212.14 703.55Q1212.14 703.07 1211.82 702.77Q1211.49 702.47 1210.97 702.47L1210.97 702.47Q1210.45 702.47 1210.13 702.77Q1209.82 703.07 1209.82 703.55L1209.82 703.55Q1209.82 703.94 1210.03 704.21Q1210.24 704.47 1210.62 704.58L1210.62 704.58L1211.73 704.88Q1212.48 705.08 1212.90 705.64Q1213.32 706.21 1213.32 706.99L1213.32 706.99Q1213.32 707.63 1213.04 708.11Q1212.76 708.58 1212.24 708.84Q1211.73 709.10 1211.04 709.10Z M1218.58 709.10L1218.58 709.10Q1217.57 709.10 1216.97 708.53Q1216.38 707.97 1216.38 706.98L1216.38 706.98L1216.38 703.71Q1216.38 702.73 1216.97 702.16Q1217.57 701.60 1218.58 701.60L1218.58 701.60Q1219.58 701.60 1220.17 702.17Q1220.77 702.74 1220.77 703.71L1220.77 703.71L1219.78 703.71Q1219.78 703.12 1219.46 702.80Q1219.14 702.48 1218.58 702.48L1218.58 702.48Q1218.01 702.48 1217.69 702.80Q1217.37 703.12 1217.37 703.71L1217.37 703.71L1217.37 706.98Q1217.37 707.58 1217.69 707.90Q1218.01 708.22 1218.58 708.22L1218.58 708.22Q1219.14 708.22 1219.46 707.90Q1219.78 707.58 1219.78 706.98L1219.78 706.98L1220.77 706.98Q1220.77 707.96 1220.17 708.53Q1219.58 709.10 1218.58 709.10Z M1224.47 709L1223.46 709L1225.35 701.70L1226.66 701.70L1228.54 709L1227.53 709L1227.07 707.10L1224.93 707.10L1224.47 709ZM1225.66 704.09L1225.12 706.28L1226.87 706.28L1226.34 704.10Q1226.20 703.50 1226.11 703.08Q1226.02 702.66 1226 702.51L1226 702.51Q1225.98 702.66 1225.89 703.08Q1225.80 703.50 1225.66 704.09L1225.66 704.09Z M1232.29 709L1231.36 709L1231.36 701.70L1232.64 701.70L1234.82 707.86Q1234.79 707.60 1234.77 707.22Q1234.74 706.83 1234.72 706.41Q1234.71 706 1234.71 705.63L1234.71 705.63L1234.71 701.70L1235.65 701.70L1235.65 709L1234.36 709L1232.19 702.84Q1232.22 703.10 1232.24 703.48Q1232.26 703.85 1232.28 704.26Q1232.29 704.67 1232.29 705.03L1232.29 705.03L1232.29 709Z  M1249 709L1248.01 709L1248.01 702.60L1246.03 702.60L1246.03 701.70L1250.97 701.70L1250.97 702.60L1249 702.60L1249 709Z M1256 709.10L1256 709.10Q1255 709.10 1254.42 708.52Q1253.84 707.94 1253.84 706.88L1253.84 706.88L1253.84 703.81Q1253.84 702.76 1254.42 702.18Q1255 701.60 1256 701.60L1256 701.60Q1257 701.60 1257.58 702.17Q1258.16 702.75 1258.16 703.81L1258.16 703.81L1258.16 706.88Q1258.16 707.94 1257.58 708.52Q1257 709.10 1256 709.10ZM1256 708.22L1256 708.22Q1256.56 708.22 1256.87 707.90Q1257.17 707.58 1257.17 706.98L1257.17 706.98L1257.17 703.71Q1257.17 703.12 1256.87 702.80Q1256.57 702.48 1256 702.48L1256 702.48Q1255.43 702.48 1255.13 702.80Q1254.83 703.12 1254.83 703.71L1254.83 703.71L1254.83 706.98Q1254.83 707.58 1255.13 707.90Q1255.44 708.22 1256 708.22Z  M1272.99 709L1269.01 709L1269.01 708.10L1270.50 708.10L1270.50 702.60L1269.01 702.60L1269.01 701.70L1272.99 701.70L1272.99 702.60L1271.50 702.60L1271.50 708.10L1272.99 708.10L1272.99 709Z M1277.29 709L1276.36 709L1276.36 701.70L1277.64 701.70L1279.82 707.86Q1279.79 707.60 1279.77 707.22Q1279.74 706.83 1279.72 706.41Q1279.71 706 1279.71 705.63L1279.71 705.63L1279.71 701.70L1280.65 701.70L1280.65 709L1279.36 709L1277.19 702.84Q1277.22 703.10 1277.24 703.48Q1277.26 703.85 1277.28 704.26Q1277.29 704.67 1277.29 705.03L1277.29 705.03L1277.29 709Z M1286.04 709.10L1286.04 709.10Q1284.96 709.10 1284.32 708.53Q1283.68 707.97 1283.68 706.98L1283.68 706.98L1284.67 706.98Q1284.67 707.56 1285.04 707.89Q1285.41 708.22 1286.04 708.22L1286.04 708.22Q1286.64 708.22 1286.99 707.88Q1287.35 707.55 1287.35 706.99L1287.35 706.99Q1287.35 706.57 1287.12 706.25Q1286.89 705.94 1286.47 705.83L1286.47 705.83L1285.39 705.54Q1284.68 705.34 1284.27 704.82Q1283.85 704.29 1283.85 703.57L1283.85 703.57Q1283.85 702.98 1284.12 702.53Q1284.38 702.09 1284.86 701.85Q1285.34 701.60 1285.97 701.60L1285.97 701.60Q1286.61 701.60 1287.10 701.85Q1287.58 702.09 1287.85 702.53Q1288.12 702.97 1288.12 703.55L1288.12 703.55L1287.14 703.55Q1287.14 703.07 1286.82 702.77Q1286.49 702.47 1285.97 702.47L1285.97 702.47Q1285.45 702.47 1285.13 702.77Q1284.82 703.07 1284.82 703.55L1284.82 703.55Q1284.82 703.94 1285.03 704.21Q1285.24 704.47 1285.62 704.58L1285.62 704.58L1286.73 704.88Q1287.48 705.08 1287.90 705.64Q1288.32 706.21 1288.32 706.99L1288.32 706.99Q1288.32 707.63 1288.04 708.11Q1287.76 708.58 1287.24 708.84Q1286.73 709.10 1286.04 709.10Z M1294 709L1293.01 709L1293.01 702.60L1291.03 702.60L1291.03 701.70L1295.97 701.70L1295.97 702.60L1294 702.60L1294 709Z M1299.47 709L1298.46 709L1300.35 701.70L1301.66 701.70L1303.54 709L1302.53 709L1302.07 707.10L1299.93 707.10L1299.47 709ZM1300.66 704.09L1300.12 706.28L1301.87 706.28L1301.34 704.10Q1301.20 703.50 1301.11 703.08Q1301.02 702.66 1301 702.51L1301 702.51Q1300.98 702.66 1300.89 703.08Q1300.80 703.50 1300.66 704.09L1300.66 704.09Z M1311.02 709L1306.78 709L1306.78 701.70L1307.77 701.70L1307.77 708.10L1311.02 708.10L1311.02 709Z M1318.52 709L1314.28 709L1314.28 701.70L1315.27 701.70L1315.27 708.10L1318.52 708.10L1318.52 709Z" fill="#6B7785"></path>
    <image x="1368" y="608" width="130" height="130"></image>
  
    
    <image x="80" y="810" width="249.9173553719008" height="42"></image>
    <path d="M1375.33 833.50L1374.25 833.50L1374.25 825.47L1376.85 825.47Q1377.62 825.47 1378.18 825.77Q1378.74 826.06 1379.05 826.60Q1379.36 827.13 1379.36 827.87L1379.36 827.87Q1379.36 828.59 1379.05 829.13Q1378.74 829.66 1378.18 829.96Q1377.61 830.25 1376.85 830.25L1376.85 830.25L1375.33 830.25L1375.33 833.50ZM1375.33 826.44L1375.33 829.29L1376.85 829.29Q1377.49 829.29 1377.86 828.90Q1378.24 828.51 1378.24 827.87L1378.24 827.87Q1378.24 827.22 1377.86 826.83Q1377.49 826.44 1376.85 826.44L1376.85 826.44L1375.33 826.44Z M1385.68 833.61L1385.68 833.61Q1384.58 833.61 1383.94 832.97Q1383.30 832.33 1383.30 831.17L1383.30 831.17L1383.30 827.79Q1383.30 826.64 1383.94 826.00Q1384.58 825.36 1385.68 825.36L1385.68 825.36Q1386.78 825.36 1387.42 825.99Q1388.05 826.63 1388.05 827.79L1388.05 827.79L1388.05 831.17Q1388.05 832.33 1387.42 832.97Q1386.78 833.61 1385.68 833.61ZM1385.68 832.64L1385.68 832.64Q1386.29 832.64 1386.63 832.29Q1386.96 831.94 1386.96 831.28L1386.96 831.28L1386.96 827.68Q1386.96 827.03 1386.63 826.68Q1386.30 826.33 1385.68 826.33L1385.68 826.33Q1385.05 826.33 1384.72 826.68Q1384.39 827.03 1384.39 827.68L1384.39 827.68L1384.39 831.28Q1384.39 831.94 1384.73 832.29Q1385.06 832.64 1385.68 832.64Z M1393.92 833.50L1392.61 833.50L1391.69 825.47L1392.65 825.47L1393.25 831.32Q1393.28 831.67 1393.31 832.08Q1393.34 832.48 1393.35 832.73L1393.35 832.73Q1393.37 832.48 1393.40 832.08Q1393.44 831.67 1393.49 831.32L1393.49 831.32L1394.26 825.47L1395.35 825.47L1396.06 831.32Q1396.10 831.67 1396.14 832.08Q1396.19 832.48 1396.22 832.73L1396.22 832.73Q1396.23 832.48 1396.26 832.08Q1396.30 831.67 1396.33 831.32L1396.33 831.32L1396.93 825.47L1397.88 825.47L1396.92 833.50L1395.60 833.50L1394.91 827.56Q1394.87 827.20 1394.84 826.82Q1394.81 826.44 1394.80 826.21L1394.80 826.21Q1394.77 826.44 1394.74 826.82Q1394.72 827.20 1394.68 827.56L1394.68 827.56L1393.92 833.50Z M1406.32 833.50L1401.64 833.50L1401.64 825.47L1406.32 825.47L1406.32 826.45L1402.72 826.45L1402.72 828.84L1405.93 828.84L1405.93 829.78L1402.72 829.78L1402.72 832.52L1406.32 832.52L1406.32 833.50Z M1411.73 833.50L1410.66 833.50L1410.66 825.47L1413.14 825.47Q1413.88 825.47 1414.43 825.76Q1414.98 826.05 1415.29 826.58Q1415.60 827.10 1415.60 827.80L1415.60 827.80Q1415.60 828.62 1415.18 829.20Q1414.77 829.78 1414.09 830.02L1414.09 830.02L1415.71 833.50L1414.51 833.50L1412.98 830.14L1411.73 830.14L1411.73 833.50ZM1411.73 826.44L1411.73 829.18L1413.14 829.18Q1413.76 829.18 1414.12 828.80Q1414.47 828.43 1414.47 827.81L1414.47 827.81Q1414.47 827.19 1414.11 826.81Q1413.75 826.44 1413.14 826.44L1413.14 826.44L1411.73 826.44Z M1424.52 833.50L1419.84 833.50L1419.84 825.47L1424.52 825.47L1424.52 826.45L1420.92 826.45L1420.92 828.84L1424.13 828.84L1424.13 829.78L1420.92 829.78L1420.92 832.52L1424.52 832.52L1424.52 833.50Z M1431.00 833.50L1428.85 833.50L1428.85 825.47L1431.00 825.47Q1431.78 825.47 1432.36 825.77Q1432.94 826.08 1433.26 826.62Q1433.58 827.16 1433.58 827.90L1433.58 827.90L1433.58 831.06Q1433.58 831.79 1433.26 832.35Q1432.94 832.89 1432.36 833.20Q1431.78 833.50 1431.00 833.50L1431.00 833.50ZM1429.93 826.44L1429.93 832.53L1431.00 832.53Q1431.69 832.53 1432.09 832.14Q1432.49 831.74 1432.49 831.06L1432.49 831.06L1432.49 827.90Q1432.49 827.22 1432.09 826.83Q1431.69 826.44 1431.00 826.44L1431.00 826.44L1429.93 826.44Z  M1449.53 833.50L1447.06 833.50L1447.06 825.47L1449.38 825.47Q1450.49 825.47 1451.13 826.03Q1451.78 826.58 1451.78 827.55L1451.78 827.55Q1451.78 828.18 1451.39 828.67Q1450.99 829.15 1450.38 829.26L1450.38 829.26L1450.38 829.30Q1450.84 829.35 1451.20 829.63Q1451.56 829.90 1451.76 830.33Q1451.96 830.75 1451.96 831.26L1451.96 831.26Q1451.96 832.29 1451.31 832.89Q1450.65 833.50 1449.53 833.50L1449.53 833.50ZM1448.12 826.43L1448.12 828.86L1449.37 828.86Q1449.98 828.86 1450.33 828.53Q1450.69 828.21 1450.69 827.65L1450.69 827.65Q1450.69 827.08 1450.33 826.75Q1449.98 826.43 1449.38 826.43L1449.38 826.43L1448.12 826.43ZM1448.12 829.78L1448.12 832.54L1449.43 832.54Q1450.10 832.54 1450.49 832.19Q1450.87 831.83 1450.87 831.21L1450.87 831.21Q1450.87 830.57 1450.49 830.18Q1450.10 829.78 1449.43 829.78L1449.43 829.78L1448.12 829.78Z M1459.03 833.50L1457.94 833.50L1457.94 830.52L1455.53 825.47L1456.68 825.47L1458.17 828.64Q1458.30 828.92 1458.38 829.15Q1458.47 829.39 1458.49 829.49L1458.49 829.49Q1458.52 829.39 1458.60 829.15Q1458.69 828.92 1458.83 828.64L1458.83 828.64L1460.30 825.47L1461.43 825.47L1459.03 830.52L1459.03 833.50Z" fill="#8896a6"></path>
    <rect x="1471.7777777777778" y="811" width="54.22222222222222" height="40" rx="4" fill="#fff"></rect>
    <image x="1477.7777777777778" y="815" width="42.22222222222222" height="32"></image>
  
  </svg>