<svg xmlns="http://www.w3.org/2000/svg" width="1080" height="1080" viewBox="0 0 1080 1080">
    <defs>
    <radialGradient id="amb1" cx="0.75" cy="0.25" r="0.5"><stop offset="0%" stop-color="rgba(94,231,214,0.22)"></stop><stop offset="100%" stop-color="rgba(94,231,214,0)"></stop></radialGradient>
    <radialGradient id="amb2" cx="0.20" cy="0.90" r="0.45"><stop offset="0%" stop-color="rgba(14,143,136,0.18)"></stop><stop offset="100%" stop-color="rgba(14,143,136,0)"></stop></radialGradient>
    <linearGradient id="boltGrad" x1="0" y1="0" x2="1" y2="1"><stop offset="0%" stop-color="#5EE7D6"></stop><stop offset="55%" stop-color="#15B8AE"></stop><stop offset="100%" stop-color="#0E8F88"></stop></linearGradient>
    <linearGradient id="textGrad" x1="64" y1="261.44" x2="815.088" y2="387.6" gradientUnits="userSpaceOnUse"><stop offset="0%" stop-color="#5EE7D6"></stop><stop offset="50%" stop-color="#15B8AE"></stop><stop offset="100%" stop-color="#0E8F88"></stop></linearGradient>
    <linearGradient id="ticketBar" x1="0" y1="0" x2="0" y2="1"><stop offset="0%" stop-color="#5EE7D6"></stop><stop offset="100%" stop-color="#0E8F88"></stop></linearGradient>
  </defs>
    <rect width="1080" height="1080" fill="#070E14"></rect>
    <rect width="1080" height="1080" fill="url(#amb1)"></rect>
    <rect width="1080" height="1080" fill="url(#amb2)"></rect>
    <g transform="translate(1100 580) rotate(-2) translate(-360 -485)" opacity="0.9">
      <polygon points="88,0 20,84 56,84 32,160 100,76 64,76" fill="url(#boltGrad)" transform="scale(6 6.0625)"></polygon>
    </g>
    <circle cx="68" cy="45" r="9" fill="rgba(94,231,214,0.18)"></circle><circle cx="68" cy="45" r="4" fill="#5EE7D6"></circle><path d="M88.33 48L87.12 48L87.12 38.51L88.78 38.51L91.62 46.52Q91.58 46.18 91.54 45.68Q91.51 45.18 91.49 44.64Q91.47 44.10 91.47 43.62L91.47 43.62L91.47 38.51L92.69 38.51L92.69 48L91.02 48L88.20 39.99Q88.24 40.33 88.26 40.82Q88.29 41.30 88.31 41.84Q88.33 42.37 88.33 42.84L88.33 42.84L88.33 48Z M99.20 48.13L99.20 48.13Q97.90 48.13 97.15 47.38Q96.39 46.62 96.39 45.24L96.39 45.24L96.39 41.25Q96.39 39.89 97.15 39.13Q97.90 38.38 99.20 38.38L99.20 38.38Q100.50 38.38 101.25 39.13Q102.01 39.88 102.01 41.25L102.01 41.25L102.01 45.24Q102.01 46.62 101.25 47.38Q100.50 48.13 99.20 48.13ZM99.20 46.99L99.20 46.99Q99.93 46.99 100.32 46.57Q100.72 46.15 100.72 45.37L100.72 45.37L100.72 41.12Q100.72 40.36 100.33 39.94Q99.94 39.52 99.20 39.52L99.20 39.52Q98.46 39.52 98.07 39.94Q97.68 40.36 97.68 41.12L97.68 41.12L97.68 45.37Q97.68 46.15 98.08 46.57Q98.47 46.99 99.20 46.99Z M107.49 48L105.94 48L104.85 38.51L105.99 38.51L106.69 45.43Q106.73 45.84 106.76 46.32Q106.80 46.79 106.81 47.09L106.81 47.09Q106.84 46.79 106.88 46.32Q106.91 45.84 106.98 45.43L106.98 45.43L107.89 38.51L109.18 38.51L110.02 45.43Q110.06 45.84 110.11 46.32Q110.16 46.79 110.20 47.09L110.20 47.09Q110.22 46.79 110.25 46.32Q110.29 45.84 110.33 45.43L110.33 45.43L111.05 38.51L112.17 38.51L111.03 48L109.47 48L108.66 40.98Q108.60 40.55 108.57 40.10Q108.54 39.65 108.53 39.38L108.53 39.38Q108.49 39.65 108.46 40.10Q108.43 40.55 108.38 40.98L108.38 40.98L107.49 48Z  M130.38 48L124.86 48L124.86 38.51L126.15 38.51L126.15 46.83L130.38 46.83L130.38 48Z M138.99 48L133.81 48L133.81 46.83L135.75 46.83L135.75 39.68L133.81 39.68L133.81 38.51L138.99 38.51L138.99 39.68L137.05 39.68L137.05 46.83L138.99 46.83L138.99 48Z M146.56 48L144.83 48L142.40 38.51L143.72 38.51L145.30 44.91Q145.45 45.52 145.56 46.08Q145.67 46.65 145.73 46.95L145.73 46.95Q145.77 46.65 145.89 46.08Q146.01 45.50 146.16 44.89L146.16 44.89L147.68 38.51L149.00 38.51L146.56 48Z M157.89 48L152.36 48L152.36 38.51L157.89 38.51L157.89 39.67L153.64 39.67L153.64 42.49L157.43 42.49L157.43 43.61L153.64 43.61L153.64 46.84L157.89 46.84L157.89 48Z" fill="#8896a6"></path><path d="M180.68 49.43L179.32 49.43L183.93 37.21L185.28 37.21L180.68 49.43Z" fill="rgba(136,150,166,0.4)"></path><path d="M209.39 48L206.84 48L206.84 38.51L209.39 38.51Q210.32 38.51 211.00 38.87Q211.68 39.23 212.06 39.87Q212.43 40.51 212.43 41.38L212.43 41.38L212.43 45.11Q212.43 45.98 212.06 46.63Q211.68 47.28 211.00 47.64Q210.32 48 209.39 48L209.39 48ZM208.13 39.65L208.13 46.86L209.39 46.86Q210.21 46.86 210.68 46.39Q211.15 45.92 211.15 45.11L211.15 45.11L211.15 41.38Q211.15 40.58 210.68 40.12Q210.21 39.65 209.39 39.65L209.39 39.65L208.13 39.65Z M217.43 48L216.16 48L216.16 38.51L219.10 38.51Q219.97 38.51 220.62 38.85Q221.27 39.20 221.63 39.82Q221.99 40.43 221.99 41.27L221.99 41.27Q221.99 42.23 221.51 42.92Q221.02 43.61 220.21 43.89L220.21 43.89L222.12 48L220.71 48L218.90 44.03L217.43 44.03L217.43 48ZM217.43 39.65L217.43 42.89L219.10 42.89Q219.82 42.89 220.25 42.45Q220.67 42.01 220.67 41.28L220.67 41.28Q220.67 40.54 220.24 40.10Q219.81 39.65 219.10 39.65L219.10 39.65L217.43 39.65Z M228.20 48.13L228.20 48.13Q226.90 48.13 226.15 47.38Q225.39 46.62 225.39 45.24L225.39 45.24L225.39 41.25Q225.39 39.89 226.15 39.13Q226.90 38.38 228.20 38.38L228.20 38.38Q229.50 38.38 230.25 39.13Q231.01 39.88 231.01 41.25L231.01 41.25L231.01 45.24Q231.01 46.62 230.25 47.38Q229.50 48.13 228.20 48.13ZM228.20 46.99L228.20 46.99Q228.93 46.99 229.32 46.57Q229.72 46.15 229.72 45.37L229.72 45.37L229.72 41.12Q229.72 40.36 229.33 39.94Q228.94 39.52 228.20 39.52L228.20 39.52Q227.46 39.52 227.07 39.94Q226.68 40.36 226.68 41.12L226.68 41.12L226.68 45.37Q226.68 46.15 227.08 46.57Q227.47 46.99 228.20 46.99Z M236.03 48L234.74 48L234.74 38.51L237.83 38.51Q238.74 38.51 239.40 38.86Q240.06 39.21 240.43 39.84Q240.79 40.47 240.79 41.34L240.79 41.34Q240.79 42.20 240.43 42.83Q240.06 43.46 239.39 43.81Q238.72 44.16 237.83 44.16L237.83 44.16L236.03 44.16L236.03 48ZM236.03 39.65L236.03 43.02L237.83 43.02Q238.58 43.02 239.02 42.56Q239.46 42.10 239.46 41.34L239.46 41.34Q239.46 40.58 239.02 40.12Q238.58 39.65 237.83 39.65L237.83 39.65L236.03 39.65Z  M256.10 48.13L256.10 48.13Q254.76 48.13 253.98 47.37Q253.20 46.61 253.20 45.32L253.20 45.32L253.20 41.19Q253.20 39.90 253.98 39.14Q254.76 38.38 256.10 38.38L256.10 38.38Q257.44 38.38 258.22 39.14Q259.00 39.90 259.00 41.19L259.00 41.19L259.00 45.32Q259.00 46.17 258.64 46.80Q258.28 47.43 257.63 47.78Q256.98 48.13 256.10 48.13ZM256.10 47.02L256.10 47.02Q256.85 47.02 257.31 46.55Q257.76 46.08 257.76 45.32L257.76 45.32L257.76 41.19Q257.76 40.43 257.31 39.96Q256.85 39.48 256.10 39.48L256.10 39.48Q255.35 39.48 254.89 39.96Q254.44 40.43 254.44 41.19L254.44 41.19L254.44 45.32Q254.44 46.08 254.89 46.55Q255.35 47.02 256.10 47.02ZM256.10 43.98L256.10 43.98Q255.74 43.98 255.52 43.78Q255.31 43.58 255.31 43.22L255.31 43.22Q255.31 42.85 255.52 42.66Q255.74 42.48 256.10 42.48L256.10 42.48Q256.46 42.48 256.69 42.66Q256.91 42.85 256.91 43.22L256.91 43.22Q256.91 43.58 256.69 43.78Q256.46 43.98 256.10 43.98Z M265.40 48.13L265.40 48.13Q264.06 48.13 263.28 47.37Q262.50 46.61 262.50 45.32L262.50 45.32L262.50 41.19Q262.50 39.90 263.28 39.14Q264.06 38.38 265.40 38.38L265.40 38.38Q266.74 38.38 267.52 39.14Q268.30 39.90 268.30 41.19L268.30 41.19L268.30 45.32Q268.30 46.17 267.94 46.80Q267.58 47.43 266.93 47.78Q266.28 48.13 265.40 48.13ZM265.40 47.02L265.40 47.02Q266.15 47.02 266.61 46.55Q267.06 46.08 267.06 45.32L267.06 45.32L267.06 41.19Q267.06 40.43 266.61 39.96Q266.15 39.48 265.40 39.48L265.40 39.48Q264.65 39.48 264.19 39.96Q263.74 40.43 263.74 41.19L263.74 41.19L263.74 45.32Q263.74 46.08 264.19 46.55Q264.65 47.02 265.40 47.02ZM265.40 43.98L265.40 43.98Q265.04 43.98 264.82 43.78Q264.61 43.58 264.61 43.22L264.61 43.22Q264.61 42.85 264.82 42.66Q265.04 42.48 265.40 42.48L265.40 42.48Q265.76 42.48 265.99 42.66Q266.21 42.85 266.21 43.22L266.21 43.22Q266.21 43.58 265.99 43.78Q265.76 43.98 265.40 43.98Z M277.86 48L271.96 48L271.96 46.83L274.49 46.83L274.49 39.67L271.94 41.56L271.94 40.11L274.10 38.51L275.78 38.51L275.78 46.83L277.86 46.83L277.86 48Z" fill="#8896a6"></path><path d="M903.09 48L897.91 48L897.91 46.83L899.85 46.83L899.85 39.68L897.91 39.68L897.91 38.51L903.09 38.51L903.09 39.68L901.15 39.68L901.15 46.83L903.09 46.83L903.09 48Z M909.80 48.13L909.80 48.13Q908.50 48.13 907.75 47.38Q906.99 46.62 906.99 45.24L906.99 45.24L906.99 41.25Q906.99 39.89 907.75 39.13Q908.50 38.38 909.80 38.38L909.80 38.38Q911.10 38.38 911.85 39.13Q912.61 39.88 912.61 41.25L912.61 41.25L912.61 45.24Q912.61 46.62 911.85 47.38Q911.10 48.13 909.80 48.13ZM909.80 46.99L909.80 46.99Q910.53 46.99 910.92 46.57Q911.32 46.15 911.32 45.37L911.32 45.37L911.32 41.12Q911.32 40.36 910.93 39.94Q910.54 39.52 909.80 39.52L909.80 39.52Q909.06 39.52 908.67 39.94Q908.28 40.36 908.28 41.12L908.28 41.12L908.28 45.37Q908.28 46.15 908.68 46.57Q909.07 46.99 909.80 46.99Z M919.15 48.13L919.15 48.13Q917.75 48.13 916.92 47.40Q916.08 46.66 916.08 45.37L916.08 45.37L917.37 45.37Q917.37 46.13 917.85 46.56Q918.33 46.99 919.15 46.99L919.15 46.99Q919.93 46.99 920.39 46.55Q920.85 46.12 920.85 45.39L920.85 45.39Q920.85 44.84 920.56 44.43Q920.26 44.02 919.71 43.88L919.71 43.88L918.31 43.50Q917.38 43.24 916.84 42.56Q916.30 41.88 916.30 40.94L916.30 40.94Q916.30 40.17 916.65 39.60Q916.99 39.02 917.62 38.70Q918.24 38.38 919.06 38.38L919.06 38.38Q919.89 38.38 920.52 38.70Q921.15 39.02 921.50 39.59Q921.86 40.16 921.86 40.91L921.86 40.91L920.58 40.91Q920.58 40.29 920.16 39.90Q919.74 39.51 919.06 39.51L919.06 39.51Q918.38 39.51 917.98 39.90Q917.57 40.29 917.57 40.91L917.57 40.91Q917.57 41.42 917.84 41.77Q918.11 42.11 918.61 42.25L918.61 42.25L920.05 42.64Q921.02 42.90 921.57 43.64Q922.12 44.37 922.12 45.39L922.12 45.39Q922.12 46.22 921.75 46.84Q921.39 47.45 920.72 47.79Q920.05 48.13 919.15 48.13Z  M938.34 46.78L937.06 46.78L937.06 44.28L934.63 44.28L934.63 43.13L937.06 43.13L937.06 40.64L938.34 40.64L938.34 43.13L940.78 43.13L940.78 44.28L938.34 44.28L938.34 46.78Z  M954.31 48L953.00 48L955.45 38.51L957.16 38.51L959.60 48L958.29 48L957.69 45.53L954.91 45.53L954.31 48ZM955.86 41.62L955.16 44.46L957.43 44.46L956.74 41.63Q956.56 40.85 956.44 40.30Q956.33 39.76 956.30 39.56L956.30 39.56Q956.27 39.76 956.16 40.30Q956.04 40.85 955.86 41.62L955.86 41.62Z M964.03 48L962.82 48L962.82 38.51L964.48 38.51L967.32 46.52Q967.28 46.18 967.24 45.68Q967.21 45.18 967.19 44.64Q967.17 44.10 967.17 43.62L967.17 43.62L967.17 38.51L968.39 38.51L968.39 48L966.72 48L963.90 39.99Q963.94 40.33 963.96 40.82Q963.99 41.30 964.01 41.84Q964.03 42.37 964.03 42.84L964.03 42.84L964.03 48Z M974.69 48L972.14 48L972.14 38.51L974.69 38.51Q975.61 38.51 976.30 38.87Q976.98 39.23 977.36 39.87Q977.73 40.51 977.73 41.38L977.73 41.38L977.73 45.11Q977.73 45.98 977.36 46.63Q976.98 47.28 976.30 47.64Q975.61 48 974.69 48L974.69 48ZM973.43 39.65L973.43 46.86L974.69 46.86Q975.51 46.86 975.98 46.39Q976.45 45.92 976.45 45.11L976.45 45.11L976.45 41.38Q976.45 40.58 975.98 40.12Q975.51 39.65 974.69 39.65L974.69 39.65L973.43 39.65Z M982.73 48L981.46 48L981.46 38.51L984.39 38.51Q985.27 38.51 985.92 38.85Q986.57 39.20 986.93 39.82Q987.29 40.43 987.29 41.27L987.29 41.27Q987.29 42.23 986.81 42.92Q986.32 43.61 985.51 43.89L985.51 43.89L987.42 48L986.01 48L984.20 44.03L982.73 44.03L982.73 48ZM982.73 39.65L982.73 42.89L984.39 42.89Q985.12 42.89 985.55 42.45Q985.97 42.01 985.97 41.28L985.97 41.28Q985.97 40.54 985.54 40.10Q985.11 39.65 984.39 39.65L984.39 39.65L982.73 39.65Z M993.50 48.13L993.50 48.13Q992.20 48.13 991.45 47.38Q990.69 46.62 990.69 45.24L990.69 45.24L990.69 41.25Q990.69 39.89 991.45 39.13Q992.20 38.38 993.50 38.38L993.50 38.38Q994.80 38.38 995.55 39.13Q996.31 39.88 996.31 41.25L996.31 41.25L996.31 45.24Q996.31 46.62 995.55 47.38Q994.80 48.13 993.50 48.13ZM993.50 46.99L993.50 46.99Q994.23 46.99 994.62 46.57Q995.02 46.15 995.02 45.37L995.02 45.37L995.02 41.12Q995.02 40.36 994.63 39.94Q994.24 39.52 993.50 39.52L993.50 39.52Q992.76 39.52 992.37 39.94Q991.98 40.36 991.98 41.12L991.98 41.12L991.98 45.37Q991.98 46.15 992.38 46.57Q992.77 46.99 993.50 46.99Z M1005.39 48L1000.21 48L1000.21 46.83L1002.15 46.83L1002.15 39.68L1000.21 39.68L1000.21 38.51L1005.39 38.51L1005.39 39.68L1003.45 39.68L1003.45 46.83L1005.39 46.83L1005.39 48Z M1011.89 48L1009.34 48L1009.34 38.51L1011.89 38.51Q1012.81 38.51 1013.50 38.87Q1014.18 39.23 1014.56 39.87Q1014.93 40.51 1014.93 41.38L1014.93 41.38L1014.93 45.11Q1014.93 45.98 1014.56 46.63Q1014.18 47.28 1013.50 47.64Q1012.81 48 1011.89 48L1011.89 48ZM1010.63 39.65L1010.63 46.86L1011.89 46.86Q1012.71 46.86 1013.18 46.39Q1013.65 45.92 1013.65 45.11L1013.65 45.11L1013.65 41.38Q1013.65 40.58 1013.18 40.12Q1012.71 39.65 1011.89 39.65L1011.89 39.65L1010.63 39.65Z" fill="#8896a6"></path>
    <path d="M90.60 380L52.75 380L120.54 273.60L155.81 273.60L181.04 380L145.32 380L141.82 361.46L101.24 361.46L90.60 380ZM131.64 308.41L115.98 335.62L136.81 335.62L131.64 308.41Z M217.10 380L182.75 380L199.32 296.86L231.70 296.86L230.02 305.37Q235.34 300.05 242.87 297.69Q250.39 295.34 259.21 295.34L259.21 295.34L253.13 325.74Q249.33 325.13 245.68 325.13L245.68 325.13Q237.17 325.13 231.92 328.93Q226.68 332.73 224.86 341.54L224.86 341.54L217.10 380Z M298.01 381.52L298.01 381.52Q284.33 381.52 274.14 376.73Q263.96 371.94 258.34 363.28Q252.71 354.62 252.71 343.06L252.71 343.06Q252.71 329.38 259.40 318.59Q266.09 307.80 277.94 301.57Q289.80 295.34 305.15 295.34L305.15 295.34Q320.05 295.34 330.99 301.87Q341.94 308.41 346.34 319.66L346.34 319.66L317.16 333.03Q315.03 327.26 311.46 324.82Q307.89 322.39 303.48 322.39L303.48 322.39Q296.49 322.39 292.00 327.48Q287.52 332.58 287.52 340.94L287.52 340.94Q287.52 346.86 290.86 350.66Q294.21 354.46 300.59 354.46L300.59 354.46Q305.61 354.46 309.41 352.03Q313.21 349.60 316.10 343.82L316.10 343.82L341.18 358.42Q335.10 369.36 323.92 375.44Q312.75 381.52 298.01 381.52Z M380.13 381.52L380.13 381.52Q369.49 381.52 362.04 377.57Q354.59 373.62 351.55 365.94Q348.51 358.26 350.64 347.47L350.64 347.47L355.81 321.94L344.26 321.94L349.27 296.86L360.67 296.86L364.47 278.16L398.82 278.16L395.02 296.86L412.05 296.86L407.03 321.94L390.01 321.94L384.99 347.32Q384.23 351.58 385.90 353.55Q387.58 355.53 391.07 355.53L391.07 355.53Q393.20 355.53 394.95 355.00Q396.70 354.46 398.67 353.55L398.67 353.55L402.62 376.66Q397.91 379.24 392.06 380.38Q386.21 381.52 380.13 381.52Z M441.42 380L407.22 380L423.79 296.86L457.99 296.86L441.42 380ZM444.62 290.17L444.62 290.17Q435.65 290.17 430.40 285.46Q425.16 280.74 425.16 273.90L425.16 273.90Q425.16 265.85 431.16 260.53Q437.17 255.21 447.05 255.21L447.05 255.21Q456.02 255.21 461.26 259.62Q466.50 264.02 466.50 270.86L466.50 270.86Q466.50 279.38 460.50 284.77Q454.50 290.17 444.62 290.17Z M512.90 380L477.34 380L460.46 296.86L494.36 296.86L502.57 341.54L529.02 296.86L562.91 296.86L512.90 380Z M586.51 381.52L586.51 381.52Q578.30 381.52 570.40 377.04Q562.50 372.55 557.40 363.96Q552.31 355.38 552.31 343.06L552.31 343.06Q552.31 332.73 555.81 324.06Q559.30 315.40 565.46 308.94Q571.62 302.48 579.60 298.91Q587.58 295.34 596.54 295.34L596.54 295.34Q604.14 295.34 610.30 297.69Q616.46 300.05 620.26 305.67L620.26 305.67L622.08 296.86L656.43 296.86L639.86 380L607.49 380L609.01 372.40Q599.74 381.52 586.51 381.52ZM599.43 354.46L599.43 354.46Q606.12 354.46 610.30 349.30Q614.48 344.13 614.48 335.46L614.48 335.46Q614.48 329.69 611.21 326.04Q607.94 322.39 602.17 322.39L602.17 322.39Q595.48 322.39 591.30 327.56Q587.12 332.73 587.12 341.39L587.12 341.39Q587.12 347.17 590.39 350.82Q593.66 354.46 599.43 354.46Z M691.74 381.52L691.74 381.52Q681.10 381.52 673.65 377.57Q666.20 373.62 663.16 365.94Q660.12 358.26 662.25 347.47L662.25 347.47L667.42 321.94L655.86 321.94L660.88 296.86L672.28 296.86L676.08 278.16L710.43 278.16L706.63 296.86L723.66 296.86L718.64 321.94L701.62 321.94L696.60 347.32Q695.84 351.58 697.51 353.55Q699.18 355.53 702.68 355.53L702.68 355.53Q704.81 355.53 706.56 355.00Q708.30 354.46 710.28 353.55L710.28 353.55L714.23 376.66Q709.52 379.24 703.67 380.38Q697.82 381.52 691.74 381.52Z M768.38 381.52L768.38 381.52Q754.70 381.52 744.44 376.81Q734.18 372.10 728.41 363.43Q722.63 354.77 722.63 343.06L722.63 343.06Q722.63 329.38 729.02 318.59Q735.40 307.80 747.03 301.57Q758.66 295.34 774.16 295.34L774.16 295.34Q787.54 295.34 796.96 300.05Q806.38 304.76 811.40 312.97Q816.42 321.18 816.42 331.97L816.42 331.97Q816.42 335.77 815.88 339.42Q815.35 343.06 814.59 346.41L814.59 346.41L756.38 346.41Q757.44 351.58 761.47 353.86Q765.50 356.14 772.34 356.14L772.34 356.14Q777.05 356.14 781.76 354.69Q786.47 353.25 790.42 350.36L790.42 350.36L804.71 371.18Q796.20 376.96 787.00 379.24Q777.81 381.52 768.38 381.52ZM757.74 329.84L757.74 329.84L784.95 329.84Q784.95 324.67 781.53 321.71Q778.11 318.74 772.64 318.74L772.64 318.74Q766.71 318.74 763.14 321.86Q759.57 324.98 757.74 329.84Z" fill="url(#textGrad)"></path><path d="M97.44 532L63.24 532L79.81 448.86L114.01 448.86L97.44 532ZM100.63 442.17L100.63 442.17Q91.66 442.17 86.42 437.46Q81.18 432.74 81.18 425.90L81.18 425.90Q81.18 417.85 87.18 412.53Q93.18 407.21 103.06 407.21L103.06 407.21Q112.03 407.21 117.28 411.62Q122.52 416.02 122.52 422.86L122.52 422.86Q122.52 431.38 116.52 436.77Q110.51 442.17 100.63 442.17Z M144.30 533.52L144.30 533.52Q133.20 533.52 123.24 531.32Q113.29 529.11 107.82 525.92L107.82 525.92L119.67 502.51Q125.90 506.31 133.73 508.21Q141.56 510.11 148.55 510.11L148.55 510.11Q154.33 510.11 156.53 508.97Q158.74 507.83 158.74 506.16L158.74 506.16Q158.74 504.34 155.54 503.58Q152.35 502.82 147.64 502.06L147.64 502.06Q143.08 501.30 137.68 500.16Q132.29 499.02 127.58 496.66Q122.86 494.30 119.82 490.05Q116.78 485.79 116.78 478.80L116.78 478.80Q116.78 468.01 123.09 461.09Q129.40 454.18 140.04 450.76Q150.68 447.34 163.60 447.34L163.60 447.34Q172.72 447.34 181.16 448.93Q189.59 450.53 196.13 453.57L196.13 453.57L184.27 476.98Q177.74 473.18 171.28 471.96Q164.82 470.74 159.50 470.74L159.50 470.74Q153.57 470.74 151.29 472.04Q149.01 473.33 149.01 474.85L149.01 474.85Q149.01 476.82 152.28 477.66Q155.54 478.50 160.41 479.26L160.41 479.26Q165.12 480.02 170.36 481.16Q175.61 482.30 180.24 484.65Q184.88 487.01 187.84 491.26Q190.81 495.52 190.81 502.36L190.81 502.36Q190.81 512.70 184.50 519.69Q178.19 526.68 167.63 530.10Q157.06 533.52 144.30 533.52Z  M269.47 532L235.12 532L257.62 419.22L291.97 419.22L269.47 532Z M315.87 532L281.67 532L298.24 448.86L332.44 448.86L315.87 532ZM319.06 442.17L319.06 442.17Q310.10 442.17 304.85 437.46Q299.61 432.74 299.61 425.90L299.61 425.90Q299.61 417.85 305.61 412.53Q311.62 407.21 321.50 407.21L321.50 407.21Q330.46 407.21 335.71 411.62Q340.95 416.02 340.95 422.86L340.95 422.86Q340.95 431.38 334.95 436.77Q328.94 442.17 319.06 442.17Z M387.35 532L351.78 532L334.91 448.86L368.81 448.86L377.02 493.54L403.46 448.86L437.36 448.86L387.35 532Z M472.51 533.52L472.51 533.52Q458.83 533.52 448.57 528.81Q438.31 524.10 432.54 515.43Q426.76 506.77 426.76 495.06L426.76 495.06Q426.76 481.38 433.14 470.59Q439.53 459.80 451.16 453.57Q462.78 447.34 478.29 447.34L478.29 447.34Q491.66 447.34 501.09 452.05Q510.51 456.76 515.53 464.97Q520.54 473.18 520.54 483.97L520.54 483.97Q520.54 487.77 520.01 491.42Q519.48 495.06 518.72 498.41L518.72 498.41L460.50 498.41Q461.57 503.58 465.60 505.86Q469.62 508.14 476.46 508.14L476.46 508.14Q481.18 508.14 485.89 506.69Q490.60 505.25 494.55 502.36L494.55 502.36L508.84 523.18Q500.33 528.96 491.13 531.24Q481.94 533.52 472.51 533.52ZM461.87 481.84L461.87 481.84L489.08 481.84Q489.08 476.67 485.66 473.71Q482.24 470.74 476.77 470.74L476.77 470.74Q470.84 470.74 467.27 473.86Q463.70 476.98 461.87 481.84Z M536.24 533.52L536.24 533.52Q527.88 533.52 522.64 528.43Q517.39 523.34 517.39 515.43L517.39 515.43Q517.39 505.86 523.70 500.08Q530.01 494.30 538.98 494.30L538.98 494.30Q547.49 494.30 552.58 499.32Q557.67 504.34 557.67 512.39L557.67 512.39Q557.67 518.78 554.78 523.49Q551.90 528.20 547.03 530.86Q542.17 533.52 536.24 533.52Z" fill="#f6f4ef"></path>
    <path d="M67.15 593.98L65.28 593.98L71.65 577.06L73.52 577.06L67.15 593.98Z M78.95 593.98L77.08 593.98L83.45 577.06L85.32 577.06L78.95 593.98Z  M108.72 592L105.79 592Q104.51 592 103.76 591.26Q103.02 590.52 103.02 589.30L103.02 589.30L103.02 583.72L100.19 583.72L100.19 582.10L103.02 582.10L103.02 579.31L104.80 579.31L104.80 582.10L108.81 582.10L108.81 583.72L104.80 583.72L104.80 589.28Q104.80 589.77 105.08 590.07Q105.36 590.38 105.83 590.38L105.83 590.38L108.72 590.38L108.72 592Z M114.93 592L113.14 592L113.14 582.10L114.91 582.10L114.91 584.01L114.93 584.01Q115.07 583.04 115.76 582.48Q116.46 581.92 117.61 581.92L117.61 581.92Q119.14 581.92 119.98 582.87Q120.83 583.81 120.83 585.52L120.83 585.52L120.83 586.38L119.05 586.38L119.05 585.54Q119.05 583.47 117.01 583.47L117.01 583.47Q115.99 583.47 115.46 584.06Q114.93 584.66 114.93 585.75L114.93 585.75L114.93 592Z M127.48 592.18L127.48 592.18Q125.95 592.18 125.06 591.33Q124.17 590.47 124.17 589.08L124.17 589.08Q124.17 587.70 125.10 586.85Q126.02 586.01 127.54 586.01L127.54 586.01L130.43 586.01L130.43 585.25Q130.43 583.43 128.42 583.43L128.42 583.43Q127.52 583.43 126.97 583.76Q126.42 584.10 126.38 584.69L126.38 584.69L124.62 584.69Q124.71 583.49 125.72 582.70Q126.73 581.92 128.42 581.92L128.42 581.92Q130.24 581.92 131.23 582.78Q132.22 583.65 132.22 585.21L132.22 585.21L132.22 592L130.47 592L130.47 590.18L130.43 590.18Q130.31 591.10 129.52 591.64Q128.74 592.18 127.48 592.18ZM127.95 590.69L127.95 590.69Q129.08 590.69 129.76 590.14Q130.43 589.59 130.43 588.63L130.43 588.63L130.43 587.32L127.70 587.32Q126.92 587.32 126.45 587.78Q125.97 588.24 125.97 588.99L125.97 588.99Q125.97 589.77 126.49 590.23Q127.01 590.69 127.95 590.69Z M144.81 592L136.29 592L136.29 590.38L139.77 590.38L139.77 583.72L136.65 583.72L136.65 582.10L141.55 582.10L141.55 590.38L144.81 590.38L144.81 592ZM140.49 580.35L140.49 580.35Q139.88 580.35 139.52 580.04Q139.16 579.72 139.16 579.18L139.16 579.18Q139.16 578.63 139.52 578.30Q139.88 577.98 140.49 577.98L140.49 577.98Q141.10 577.98 141.46 578.30Q141.82 578.63 141.82 579.18L141.82 579.18Q141.82 579.72 141.46 580.04Q141.10 580.35 140.49 580.35Z M149.97 592L148.18 592L148.18 582.10L149.95 582.10L149.95 583.99L149.97 583.99Q150.09 583.02 150.78 582.47Q151.48 581.92 152.61 581.92L152.61 581.92Q154.09 581.92 154.97 582.86Q155.85 583.79 155.85 585.38L155.85 585.38L155.85 592L154.07 592L154.07 585.66Q154.07 584.58 153.53 584.01Q152.99 583.43 152.05 583.43L152.05 583.43Q151.08 583.43 150.52 584.03Q149.97 584.64 149.97 585.72L149.97 585.72L149.97 592Z  M175.60 587.34L175.60 587.34Q174.92 587.34 174.49 586.92Q174.07 586.51 174.07 585.86L174.07 585.86Q174.07 585.18 174.49 584.75Q174.92 584.31 175.60 584.31L175.60 584.31Q176.28 584.31 176.71 584.75Q177.13 585.18 177.13 585.86L177.13 585.86Q177.13 586.51 176.71 586.92Q176.28 587.34 175.60 587.34Z  M203.12 592L200.19 592Q198.91 592 198.17 591.26Q197.42 590.52 197.42 589.30L197.42 589.30L197.42 583.72L194.59 583.72L194.59 582.10L197.42 582.10L197.42 579.31L199.20 579.31L199.20 582.10L203.21 582.10L203.21 583.72L199.20 583.72L199.20 589.28Q199.20 589.77 199.48 590.07Q199.76 590.38 200.23 590.38L200.23 590.38L203.12 590.38L203.12 592Z M209.33 592L207.54 592L207.54 582.10L209.31 582.10L209.31 584.01L209.33 584.01Q209.47 583.04 210.16 582.48Q210.86 581.92 212.01 581.92L212.01 581.92Q213.54 581.92 214.38 582.87Q215.23 583.81 215.23 585.52L215.23 585.52L215.23 586.38L213.45 586.38L213.45 585.54Q213.45 583.47 211.41 583.47L211.41 583.47Q210.39 583.47 209.86 584.06Q209.33 584.66 209.33 585.75L209.33 585.75L209.33 592Z M221.88 592.18L221.88 592.18Q220.35 592.18 219.46 591.33Q218.57 590.47 218.57 589.08L218.57 589.08Q218.57 587.70 219.50 586.85Q220.42 586.01 221.94 586.01L221.94 586.01L224.83 586.01L224.83 585.25Q224.83 583.43 222.82 583.43L222.82 583.43Q221.92 583.43 221.37 583.76Q220.82 584.10 220.78 584.69L220.78 584.69L219.02 584.69Q219.11 583.49 220.12 582.70Q221.13 581.92 222.82 581.92L222.82 581.92Q224.64 581.92 225.63 582.78Q226.62 583.65 226.62 585.21L226.62 585.21L226.62 592L224.87 592L224.87 590.18L224.83 590.18Q224.71 591.10 223.93 591.64Q223.14 592.18 221.88 592.18ZM222.35 590.69L222.35 590.69Q223.48 590.69 224.16 590.14Q224.83 589.59 224.83 588.63L224.83 588.63L224.83 587.32L222.10 587.32Q221.32 587.32 220.85 587.78Q220.37 588.24 220.37 588.99L220.37 588.99Q220.37 589.77 220.89 590.23Q221.41 590.69 222.35 590.69Z M234.74 592.18L234.74 592.18Q232.93 592.18 231.83 591.16Q230.73 590.15 230.73 588.36L230.73 588.36L230.73 585.72Q230.73 583.95 231.83 582.94Q232.93 581.92 234.74 581.92L234.74 581.92Q236.49 581.92 237.56 582.85Q238.63 583.77 238.69 585.38L238.69 585.38L236.92 585.38Q236.87 584.48 236.28 583.98Q235.70 583.49 234.74 583.49L234.74 583.49Q233.72 583.49 233.12 584.07Q232.51 584.66 232.51 585.72L232.51 585.72L232.51 588.36Q232.51 589.44 233.12 590.02Q233.72 590.60 234.74 590.60L234.74 590.60Q235.72 590.60 236.29 590.11Q236.87 589.62 236.92 588.72L236.92 588.72L238.69 588.72Q238.63 590.33 237.56 591.25Q236.49 592.18 234.74 592.18Z M244.46 592L242.67 592L242.67 578.86L244.46 578.86L244.46 586.13L246.27 586.13L248.94 582.10L250.95 582.10L247.84 586.83L251.12 592L249.06 592L246.29 587.66L244.46 587.66L244.46 592Z  M270.00 587.34L270.00 587.34Q269.32 587.34 268.89 586.92Q268.47 586.51 268.47 585.86L268.47 585.86Q268.47 585.18 268.89 584.75Q269.32 584.31 270.00 584.31L270.00 584.31Q270.68 584.31 271.11 584.75Q271.53 585.18 271.53 585.86L271.53 585.86Q271.53 586.51 271.11 586.92Q270.68 587.34 270.00 587.34Z  M293.74 592.18L293.74 592.18Q291.93 592.18 290.83 591.16Q289.73 590.15 289.73 588.36L289.73 588.36L289.73 585.72Q289.73 583.95 290.83 582.94Q291.93 581.92 293.74 581.92L293.74 581.92Q295.49 581.92 296.56 582.85Q297.63 583.77 297.69 585.38L297.69 585.38L295.92 585.38Q295.87 584.48 295.28 583.98Q294.70 583.49 293.74 583.49L293.74 583.49Q292.72 583.49 292.12 584.07Q291.51 584.66 291.51 585.72L291.51 585.72L291.51 588.36Q291.51 589.44 292.12 590.02Q292.72 590.60 293.74 590.60L293.74 590.60Q294.72 590.60 295.29 590.11Q295.87 589.62 295.92 588.72L295.92 588.72L297.69 588.72Q297.63 590.33 296.56 591.25Q295.49 592.18 293.74 592.18Z M305.40 592.14L305.40 592.14Q303.58 592.14 302.51 591.10Q301.44 590.06 301.44 588.18L301.44 588.18L301.44 585.92Q301.44 584.04 302.51 583Q303.58 581.96 305.40 581.96L305.40 581.96Q307.22 581.96 308.29 583Q309.36 584.04 309.36 585.92L309.36 585.92L309.36 588.18Q309.36 590.06 308.29 591.10Q307.22 592.14 305.40 592.14ZM305.40 590.58L305.40 590.58Q306.41 590.58 306.99 590.01Q307.58 589.44 307.58 588.35L307.58 588.35L307.58 585.75Q307.58 584.66 306.99 584.09Q306.41 583.52 305.40 583.52L305.40 583.52Q304.39 583.52 303.81 584.09Q303.22 584.66 303.22 585.75L303.22 585.75L303.22 588.35Q303.22 589.44 303.81 590.01Q304.39 590.58 305.40 590.58Z M315.17 592L313.38 592L313.38 582.10L315.15 582.10L315.15 583.99L315.17 583.99Q315.29 583.02 315.99 582.47Q316.68 581.92 317.81 581.92L317.81 581.92Q319.29 581.92 320.17 582.86Q321.05 583.79 321.05 585.38L321.05 585.38L321.05 592L319.27 592L319.27 585.66Q319.27 584.58 318.73 584.01Q318.19 583.43 317.25 583.43L317.25 583.43Q316.28 583.43 315.72 584.03Q315.17 584.64 315.17 585.72L315.17 585.72L315.17 592Z M332.82 595.24L331.03 595.24L331.03 592.38L331.07 590.13L331.03 590.13Q330.85 591.08 330.14 591.63Q329.43 592.18 328.35 592.18L328.35 592.18Q326.86 592.18 325.98 591.18Q325.09 590.18 325.09 588.45L325.09 588.45L325.09 585.63Q325.09 583.92 325.98 582.92Q326.86 581.92 328.35 581.92L328.35 581.92Q329.45 581.92 330.17 582.48Q330.89 583.04 331.05 584.01L331.05 584.01L331.05 584.01L331.05 582.10L332.82 582.10L332.82 595.24ZM328.96 590.63L328.96 590.63Q329.92 590.63 330.48 590.04Q331.03 589.44 331.03 588.36L331.03 588.36L331.03 585.74Q331.03 584.66 330.48 584.06Q329.92 583.47 328.96 583.47L328.96 583.47Q327.97 583.47 327.43 583.97Q326.88 584.48 326.88 585.57L326.88 585.57L326.88 588.53Q326.88 589.62 327.43 590.13Q327.97 590.63 328.96 590.63Z M340.78 592.18L340.78 592.18Q339.04 592.18 337.99 591.15Q336.95 590.13 336.95 588.36L336.95 588.36L336.95 582.10L338.73 582.10L338.73 588.36Q338.73 589.41 339.28 590.01Q339.83 590.61 340.78 590.61L340.78 590.61Q341.75 590.61 342.31 590.01Q342.87 589.41 342.87 588.36L342.87 588.36L342.87 582.10L344.65 582.10L344.65 588.36Q344.65 590.13 343.60 591.15Q342.55 592.18 340.78 592.18Z M352.60 592.18L352.60 592.18Q350.82 592.18 349.73 591.12Q348.64 590.06 348.64 588.22L348.64 588.22L348.64 585.88Q348.64 584.04 349.73 582.98Q350.82 581.92 352.60 581.92L352.60 581.92Q353.79 581.92 354.68 582.40Q355.57 582.87 356.07 583.73Q356.56 584.58 356.56 585.72L356.56 585.72L356.56 587.50L350.39 587.50L350.39 588.36Q350.39 589.44 350.98 590.06Q351.57 590.67 352.60 590.67L352.60 590.67Q353.46 590.67 354.02 590.34Q354.58 590.02 354.69 589.44L354.69 589.44L356.47 589.44Q356.29 590.70 355.23 591.44Q354.17 592.18 352.60 592.18ZM350.39 585.72L350.39 585.72L350.39 586.19L354.81 586.19L354.81 585.72Q354.81 584.58 354.24 583.97Q353.66 583.36 352.60 583.36L352.60 583.36Q351.54 583.36 350.96 583.97Q350.39 584.58 350.39 585.72Z M362.73 592L360.94 592L360.94 582.10L362.71 582.10L362.71 584.01L362.73 584.01Q362.87 583.04 363.56 582.48Q364.26 581.92 365.41 581.92L365.41 581.92Q366.94 581.92 367.78 582.87Q368.63 583.81 368.63 585.52L368.63 585.52L368.63 586.38L366.85 586.38L366.85 585.54Q366.85 583.47 364.81 583.47L364.81 583.47Q363.79 583.47 363.26 584.06Q362.73 584.66 362.73 585.75L362.73 585.75L362.73 592Z" fill="#c4ccd6"></path>
    
    <rect x="64" y="766" width="469" height="174" rx="6" fill="#f6f4ef" stroke="rgba(0,0,0,0.06)"></rect>
    <rect x="64" y="766" width="6" height="174" fill="url(#ticketBar)"></rect>
    <rect x="92" y="798" width="18" height="1" fill="#6B7785"></rect>
    <path d="M121.30 802.11L121.30 802.11Q120.52 802.11 119.95 801.81Q119.38 801.52 119.06 800.98Q118.75 800.44 118.75 799.71L118.75 799.71L118.75 796.26Q118.75 795.53 119.06 794.99Q119.38 794.45 119.95 794.16Q120.52 793.86 121.30 793.86L121.30 793.86Q122.08 793.86 122.65 794.16Q123.22 794.45 123.54 794.99Q123.85 795.53 123.85 796.26L123.85 796.26L123.85 799.71Q123.85 800.44 123.54 800.98Q123.22 801.52 122.65 801.81Q122.08 802.11 121.30 802.11ZM121.30 800.92L121.30 800.92Q121.87 800.92 122.21 800.59Q122.55 800.26 122.55 799.71L122.55 799.71L122.55 796.26Q122.55 795.71 122.22 795.38Q121.88 795.05 121.30 795.05L121.30 795.05Q120.72 795.05 120.38 795.38Q120.05 795.71 120.05 796.26L120.05 796.26L120.05 799.71Q120.05 800.26 120.39 800.59Q120.73 800.92 121.30 800.92ZM121.30 798.64L121.30 798.64Q120.97 798.64 120.77 798.46Q120.57 798.28 120.57 797.95L120.57 797.95Q120.57 797.62 120.77 797.45Q120.97 797.28 121.30 797.28L121.30 797.28Q121.63 797.28 121.83 797.45Q122.03 797.62 122.03 797.95L122.03 797.95Q122.03 798.28 121.83 798.46Q121.63 798.64 121.30 798.64Z M132.67 802L127.52 802L127.52 800.76L129.61 800.76L129.61 795.30L127.51 796.84L127.51 795.30L129.36 793.97L130.99 793.97L130.99 800.76L132.67 800.76L132.67 802Z  M150.40 799.01L143.80 799.01L143.80 797.73L150.40 797.73L150.40 799.01Z  M162.79 802L161.38 802L163.41 793.97L165.18 793.97L167.21 802L165.81 802L165.37 800.05L163.23 800.05L162.79 802ZM163.97 796.76L163.49 798.93L165.11 798.93L164.63 796.77Q164.51 796.24 164.42 795.80Q164.33 795.37 164.30 795.17L164.30 795.17Q164.27 795.37 164.18 795.80Q164.09 796.24 163.97 796.76L163.97 796.76Z M171.82 802L170.45 802L170.45 793.97L173.12 793.97Q173.92 793.97 174.52 794.28Q175.12 794.59 175.45 795.14Q175.78 795.70 175.78 796.45L175.78 796.45Q175.78 797.19 175.45 797.75Q175.12 798.30 174.52 798.61Q173.92 798.92 173.12 798.92L173.12 798.92L171.82 798.92L171.82 802ZM171.82 795.18L171.82 797.71L173.12 797.71Q173.70 797.71 174.04 797.36Q174.38 797.01 174.38 796.45L174.38 796.45Q174.38 795.88 174.04 795.53Q173.70 795.18 173.12 795.18L173.12 795.18L171.82 795.18Z M180.42 802L179.05 802L179.05 793.97L181.72 793.97Q182.52 793.97 183.12 794.28Q183.72 794.59 184.05 795.14Q184.38 795.70 184.38 796.45L184.38 796.45Q184.38 797.19 184.05 797.75Q183.72 798.30 183.12 798.61Q182.52 798.92 181.72 798.92L181.72 798.92L180.42 798.92L180.42 802ZM180.42 795.18L180.42 797.71L181.72 797.71Q182.30 797.71 182.64 797.36Q182.98 797.01 182.98 796.45L182.98 796.45Q182.98 795.88 182.64 795.53Q182.30 795.18 181.72 795.18L181.72 795.18L180.42 795.18Z M192.92 802L188.13 802L188.13 793.97L189.51 793.97L189.51 800.76L192.92 800.76L192.92 802Z M201.19 802L196.37 802L196.37 793.97L201.19 793.97L201.19 795.18L197.72 795.18L197.72 797.27L200.80 797.27L200.80 798.44L197.72 798.44L197.72 800.79L201.19 800.79L201.19 802Z" fill="#6B7785"></path>
    <path d="M96.55 861.67L90.08 861.67L101.67 843.47L107.70 843.47L112.02 861.67L105.91 861.67L105.31 858.49L98.37 858.49L96.55 861.67ZM103.57 849.42L100.89 854.07L104.45 854.07L103.57 849.42Z M122.57 861.93L122.57 861.93Q121.27 861.93 120.22 861.52Q119.16 861.12 118.51 860.16L118.51 860.16L117.19 866.71L111.31 866.71L115.16 847.44L120.70 847.44L120.44 848.74Q122.02 847.18 124.29 847.18L124.29 847.18Q125.72 847.18 127.06 847.95Q128.39 848.72 129.27 850.17Q130.14 851.63 130.14 853.76L130.14 853.76Q130.14 855.50 129.54 857.00Q128.94 858.49 127.89 859.60Q126.83 860.70 125.47 861.32Q124.10 861.93 122.57 861.93ZM121.61 857.30L121.61 857.30Q122.75 857.30 123.47 856.41Q124.18 855.53 124.18 854.05L124.18 854.05Q124.18 853.06 123.62 852.44Q123.06 851.81 122.08 851.81L122.08 851.81Q120.93 851.81 120.22 852.70Q119.50 853.58 119.50 855.06L119.50 855.06Q119.50 856.05 120.06 856.67Q120.62 857.30 121.61 857.30Z M140.27 861.93L140.27 861.93Q138.97 861.93 137.92 861.52Q136.86 861.12 136.21 860.16L136.21 860.16L134.89 866.71L129.01 866.71L132.86 847.44L138.40 847.44L138.14 848.74Q139.72 847.18 141.99 847.18L141.99 847.18Q143.42 847.18 144.75 847.95Q146.09 848.72 146.97 850.17Q147.84 851.63 147.84 853.76L147.84 853.76Q147.84 855.50 147.24 857.00Q146.64 858.49 145.59 859.60Q144.53 860.70 143.17 861.32Q141.80 861.93 140.27 861.93ZM139.31 857.30L139.31 857.30Q140.45 857.30 141.17 856.41Q141.88 855.53 141.88 854.05L141.88 854.05Q141.88 853.06 141.32 852.44Q140.76 851.81 139.78 851.81L139.78 851.81Q138.63 851.81 137.92 852.70Q137.20 853.58 137.20 855.06L137.20 855.06Q137.20 856.05 137.76 856.67Q138.32 857.30 139.31 857.30Z  M162.44 862.08L162.44 862.08Q159.99 862.08 157.93 861.56Q155.86 861.04 154.56 860.24L154.56 860.24L156.92 855.71Q158.46 856.60 160.00 857.00Q161.55 857.40 163.06 857.40L163.06 857.40Q164.26 857.40 164.87 857.12Q165.48 856.83 165.48 856.34L165.48 856.34Q165.48 855.84 164.85 855.57Q164.23 855.30 163.24 855.06Q162.25 854.83 161.15 854.50Q160.04 854.18 159.06 853.65Q158.07 853.11 157.44 852.20Q156.82 851.29 156.82 849.89L156.82 849.89Q156.82 847.81 157.93 846.27Q159.03 844.74 161.10 843.90Q163.16 843.05 166.02 843.05L166.02 843.05Q168.05 843.05 169.81 843.45Q171.56 843.86 172.84 844.61L172.84 844.61L170.63 849.08Q169.53 848.41 168.25 848.07Q166.96 847.73 165.63 847.73L165.63 847.73Q164.28 847.73 163.62 848.11Q162.96 848.48 162.96 848.95L162.96 848.95Q162.96 849.45 163.58 849.73Q164.20 850.02 165.19 850.24Q166.18 850.46 167.30 850.77Q168.42 851.08 169.40 851.60Q170.39 852.12 171.02 853.01Q171.64 853.89 171.64 855.30L171.64 855.30Q171.64 857.32 170.52 858.85Q169.40 860.37 167.34 861.22Q165.27 862.08 162.44 862.08Z M178.42 861.93L178.42 861.93Q176.60 861.93 175.33 861.25Q174.05 860.57 173.53 859.26Q173.01 857.95 173.38 856.10L173.38 856.10L174.26 851.73L172.28 851.73L173.14 847.44L175.09 847.44L175.74 844.25L181.62 844.25L180.97 847.44L183.88 847.44L183.02 851.73L180.11 851.73L179.25 856.08Q179.12 856.80 179.41 857.14Q179.69 857.48 180.29 857.48L180.29 857.48Q180.66 857.48 180.96 857.39Q181.25 857.30 181.59 857.14L181.59 857.14L182.27 861.09Q181.46 861.54 180.46 861.73Q179.46 861.93 178.42 861.93Z M191.41 861.93L191.41 861.93Q189.07 861.93 187.33 861.11Q185.59 860.29 184.64 858.81Q183.69 857.32 183.69 855.35L183.69 855.35Q183.69 853.01 184.84 851.16Q185.98 849.32 187.98 848.25Q189.98 847.18 192.56 847.18L192.56 847.18Q194.92 847.18 196.65 848.00Q198.38 848.82 199.33 850.29Q200.28 851.76 200.28 853.76L200.28 853.76Q200.28 856.10 199.14 857.95Q197.99 859.79 196.00 860.86Q194.01 861.93 191.41 861.93ZM191.75 857.35L191.75 857.35Q192.90 857.35 193.61 856.45Q194.33 855.56 194.33 854.05L194.33 854.05Q194.33 853.14 193.78 852.45Q193.23 851.76 192.22 851.76L192.22 851.76Q191.08 851.76 190.36 852.66Q189.65 853.55 189.65 855.06L189.65 855.06Q189.65 856.08 190.21 856.71Q190.76 857.35 191.75 857.35Z M206.02 861.67L200.14 861.67L202.98 847.44L208.52 847.44L208.23 848.90Q209.14 847.99 210.43 847.59Q211.71 847.18 213.22 847.18L213.22 847.18L212.18 852.38Q211.53 852.28 210.91 852.28L210.91 852.28Q209.45 852.28 208.56 852.93Q207.66 853.58 207.35 855.09L207.35 855.09L206.02 861.67Z M219.98 861.93L219.98 861.93Q217.64 861.93 215.88 861.12Q214.13 860.31 213.14 858.83Q212.15 857.35 212.15 855.35L212.15 855.35Q212.15 853.01 213.24 851.16Q214.33 849.32 216.32 848.25Q218.31 847.18 220.96 847.18L220.96 847.18Q223.25 847.18 224.86 847.99Q226.48 848.80 227.33 850.20Q228.19 851.60 228.19 853.45L228.19 853.45Q228.19 854.10 228.10 854.72Q228.01 855.35 227.88 855.92L227.88 855.92L217.92 855.92Q218.10 856.80 218.79 857.19Q219.48 857.58 220.65 857.58L220.65 857.58Q221.46 857.58 222.26 857.34Q223.07 857.09 223.75 856.60L223.75 856.60L226.19 860.16Q224.73 861.15 223.16 861.54Q221.59 861.93 219.98 861.93ZM218.16 853.09L218.16 853.09L222.81 853.09Q222.81 852.20 222.22 851.70Q221.64 851.19 220.70 851.19L220.70 851.19Q219.69 851.19 219.08 851.72Q218.47 852.25 218.16 853.09Z" fill="#070E14"></path>
    <path d="M95.04 887.77L95.04 887.77Q93.96 887.77 93.32 887.20Q92.68 886.64 92.68 885.65L92.68 885.65L93.67 885.65Q93.67 886.23 94.04 886.56Q94.41 886.89 95.04 886.89L95.04 886.89Q95.64 886.89 96.00 886.55Q96.35 886.22 96.35 885.66L96.35 885.66Q96.35 885.24 96.12 884.92Q95.89 884.61 95.47 884.50L95.47 884.50L94.39 884.21Q93.68 884.01 93.27 883.48Q92.85 882.96 92.85 882.24L92.85 882.24Q92.85 881.65 93.11 881.20Q93.38 880.76 93.86 880.51Q94.34 880.27 94.97 880.27L94.97 880.27Q95.61 880.27 96.09 880.51Q96.58 880.76 96.85 881.20Q97.12 881.64 97.12 882.22L97.12 882.22L96.14 882.22Q96.14 881.74 95.81 881.44Q95.49 881.14 94.97 881.14L94.97 881.14Q94.45 881.14 94.14 881.44Q93.82 881.74 93.82 882.22L93.82 882.22Q93.82 882.61 94.03 882.87Q94.24 883.14 94.62 883.25L94.62 883.25L95.73 883.55Q96.48 883.75 96.90 884.31Q97.32 884.88 97.32 885.66L97.32 885.66Q97.32 886.30 97.04 886.77Q96.76 887.25 96.25 887.51Q95.73 887.77 95.04 887.77Z M102.58 887.77L102.58 887.77Q101.57 887.77 100.97 887.20Q100.38 886.64 100.38 885.65L100.38 885.65L100.38 882.38Q100.38 881.40 100.97 880.83Q101.57 880.27 102.58 880.27L102.58 880.27Q103.58 880.27 104.17 880.84Q104.77 881.41 104.77 882.38L104.77 882.38L103.78 882.38Q103.78 881.79 103.46 881.47Q103.14 881.15 102.58 881.15L102.58 881.15Q102.01 881.15 101.69 881.47Q101.37 881.79 101.37 882.38L101.37 882.38L101.37 885.65Q101.37 886.25 101.69 886.57Q102.01 886.89 102.58 886.89L102.58 886.89Q103.14 886.89 103.46 886.57Q103.78 886.25 103.78 885.65L103.78 885.65L104.77 885.65Q104.77 886.63 104.17 887.20Q103.58 887.77 102.58 887.77Z M108.47 887.67L107.46 887.67L109.35 880.37L110.66 880.37L112.54 887.67L111.53 887.67L111.07 885.77L108.93 885.77L108.47 887.67ZM109.66 882.76L109.12 884.95L110.87 884.95L110.34 882.77Q110.20 882.17 110.11 881.75Q110.02 881.33 110 881.18L110 881.18Q109.98 881.33 109.89 881.75Q109.80 882.17 109.66 882.76L109.66 882.76Z M116.29 887.67L115.36 887.67L115.36 880.37L116.64 880.37L118.82 886.53Q118.79 886.27 118.77 885.88Q118.74 885.50 118.72 885.08Q118.71 884.67 118.71 884.30L118.71 884.30L118.71 880.37L119.65 880.37L119.65 887.67L118.36 887.67L116.19 881.51Q116.22 881.77 116.24 882.14Q116.26 882.52 116.28 882.93Q116.29 883.34 116.29 883.70L116.29 883.70L116.29 887.67Z" fill="#6B7785"></path>
    <image x="401" y="798" width="110" height="110"></image>
  
    <rect x="547" y="766" width="469" height="174" rx="6" fill="#f6f4ef" stroke="rgba(0,0,0,0.06)"></rect>
    <rect x="547" y="766" width="6" height="174" fill="url(#ticketBar)"></rect>
    <rect x="575" y="798" width="18" height="1" fill="#6B7785"></rect>
    <path d="M604.30 802.11L604.30 802.11Q603.52 802.11 602.95 801.81Q602.38 801.52 602.06 800.98Q601.75 800.44 601.75 799.71L601.75 799.71L601.75 796.26Q601.75 795.53 602.06 794.99Q602.38 794.45 602.95 794.16Q603.52 793.86 604.30 793.86L604.30 793.86Q605.08 793.86 605.65 794.16Q606.23 794.45 606.54 794.99Q606.85 795.53 606.85 796.26L606.85 796.26L606.85 799.71Q606.85 800.44 606.54 800.98Q606.23 801.52 605.65 801.81Q605.08 802.11 604.30 802.11ZM604.30 800.92L604.30 800.92Q604.87 800.92 605.21 800.59Q605.55 800.26 605.55 799.71L605.55 799.71L605.55 796.26Q605.55 795.71 605.22 795.38Q604.88 795.05 604.30 795.05L604.30 795.05Q603.72 795.05 603.38 795.38Q603.05 795.71 603.05 796.26L603.05 796.26L603.05 799.71Q603.05 800.26 603.39 800.59Q603.73 800.92 604.30 800.92ZM604.30 798.64L604.30 798.64Q603.97 798.64 603.77 798.46Q603.57 798.28 603.57 797.95L603.57 797.95Q603.57 797.62 603.77 797.45Q603.97 797.28 604.30 797.28L604.30 797.28Q604.63 797.28 604.83 797.45Q605.03 797.62 605.03 797.95L605.03 797.95Q605.03 798.28 604.83 798.46Q604.63 798.64 604.30 798.64Z M615.52 802L610.41 802L610.41 800.76L613.31 797.80Q614.01 797.06 614.01 796.30L614.01 796.30Q614.01 795.76 613.70 795.43Q613.38 795.09 612.86 795.09L612.86 795.09Q612.32 795.09 611.99 795.44Q611.67 795.78 611.67 796.36L611.67 796.36L610.29 796.36Q610.29 795.61 610.62 795.05Q610.95 794.49 611.54 794.17Q612.12 793.86 612.89 793.86L612.89 793.86Q613.65 793.86 614.22 794.16Q614.79 794.45 615.11 794.99Q615.42 795.52 615.42 796.24L615.42 796.24Q615.42 796.85 615.13 797.47Q614.84 798.08 614.17 798.74L614.17 798.74L612.14 800.76L615.52 800.76L615.52 802Z  M633.40 799.01L626.80 799.01L626.80 797.73L633.40 797.73L633.40 799.01Z  M645.79 802L644.39 802L646.41 793.97L648.18 793.97L650.22 802L648.81 802L648.37 800.05L646.23 800.05L645.79 802ZM646.97 796.76L646.49 798.93L648.11 798.93L647.63 796.77Q647.51 796.24 647.42 795.80Q647.33 795.37 647.30 795.17L647.30 795.17Q647.27 795.37 647.18 795.80Q647.09 796.24 646.97 796.76L646.97 796.76Z M654.65 802L653.39 802L653.39 793.97L655.08 793.97L657.31 800.46Q657.28 800.11 657.24 799.63Q657.21 799.15 657.18 798.66Q657.15 798.16 657.15 797.78L657.15 797.78L657.15 793.97L658.41 793.97L658.41 802L656.73 802L654.51 795.51Q654.54 795.83 654.57 796.28Q654.60 796.73 654.62 797.20Q654.65 797.68 654.65 798.07L654.65 798.07L654.65 802Z M664.41 802L662.03 802L662.03 793.97L664.41 793.97Q665.23 793.97 665.83 794.28Q666.43 794.60 666.76 795.16Q667.09 795.72 667.09 796.48L667.09 796.48L667.09 799.48Q667.09 800.24 666.76 800.81Q666.43 801.37 665.83 801.69Q665.23 802 664.41 802L664.41 802ZM663.40 795.20L663.40 800.77L664.41 800.77Q665.01 800.77 665.36 800.42Q665.71 800.08 665.71 799.48L665.71 799.48L665.71 796.48Q665.71 795.89 665.36 795.55Q665.01 795.20 664.41 795.20L664.41 795.20L663.40 795.20Z M672.01 802L670.65 802L670.65 793.97L673.18 793.97Q673.98 793.97 674.57 794.27Q675.16 794.56 675.49 795.10Q675.82 795.63 675.82 796.36L675.82 796.36Q675.82 797.16 675.42 797.76Q675.03 798.36 674.35 798.61L674.35 798.61L675.93 802L674.42 802L673.01 798.81L672.01 798.81L672.01 802ZM672.01 795.18L672.01 797.60L673.18 797.60Q673.76 797.60 674.09 797.28Q674.42 796.96 674.42 796.40L674.42 796.40Q674.42 795.84 674.08 795.51Q673.75 795.18 673.18 795.18L673.18 795.18L672.01 795.18Z M681.70 802.11L681.70 802.11Q680.55 802.11 679.87 801.45Q679.19 800.79 679.19 799.62L679.19 799.62L679.19 796.35Q679.19 795.18 679.87 794.52Q680.55 793.86 681.70 793.86L681.70 793.86Q682.86 793.86 683.53 794.52Q684.21 795.18 684.21 796.34L684.21 796.34L684.21 799.62Q684.21 800.79 683.53 801.45Q682.86 802.11 681.70 802.11ZM681.70 800.90L681.70 800.90Q682.26 800.90 682.55 800.60Q682.83 800.29 682.83 799.73L682.83 799.73L682.83 796.24Q682.83 795.67 682.55 795.37Q682.26 795.07 681.70 795.07L681.70 795.07Q681.14 795.07 680.85 795.37Q680.57 795.67 680.57 796.24L680.57 796.24L680.57 799.73Q680.57 800.29 680.85 800.60Q681.14 800.90 681.70 800.90Z M692.61 802L687.99 802L687.99 800.76L689.61 800.76L689.61 795.21L687.99 795.21L687.99 793.97L692.61 793.97L692.61 795.21L690.99 795.21L690.99 800.76L692.61 800.76L692.61 802Z M698.81 802L696.43 802L696.43 793.97L698.81 793.97Q699.63 793.97 700.23 794.28Q700.83 794.60 701.16 795.16Q701.49 795.72 701.49 796.48L701.49 796.48L701.49 799.48Q701.49 800.24 701.16 800.81Q700.83 801.37 700.23 801.69Q699.63 802 698.81 802L698.81 802ZM697.80 795.20L697.80 800.77L698.81 800.77Q699.41 800.77 699.76 800.42Q700.11 800.08 700.11 799.48L700.11 799.48L700.11 796.48Q700.11 795.89 699.76 795.55Q699.41 795.20 698.81 795.20L698.81 795.20L697.80 795.20Z" fill="#6B7785"></path>
    <path d="M585.40 862.08L585.40 862.08Q582.59 862.08 580.49 861.06Q578.38 860.03 577.22 858.20Q576.07 856.36 576.07 853.94L576.07 853.94Q576.07 851.55 576.91 849.55Q577.76 847.55 579.32 846.09Q580.88 844.64 583.02 843.84Q585.17 843.05 587.77 843.05L587.77 843.05Q590.63 843.05 592.69 843.95Q594.76 844.84 596.03 846.61L596.03 846.61L591.64 850.02Q590.76 848.87 589.77 848.45Q588.78 848.02 587.48 848.02L587.48 848.02Q585.89 848.02 584.71 848.72Q583.53 849.42 582.89 850.67Q582.25 851.92 582.25 853.55L582.25 853.55Q582.25 855.14 583.31 856.13Q584.36 857.12 586.26 857.12L586.26 857.12Q587.19 857.12 588.05 856.86L588.05 856.86L589.01 852.07L594.34 852.07L592.78 859.92Q591.35 860.96 589.46 861.52Q587.56 862.08 585.40 862.08Z M602.71 861.93L602.71 861.93Q600.37 861.93 598.63 861.11Q596.89 860.29 595.94 858.81Q594.99 857.32 594.99 855.35L594.99 855.35Q594.99 853.01 596.13 851.16Q597.28 849.32 599.28 848.25Q601.28 847.18 603.85 847.18L603.85 847.18Q606.22 847.18 607.95 848.00Q609.68 848.82 610.63 850.29Q611.58 851.76 611.58 853.76L611.58 853.76Q611.58 856.10 610.43 857.95Q609.29 859.79 607.30 860.86Q605.31 861.93 602.71 861.93ZM603.05 857.35L603.05 857.35Q604.19 857.35 604.91 856.45Q605.62 855.56 605.62 854.05L605.62 854.05Q605.62 853.14 605.08 852.45Q604.53 851.76 603.52 851.76L603.52 851.76Q602.37 851.76 601.66 852.66Q600.94 853.55 600.94 855.06L600.94 855.06Q600.94 856.08 601.50 856.71Q602.06 857.35 603.05 857.35Z M619.79 861.93L619.79 861.93Q617.45 861.93 615.70 861.11Q613.96 860.29 613.01 858.81Q612.06 857.32 612.06 855.35L612.06 855.35Q612.06 853.01 613.21 851.16Q614.35 849.32 616.35 848.25Q618.36 847.18 620.93 847.18L620.93 847.18Q623.30 847.18 625.03 848.00Q626.75 848.82 627.70 850.29Q628.65 851.76 628.65 853.76L628.65 853.76Q628.65 856.10 627.51 857.95Q626.36 859.79 624.38 860.86Q622.39 861.93 619.79 861.93ZM620.12 857.35L620.12 857.35Q621.27 857.35 621.98 856.45Q622.70 855.56 622.70 854.05L622.70 854.05Q622.70 853.14 622.15 852.45Q621.61 851.76 620.59 851.76L620.59 851.76Q619.45 851.76 618.73 852.66Q618.02 853.55 618.02 855.06L618.02 855.06Q618.02 856.08 618.58 856.71Q619.14 857.35 620.12 857.35Z M635.28 866.97L635.28 866.97Q630.91 866.97 628.23 865.20L628.23 865.20L630.73 861.20Q631.58 861.85 632.85 862.23Q634.11 862.60 635.38 862.60L635.38 862.60Q637.10 862.60 637.88 861.89Q638.66 861.17 638.92 859.90L638.92 859.90L638.99 859.53Q637.54 860.89 635.41 860.89L635.41 860.89Q633.85 860.89 632.44 860.16Q631.04 859.43 630.15 858.05Q629.27 856.67 629.27 854.75L629.27 854.75Q629.27 853.16 629.86 851.80Q630.44 850.43 631.49 849.39Q632.55 848.35 633.94 847.77Q635.33 847.18 636.91 847.18L636.91 847.18Q638.40 847.18 639.55 847.73Q640.71 848.28 641.26 849.60L641.26 849.60L641.26 849.60L641.67 847.44L647.26 847.44L645.00 858.81Q644.14 863.15 641.63 865.06Q639.12 866.97 635.28 866.97ZM637.28 856.28L637.28 856.28Q638.42 856.28 639.11 855.56Q639.80 854.83 639.80 853.63L639.80 853.63Q639.80 852.83 639.27 852.32Q638.73 851.81 637.75 851.81L637.75 851.81Q636.63 851.81 635.91 852.53Q635.20 853.24 635.20 854.46L635.20 854.46Q635.20 855.27 635.76 855.78Q636.32 856.28 637.28 856.28Z M652.38 861.67L646.50 861.67L650.35 842.37L656.23 842.37L652.38 861.67Z M662.95 861.93L662.95 861.93Q660.61 861.93 658.86 861.12Q657.10 860.31 656.12 858.83Q655.13 857.35 655.13 855.35L655.13 855.35Q655.13 853.01 656.22 851.16Q657.31 849.32 659.30 848.25Q661.29 847.18 663.94 847.18L663.94 847.18Q666.23 847.18 667.84 847.99Q669.45 848.80 670.31 850.20Q671.17 851.60 671.17 853.45L671.17 853.45Q671.17 854.10 671.08 854.72Q670.99 855.35 670.86 855.92L670.86 855.92L660.90 855.92Q661.08 856.80 661.77 857.19Q662.46 857.58 663.63 857.58L663.63 857.58Q664.44 857.58 665.24 857.34Q666.05 857.09 666.72 856.60L666.72 856.60L669.17 860.16Q667.71 861.15 666.14 861.54Q664.57 861.93 662.95 861.93ZM661.13 853.09L661.13 853.09L665.79 853.09Q665.79 852.20 665.20 851.70Q664.62 851.19 663.68 851.19L663.68 851.19Q662.67 851.19 662.06 851.72Q661.45 852.25 661.13 853.09Z  M684.44 861.67L678.31 861.67L681.95 843.47L690.03 843.47Q693.70 843.47 695.69 845.05Q697.68 846.64 697.68 849.50L697.68 849.50Q697.68 851.79 696.55 853.53Q695.42 855.27 693.35 856.23Q691.28 857.19 688.47 857.19L688.47 857.19L685.33 857.19L684.44 861.67ZM687.12 848.20L686.26 852.46L688.79 852.46Q690.06 852.46 690.76 851.83Q691.46 851.19 691.46 850.04L691.46 850.04Q691.46 849.06 690.85 848.63Q690.24 848.20 689.18 848.20L689.18 848.20L687.12 848.20Z M702.82 861.67L696.94 861.67L700.79 842.37L706.67 842.37L702.82 861.67Z M711.42 861.93L711.42 861.93Q710.02 861.93 708.66 861.16Q707.31 860.39 706.44 858.92Q705.57 857.45 705.57 855.35L705.57 855.35Q705.57 853.58 706.17 852.10Q706.77 850.62 707.82 849.51Q708.87 848.41 710.24 847.80Q711.60 847.18 713.14 847.18L713.14 847.18Q714.44 847.18 715.49 847.59Q716.54 847.99 717.19 848.95L717.19 848.95L717.50 847.44L723.38 847.44L720.55 861.67L715.01 861.67L715.27 860.37Q713.68 861.93 711.42 861.93ZM713.63 857.30L713.63 857.30Q714.77 857.30 715.49 856.41Q716.20 855.53 716.20 854.05L716.20 854.05Q716.20 853.06 715.64 852.44Q715.09 851.81 714.10 851.81L714.10 851.81Q712.95 851.81 712.24 852.70Q711.52 853.58 711.52 855.06L711.52 855.06Q711.52 856.05 712.08 856.67Q712.64 857.30 713.63 857.30Z M724.96 866.97L724.96 866.97Q723.79 866.97 722.63 866.63Q721.48 866.29 720.77 865.75L720.77 865.75L723.32 861.67Q723.76 862.00 724.31 862.21Q724.86 862.42 725.45 862.42L725.45 862.42Q726.34 862.42 726.91 861.82L726.91 861.82L723.79 847.44L729.64 847.44L731.10 855.09L735.57 847.44L741.31 847.44L732.58 861.95Q731.41 863.90 730.29 864.99Q729.17 866.09 727.88 866.53Q726.60 866.97 724.96 866.97Z" fill="#070E14"></path>
    <path d="M578.04 887.77L578.04 887.77Q576.96 887.77 576.32 887.20Q575.68 886.64 575.68 885.65L575.68 885.65L576.67 885.65Q576.67 886.23 577.04 886.56Q577.41 886.89 578.04 886.89L578.04 886.89Q578.64 886.89 579.00 886.55Q579.35 886.22 579.35 885.66L579.35 885.66Q579.35 885.24 579.12 884.92Q578.89 884.61 578.47 884.50L578.47 884.50L577.39 884.21Q576.68 884.01 576.26 883.48Q575.85 882.96 575.85 882.24L575.85 882.24Q575.85 881.65 576.12 881.20Q576.38 880.76 576.86 880.51Q577.34 880.27 577.97 880.27L577.97 880.27Q578.61 880.27 579.10 880.51Q579.58 880.76 579.85 881.20Q580.12 881.64 580.12 882.22L580.12 882.22L579.14 882.22Q579.14 881.74 578.82 881.44Q578.49 881.14 577.97 881.14L577.97 881.14Q577.45 881.14 577.13 881.44Q576.82 881.74 576.82 882.22L576.82 882.22Q576.82 882.61 577.03 882.87Q577.24 883.14 577.62 883.25L577.62 883.25L578.73 883.55Q579.48 883.75 579.90 884.31Q580.32 884.88 580.32 885.66L580.32 885.66Q580.32 886.30 580.04 886.77Q579.76 887.25 579.25 887.51Q578.73 887.77 578.04 887.77Z M585.58 887.77L585.58 887.77Q584.57 887.77 583.98 887.20Q583.38 886.64 583.38 885.65L583.38 885.65L583.38 882.38Q583.38 881.40 583.98 880.83Q584.57 880.27 585.58 880.27L585.58 880.27Q586.58 880.27 587.17 880.84Q587.77 881.41 587.77 882.38L587.77 882.38L586.78 882.38Q586.78 881.79 586.46 881.47Q586.14 881.15 585.58 881.15L585.58 881.15Q585.01 881.15 584.69 881.47Q584.37 881.79 584.37 882.38L584.37 882.38L584.37 885.65Q584.37 886.25 584.69 886.57Q585.01 886.89 585.58 886.89L585.58 886.89Q586.14 886.89 586.46 886.57Q586.78 886.25 586.78 885.65L586.78 885.65L587.77 885.65Q587.77 886.63 587.17 887.20Q586.58 887.77 585.58 887.77Z M591.47 887.67L590.46 887.67L592.35 880.37L593.66 880.37L595.54 887.67L594.53 887.67L594.07 885.77L591.93 885.77L591.47 887.67ZM592.66 882.76L592.12 884.95L593.87 884.95L593.34 882.77Q593.20 882.17 593.11 881.75Q593.02 881.33 593 881.18L593 881.18Q592.98 881.33 592.89 881.75Q592.80 882.17 592.66 882.76L592.66 882.76Z M599.29 887.67L598.36 887.67L598.36 880.37L599.64 880.37L601.82 886.53Q601.79 886.27 601.76 885.88Q601.74 885.50 601.73 885.08Q601.71 884.67 601.71 884.30L601.71 884.30L601.71 880.37L602.65 880.37L602.65 887.67L601.36 887.67L599.19 881.51Q599.22 881.77 599.24 882.14Q599.26 882.52 599.27 882.93Q599.29 883.34 599.29 883.70L599.29 883.70L599.29 887.67Z" fill="#6B7785"></path>
    <image x="884" y="798" width="110" height="110"></image>
  
    
    <image x="64" y="996" width="214.21487603305783" height="36"></image>
    <path d="M873.97 1016.50L872.88 1016.50L872.88 1008.47L875.49 1008.47Q876.26 1008.47 876.82 1008.77Q877.38 1009.06 877.69 1009.60Q878.00 1010.13 878.00 1010.87L878.00 1010.87Q878.00 1011.59 877.69 1012.13Q877.38 1012.66 876.82 1012.96Q876.25 1013.25 875.49 1013.25L875.49 1013.25L873.97 1013.25L873.97 1016.50ZM873.97 1009.44L873.97 1012.29L875.49 1012.29Q876.13 1012.29 876.50 1011.90Q876.88 1011.51 876.88 1010.87L876.88 1010.87Q876.88 1010.22 876.50 1009.83Q876.13 1009.44 875.49 1009.44L875.49 1009.44L873.97 1009.44Z M884.32 1016.61L884.32 1016.61Q883.22 1016.61 882.58 1015.97Q881.94 1015.33 881.94 1014.17L881.94 1014.17L881.94 1010.79Q881.94 1009.64 882.58 1009.00Q883.22 1008.36 884.32 1008.36L884.32 1008.36Q885.42 1008.36 886.05 1008.99Q886.69 1009.63 886.69 1010.79L886.69 1010.79L886.69 1014.17Q886.69 1015.33 886.05 1015.97Q885.42 1016.61 884.32 1016.61ZM884.32 1015.64L884.32 1015.64Q884.93 1015.64 885.27 1015.29Q885.60 1014.94 885.60 1014.28L885.60 1014.28L885.60 1010.68Q885.60 1010.03 885.27 1009.68Q884.94 1009.33 884.32 1009.33L884.32 1009.33Q883.69 1009.33 883.36 1009.68Q883.03 1010.03 883.03 1010.68L883.03 1010.68L883.03 1014.28Q883.03 1014.94 883.37 1015.29Q883.70 1015.64 884.32 1015.64Z M892.56 1016.50L891.25 1016.50L890.33 1008.47L891.29 1008.47L891.89 1014.32Q891.92 1014.67 891.95 1015.08Q891.98 1015.48 891.99 1015.73L891.99 1015.73Q892.01 1015.48 892.04 1015.08Q892.07 1014.67 892.13 1014.32L892.13 1014.32L892.90 1008.47L893.99 1008.47L894.70 1014.32Q894.74 1014.67 894.78 1015.08Q894.82 1015.48 894.86 1015.73L894.86 1015.73Q894.87 1015.48 894.90 1015.08Q894.93 1014.67 894.97 1014.32L894.97 1014.32L895.57 1008.47L896.52 1008.47L895.56 1016.50L894.24 1016.50L893.55 1010.56Q893.50 1010.20 893.48 1009.82Q893.45 1009.44 893.44 1009.21L893.44 1009.21Q893.41 1009.44 893.38 1009.82Q893.36 1010.20 893.32 1010.56L893.32 1010.56L892.56 1016.50Z M904.96 1016.50L900.28 1016.50L900.28 1008.47L904.96 1008.47L904.96 1009.45L901.36 1009.45L901.36 1011.84L904.57 1011.84L904.57 1012.78L901.36 1012.78L901.36 1015.52L904.96 1015.52L904.96 1016.50Z M910.37 1016.50L909.30 1016.50L909.30 1008.47L911.78 1008.47Q912.52 1008.47 913.07 1008.76Q913.62 1009.05 913.93 1009.58Q914.23 1010.10 914.23 1010.80L914.23 1010.80Q914.23 1011.62 913.82 1012.20Q913.41 1012.78 912.73 1013.02L912.73 1013.02L914.34 1016.50L913.15 1016.50L911.62 1013.14L910.37 1013.14L910.37 1016.50ZM910.37 1009.44L910.37 1012.18L911.78 1012.18Q912.40 1012.18 912.76 1011.80Q913.11 1011.43 913.11 1010.81L913.11 1010.81Q913.11 1010.19 912.75 1009.81Q912.39 1009.44 911.78 1009.44L911.78 1009.44L910.37 1009.44Z M923.16 1016.50L918.48 1016.50L918.48 1008.47L923.16 1008.47L923.16 1009.45L919.56 1009.45L919.56 1011.84L922.77 1011.84L922.77 1012.78L919.56 1012.78L919.56 1015.52L923.16 1015.52L923.16 1016.50Z M929.64 1016.50L927.48 1016.50L927.48 1008.47L929.64 1008.47Q930.42 1008.47 931.00 1008.77Q931.58 1009.08 931.90 1009.62Q932.21 1010.16 932.21 1010.90L932.21 1010.90L932.21 1014.06Q932.21 1014.79 931.90 1015.35Q931.58 1015.89 931.00 1016.20Q930.42 1016.50 929.64 1016.50L929.64 1016.50ZM928.57 1009.44L928.57 1015.53L929.64 1015.53Q930.33 1015.53 930.73 1015.14Q931.13 1014.74 931.13 1014.06L931.13 1014.06L931.13 1010.90Q931.13 1010.22 930.73 1009.83Q930.33 1009.44 929.64 1009.44L929.64 1009.44L928.57 1009.44Z  M948.17 1016.50L945.70 1016.50L945.70 1008.47L948.02 1008.47Q949.13 1008.47 949.77 1009.03Q950.41 1009.58 950.41 1010.55L950.41 1010.55Q950.41 1011.18 950.02 1011.67Q949.63 1012.15 949.02 1012.26L949.02 1012.26L949.02 1012.30Q949.48 1012.35 949.84 1012.63Q950.19 1012.90 950.40 1013.33Q950.60 1013.75 950.60 1014.26L950.60 1014.26Q950.60 1015.29 949.95 1015.89Q949.29 1016.50 948.17 1016.50L948.17 1016.50ZM946.76 1009.43L946.76 1011.86L948.01 1011.86Q948.62 1011.86 948.97 1011.53Q949.33 1011.21 949.33 1010.65L949.33 1010.65Q949.33 1010.08 948.97 1009.75Q948.62 1009.43 948.02 1009.43L948.02 1009.43L946.76 1009.43ZM946.76 1012.78L946.76 1015.54L948.07 1015.54Q948.74 1015.54 949.13 1015.19Q949.51 1014.83 949.51 1014.21L949.51 1014.21Q949.51 1013.57 949.13 1013.18Q948.74 1012.78 948.07 1012.78L948.07 1012.78L946.76 1012.78Z M957.67 1016.50L956.58 1016.50L956.58 1013.52L954.17 1008.47L955.32 1008.47L956.81 1011.64Q956.94 1011.92 957.02 1012.15Q957.11 1012.39 957.13 1012.49L957.13 1012.49Q957.16 1012.39 957.24 1012.15Q957.33 1011.92 957.47 1011.64L957.47 1011.64L958.94 1008.47L960.06 1008.47L957.67 1013.52L957.67 1016.50Z" fill="#8896a6"></path>
    <rect x="970.4166666666666" y="995" width="51.583333333333336" height="38" rx="4" fill="#fff"></rect>
    <image x="976.4166666666666" y="999" width="39.583333333333336" height="30"></image>
  
  </svg>