<svg xmlns="http://www.w3.org/2000/svg" width="1080" height="1920" viewBox="0 0 1080 1920">
    <defs>
    <radialGradient id="amb1" cx="0.75" cy="0.25" r="0.5"><stop offset="0%" stop-color="rgba(94,231,214,0.22)"></stop><stop offset="100%" stop-color="rgba(94,231,214,0)"></stop></radialGradient>
    <radialGradient id="amb2" cx="0.20" cy="0.90" r="0.45"><stop offset="0%" stop-color="rgba(14,143,136,0.18)"></stop><stop offset="100%" stop-color="rgba(14,143,136,0)"></stop></radialGradient>
    <linearGradient id="boltGrad" x1="0" y1="0" x2="1" y2="1"><stop offset="0%" stop-color="#5EE7D6"></stop><stop offset="55%" stop-color="#15B8AE"></stop><stop offset="100%" stop-color="#0E8F88"></stop></linearGradient>
    <linearGradient id="textGrad" x1="80" y1="387.6" x2="974.4199999999998" y2="537" gradientUnits="userSpaceOnUse"><stop offset="0%" stop-color="#5EE7D6"></stop><stop offset="50%" stop-color="#15B8AE"></stop><stop offset="100%" stop-color="#0E8F88"></stop></linearGradient>
    <linearGradient id="ticketBar" x1="0" y1="0" x2="0" y2="1"><stop offset="0%" stop-color="#5EE7D6"></stop><stop offset="100%" stop-color="#0E8F88"></stop></linearGradient>
  </defs>
    <rect width="1080" height="1920" fill="#070E14"></rect>
    <rect width="1080" height="1920" fill="url(#amb1)"></rect>
    <rect width="1080" height="1920" fill="url(#amb2)"></rect>
    <g transform="translate(900 1100) rotate(-6) translate(-475 -660)" opacity="0.95">
      <polygon points="88,0 20,84 56,84 32,160 100,76 64,76" fill="url(#boltGrad)" transform="scale(7.916666666666667 8.25)"></polygon>
    </g>
    <circle cx="84" cy="97" r="9" fill="rgba(94,231,214,0.18)"></circle><circle cx="84" cy="97" r="4" fill="#5EE7D6"></circle><path d="M104.33 100L103.12 100L103.12 90.51L104.78 90.51L107.62 98.52Q107.58 98.18 107.54 97.68Q107.51 97.18 107.49 96.64Q107.47 96.10 107.47 95.62L107.47 95.62L107.47 90.51L108.69 90.51L108.69 100L107.02 100L104.20 91.99Q104.24 92.33 104.26 92.82Q104.29 93.31 104.31 93.84Q104.33 94.37 104.33 94.84L104.33 94.84L104.33 100Z M115.20 100.13L115.20 100.13Q113.90 100.13 113.15 99.38Q112.39 98.62 112.39 97.24L112.39 97.24L112.39 93.25Q112.39 91.89 113.15 91.13Q113.90 90.38 115.20 90.38L115.20 90.38Q116.50 90.38 117.25 91.13Q118.01 91.88 118.01 93.25L118.01 93.25L118.01 97.24Q118.01 98.62 117.25 99.38Q116.50 100.13 115.20 100.13ZM115.20 98.99L115.20 98.99Q115.93 98.99 116.32 98.57Q116.72 98.15 116.72 97.37L116.72 97.37L116.72 93.12Q116.72 92.36 116.33 91.94Q115.94 91.52 115.20 91.52L115.20 91.52Q114.46 91.52 114.07 91.94Q113.68 92.36 113.68 93.12L113.68 93.12L113.68 97.37Q113.68 98.15 114.08 98.57Q114.47 98.99 115.20 98.99Z M123.49 100L121.94 100L120.85 90.51L121.99 90.51L122.69 97.43Q122.73 97.84 122.76 98.32Q122.80 98.79 122.81 99.09L122.81 99.09Q122.84 98.79 122.88 98.32Q122.91 97.84 122.98 97.43L122.98 97.43L123.89 90.51L125.18 90.51L126.02 97.43Q126.06 97.84 126.11 98.32Q126.16 98.79 126.20 99.09L126.20 99.09Q126.22 98.79 126.25 98.32Q126.29 97.84 126.33 97.43L126.33 97.43L127.05 90.51L128.17 90.51L127.03 100L125.47 100L124.66 92.98Q124.60 92.55 124.57 92.10Q124.54 91.65 124.53 91.38L124.53 91.38Q124.49 91.65 124.46 92.10Q124.43 92.55 124.38 92.98L124.38 92.98L123.49 100Z  M146.38 100L140.86 100L140.86 90.51L142.15 90.51L142.15 98.83L146.38 98.83L146.38 100Z M154.99 100L149.81 100L149.81 98.83L151.75 98.83L151.75 91.68L149.81 91.68L149.81 90.51L154.99 90.51L154.99 91.68L153.05 91.68L153.05 98.83L154.99 98.83L154.99 100Z M162.56 100L160.83 100L158.40 90.51L159.72 90.51L161.30 96.91Q161.45 97.52 161.56 98.08Q161.67 98.65 161.73 98.95L161.73 98.95Q161.77 98.65 161.89 98.08Q162.01 97.50 162.16 96.89L162.16 96.89L163.68 90.51L165.00 90.51L162.56 100Z M173.89 100L168.36 100L168.36 90.51L173.89 90.51L173.89 91.67L169.64 91.67L169.64 94.49L173.43 94.49L173.43 95.61L169.64 95.61L169.64 98.84L173.89 98.84L173.89 100Z" fill="#8896a6"></path><path d="M865.69 100L863.14 100L863.14 90.51L865.69 90.51Q866.62 90.51 867.30 90.87Q867.98 91.22 868.36 91.87Q868.73 92.51 868.73 93.38L868.73 93.38L868.73 97.11Q868.73 97.98 868.36 98.64Q867.98 99.28 867.30 99.64Q866.62 100 865.69 100L865.69 100ZM864.43 91.65L864.43 98.86L865.69 98.86Q866.51 98.86 866.98 98.39Q867.45 97.92 867.45 97.11L867.45 97.11L867.45 93.38Q867.45 92.58 866.98 92.12Q866.51 91.65 865.69 91.65L865.69 91.65L864.43 91.65Z M873.73 100L872.46 100L872.46 90.51L875.39 90.51Q876.27 90.51 876.92 90.85Q877.57 91.20 877.93 91.82Q878.29 92.43 878.29 93.27L878.29 93.27Q878.29 94.23 877.81 94.92Q877.32 95.61 876.51 95.89L876.51 95.89L878.42 100L877.01 100L875.20 96.03L873.73 96.03L873.73 100ZM873.73 91.65L873.73 94.89L875.39 94.89Q876.12 94.89 876.55 94.45Q876.97 94.01 876.97 93.28L876.97 93.28Q876.97 92.54 876.54 92.10Q876.11 91.65 875.39 91.65L875.39 91.65L873.73 91.65Z M884.50 100.13L884.50 100.13Q883.20 100.13 882.45 99.38Q881.69 98.62 881.69 97.24L881.69 97.24L881.69 93.25Q881.69 91.89 882.45 91.13Q883.20 90.38 884.50 90.38L884.50 90.38Q885.80 90.38 886.55 91.13Q887.31 91.88 887.31 93.25L887.31 93.25L887.31 97.24Q887.31 98.62 886.55 99.38Q885.80 100.13 884.50 100.13ZM884.50 98.99L884.50 98.99Q885.23 98.99 885.62 98.57Q886.02 98.15 886.02 97.37L886.02 97.37L886.02 93.12Q886.02 92.36 885.63 91.94Q885.24 91.52 884.50 91.52L884.50 91.52Q883.76 91.52 883.37 91.94Q882.98 92.36 882.98 93.12L882.98 93.12L882.98 97.37Q882.98 98.15 883.38 98.57Q883.77 98.99 884.50 98.99Z M892.33 100L891.04 100L891.04 90.51L894.12 90.51Q895.03 90.51 895.70 90.86Q896.36 91.21 896.72 91.84Q897.09 92.47 897.09 93.34L897.09 93.34Q897.09 94.20 896.72 94.83Q896.36 95.46 895.69 95.81Q895.02 96.17 894.12 96.17L894.12 96.17L892.33 96.17L892.33 100ZM892.33 91.65L892.33 95.02L894.12 95.02Q894.88 95.02 895.32 94.56Q895.76 94.10 895.76 93.34L895.76 93.34Q895.76 92.58 895.32 92.12Q894.88 91.65 894.12 91.65L894.12 91.65L892.33 91.65Z  M912.40 100.13L912.40 100.13Q911.06 100.13 910.28 99.37Q909.50 98.61 909.50 97.32L909.50 97.32L909.50 93.19Q909.50 91.90 910.28 91.14Q911.06 90.38 912.40 90.38L912.40 90.38Q913.74 90.38 914.52 91.14Q915.30 91.90 915.30 93.19L915.30 93.19L915.30 97.32Q915.30 98.17 914.94 98.80Q914.58 99.43 913.93 99.78Q913.28 100.13 912.40 100.13ZM912.40 99.03L912.40 99.03Q913.15 99.03 913.61 98.55Q914.06 98.08 914.06 97.32L914.06 97.32L914.06 93.19Q914.06 92.43 913.61 91.96Q913.15 91.48 912.40 91.48L912.40 91.48Q911.65 91.48 911.19 91.96Q910.74 92.43 910.74 93.19L910.74 93.19L910.74 97.32Q910.74 98.08 911.19 98.55Q911.65 99.03 912.40 99.03ZM912.40 95.98L912.40 95.98Q912.04 95.98 911.82 95.78Q911.61 95.58 911.61 95.22L911.61 95.22Q911.61 94.85 911.82 94.66Q912.04 94.47 912.40 94.47L912.40 94.47Q912.76 94.47 912.98 94.66Q913.21 94.85 913.21 95.22L913.21 95.22Q913.21 95.58 912.98 95.78Q912.76 95.98 912.40 95.98Z M921.70 100.13L921.70 100.13Q920.36 100.13 919.58 99.37Q918.80 98.61 918.80 97.32L918.80 97.32L918.80 93.19Q918.80 91.90 919.58 91.14Q920.36 90.38 921.70 90.38L921.70 90.38Q923.04 90.38 923.82 91.14Q924.60 91.90 924.60 93.19L924.60 93.19L924.60 97.32Q924.60 98.17 924.24 98.80Q923.88 99.43 923.23 99.78Q922.58 100.13 921.70 100.13ZM921.70 99.03L921.70 99.03Q922.45 99.03 922.91 98.55Q923.36 98.08 923.36 97.32L923.36 97.32L923.36 93.19Q923.36 92.43 922.91 91.96Q922.45 91.48 921.70 91.48L921.70 91.48Q920.95 91.48 920.49 91.96Q920.04 92.43 920.04 93.19L920.04 93.19L920.04 97.32Q920.04 98.08 920.49 98.55Q920.95 99.03 921.70 99.03ZM921.70 95.98L921.70 95.98Q921.34 95.98 921.12 95.78Q920.91 95.58 920.91 95.22L920.91 95.22Q920.91 94.85 921.12 94.66Q921.34 94.47 921.70 94.47L921.70 94.47Q922.06 94.47 922.28 94.66Q922.51 94.85 922.51 95.22L922.51 95.22Q922.51 95.58 922.28 95.78Q922.06 95.98 921.70 95.98Z M934.16 100L928.26 100L928.26 98.83L930.79 98.83L930.79 91.67L928.24 93.56L928.24 92.11L930.40 90.51L932.08 90.51L932.08 98.83L934.16 98.83L934.16 100Z  M953.50 96.28L945.70 96.28L945.70 95.13L953.50 95.13L953.50 96.28Z  M971.19 100L965.38 100L965.38 98.82L968.60 95.41Q969.23 94.76 969.49 94.22Q969.76 93.68 969.76 93.16L969.76 93.16Q969.76 92.42 969.33 91.97Q968.90 91.52 968.17 91.52L968.17 91.52Q967.42 91.52 966.98 91.98Q966.54 92.43 966.54 93.21L966.54 93.21L965.25 93.21Q965.27 91.91 966.07 91.15Q966.87 90.38 968.17 90.38L968.17 90.38Q969.50 90.38 970.29 91.13Q971.07 91.89 971.07 93.15L971.07 93.15Q971.07 93.84 970.71 94.59Q970.34 95.33 969.47 96.23L969.47 96.23L966.95 98.83L971.19 98.83L971.19 100Z M977.50 100.13L977.50 100.13Q976.16 100.13 975.38 99.37Q974.60 98.61 974.60 97.32L974.60 97.32L974.60 93.19Q974.60 91.90 975.38 91.14Q976.16 90.38 977.50 90.38L977.50 90.38Q978.84 90.38 979.62 91.14Q980.40 91.90 980.40 93.19L980.40 93.19L980.40 97.32Q980.40 98.17 980.04 98.80Q979.68 99.43 979.03 99.78Q978.38 100.13 977.50 100.13ZM977.50 99.03L977.50 99.03Q978.25 99.03 978.71 98.55Q979.16 98.08 979.16 97.32L979.16 97.32L979.16 93.19Q979.16 92.43 978.71 91.96Q978.25 91.48 977.50 91.48L977.50 91.48Q976.75 91.48 976.29 91.96Q975.84 92.43 975.84 93.19L975.84 93.19L975.84 97.32Q975.84 98.08 976.29 98.55Q976.75 99.03 977.50 99.03ZM977.50 95.98L977.50 95.98Q977.14 95.98 976.92 95.78Q976.71 95.58 976.71 95.22L976.71 95.22Q976.71 94.85 976.92 94.66Q977.14 94.47 977.50 94.47L977.50 94.47Q977.86 94.47 978.08 94.66Q978.31 94.85 978.31 95.22L978.31 95.22Q978.31 95.58 978.08 95.78Q977.86 95.98 977.50 95.98Z M989.79 100L983.98 100L983.98 98.82L987.20 95.41Q987.83 94.76 988.09 94.22Q988.36 93.68 988.36 93.16L988.36 93.16Q988.36 92.42 987.93 91.97Q987.50 91.52 986.77 91.52L986.77 91.52Q986.02 91.52 985.58 91.98Q985.14 92.43 985.14 93.21L985.14 93.21L983.85 93.21Q983.87 91.91 984.67 91.15Q985.47 90.38 986.77 90.38L986.77 90.38Q988.10 90.38 988.89 91.13Q989.67 91.89 989.67 93.15L989.67 93.15Q989.67 93.84 989.31 94.59Q988.94 95.33 988.07 96.23L988.07 96.23L985.55 98.83L989.79 98.83L989.79 100Z M996.11 100.13L996.11 100.13Q995.18 100.13 994.47 99.75Q993.77 99.36 993.38 98.67Q992.99 97.98 992.99 97.08L992.99 97.08Q992.99 96.46 993.23 95.79Q993.47 95.11 993.88 94.40L993.88 94.40L996.03 90.51L997.48 90.51L995.11 94.61L995.15 94.63Q995.32 94.41 995.66 94.28Q996.01 94.15 996.44 94.15L996.44 94.15Q997.26 94.15 997.88 94.51Q998.50 94.88 998.86 95.53Q999.21 96.18 999.21 97.05L999.21 97.05Q999.21 97.97 998.82 98.66Q998.43 99.35 997.73 99.74Q997.04 100.13 996.11 100.13ZM996.10 99.00L996.10 99.00Q996.92 99.00 997.42 98.47Q997.92 97.93 997.92 97.08L997.92 97.08Q997.92 96.20 997.42 95.67Q996.92 95.14 996.10 95.14L996.10 95.14Q995.28 95.14 994.78 95.67Q994.28 96.20 994.28 97.08L994.28 97.08Q994.28 97.93 994.78 98.47Q995.28 99.00 996.10 99.00Z" fill="#8896a6"></path>
    <path d="M150.20 360L107.72 360L126.26 266.94L89.36 266.94L96.02 234L212.30 234L205.64 266.94L168.74 266.94L150.20 360Z M279.32 259.74L279.32 259.74Q291.02 259.74 299.84 264.87Q308.66 270 312.53 280.17Q316.40 290.34 313.34 305.64L313.34 305.64L302.54 360L261.86 360L271.76 310.50Q275 293.94 262.22 293.94L262.22 293.94Q255.38 293.94 250.70 298.53Q246.02 303.12 244.04 312.66L244.04 312.66L234.50 360L193.82 360L220.46 226.44L261.14 226.44L252.68 269.10Q258.80 264.24 265.73 261.99Q272.66 259.74 279.32 259.74Z M375.86 361.80L375.86 361.80Q359.66 361.80 347.51 356.22Q335.36 350.64 328.52 340.38Q321.68 330.12 321.68 316.26L321.68 316.26Q321.68 300.06 329.24 287.28Q336.80 274.50 350.57 267.12Q364.34 259.74 382.70 259.74L382.70 259.74Q398.54 259.74 409.70 265.32Q420.86 270.90 426.80 280.62Q432.74 290.34 432.74 303.12L432.74 303.12Q432.74 307.62 432.11 311.94Q431.48 316.26 430.58 320.22L430.58 320.22L361.64 320.22Q362.90 326.34 367.67 329.04Q372.44 331.74 380.54 331.74L380.54 331.74Q386.12 331.74 391.70 330.03Q397.28 328.32 401.96 324.90L401.96 324.90L418.88 349.56Q408.80 356.40 397.91 359.10Q387.02 361.80 375.86 361.80ZM363.26 300.60L363.26 300.60L395.48 300.60Q395.48 294.48 391.43 290.97Q387.38 287.46 380.90 287.46L380.90 287.46Q373.88 287.46 369.65 291.15Q365.42 294.84 363.26 300.60Z" fill="#f6f4ef"></path><path d="M111.50 528L66.68 528L146.96 402L188.72 402L218.60 528L176.30 528L172.16 506.04L124.10 506.04L111.50 528ZM160.10 443.22L141.56 475.44L166.22 475.44L160.10 443.22Z M261.86 528L221.18 528L240.80 429.54L279.14 429.54L277.16 439.62Q283.46 433.32 292.37 430.53Q301.28 427.74 311.72 427.74L311.72 427.74L304.52 463.74Q300.02 463.02 295.70 463.02L295.70 463.02Q285.62 463.02 279.41 467.52Q273.20 472.02 271.04 482.46L271.04 482.46L261.86 528Z M358.22 529.80L358.22 529.80Q342.02 529.80 329.96 524.13Q317.90 518.46 311.24 508.20Q304.58 497.94 304.58 484.26L304.58 484.26Q304.58 468.06 312.50 455.28Q320.42 442.50 334.46 435.12Q348.50 427.74 366.68 427.74L366.68 427.74Q384.32 427.74 397.28 435.48Q410.24 443.22 415.46 456.54L415.46 456.54L380.90 472.38Q378.38 465.54 374.15 462.66Q369.92 459.78 364.70 459.78L364.70 459.78Q356.42 459.78 351.11 465.81Q345.80 471.84 345.80 481.74L345.80 481.74Q345.80 488.76 349.76 493.26Q353.72 497.76 361.28 497.76L361.28 497.76Q367.22 497.76 371.72 494.88Q376.22 492 379.64 485.16L379.64 485.16L409.34 502.44Q402.14 515.40 388.91 522.60Q375.68 529.80 358.22 529.80Z M456.02 529.80L456.02 529.80Q443.42 529.80 434.60 525.12Q425.78 520.44 422.18 511.35Q418.58 502.26 421.10 489.48L421.10 489.48L427.22 459.24L413.54 459.24L419.48 429.54L432.98 429.54L437.48 407.40L478.16 407.40L473.66 429.54L493.82 429.54L487.88 459.24L467.72 459.24L461.78 489.30Q460.88 494.34 462.86 496.68Q464.84 499.02 468.98 499.02L468.98 499.02Q471.50 499.02 473.57 498.39Q475.64 497.76 477.98 496.68L477.98 496.68L482.66 524.04Q477.08 527.10 470.15 528.45Q463.22 529.80 456.02 529.80Z M529.16 528L488.66 528L508.28 429.54L548.78 429.54L529.16 528ZM532.94 421.62L532.94 421.62Q522.32 421.62 516.11 416.04Q509.90 410.46 509.90 402.36L509.90 402.36Q509.90 392.82 517.01 386.52Q524.12 380.22 535.82 380.22L535.82 380.22Q546.44 380.22 552.65 385.44Q558.86 390.66 558.86 398.76L558.86 398.76Q558.86 408.84 551.75 415.23Q544.64 421.62 532.94 421.62Z M614.36 528L572.24 528L552.26 429.54L592.40 429.54L602.12 482.46L633.44 429.54L673.58 429.54L614.36 528Z M702.08 529.80L702.08 529.80Q692.36 529.80 683.00 524.49Q673.64 519.18 667.61 509.01Q661.58 498.84 661.58 484.26L661.58 484.26Q661.58 472.02 665.72 461.76Q669.86 451.50 677.15 443.85Q684.44 436.20 693.89 431.97Q703.34 427.74 713.96 427.74L713.96 427.74Q722.96 427.74 730.25 430.53Q737.54 433.32 742.04 439.98L742.04 439.98L744.20 429.54L784.88 429.54L765.26 528L726.92 528L728.72 519Q717.74 529.80 702.08 529.80ZM717.38 497.76L717.38 497.76Q725.30 497.76 730.25 491.64Q735.20 485.52 735.20 475.26L735.20 475.26Q735.20 468.42 731.33 464.10Q727.46 459.78 720.62 459.78L720.62 459.78Q712.70 459.78 707.75 465.90Q702.80 472.02 702.80 482.28L702.80 482.28Q702.80 489.12 706.67 493.44Q710.54 497.76 717.38 497.76Z M827.24 529.80L827.24 529.80Q814.64 529.80 805.82 525.12Q797.00 520.44 793.40 511.35Q789.80 502.26 792.32 489.48L792.32 489.48L798.44 459.24L784.76 459.24L790.70 429.54L804.20 429.54L808.70 407.40L849.38 407.40L844.88 429.54L865.04 429.54L859.10 459.24L838.94 459.24L833.00 489.30Q832.10 494.34 834.08 496.68Q836.06 499.02 840.20 499.02L840.20 499.02Q842.72 499.02 844.79 498.39Q846.86 497.76 849.20 496.68L849.20 496.68L853.88 524.04Q848.30 527.10 841.37 528.45Q834.44 529.80 827.24 529.80Z M918.56 529.80L918.56 529.80Q902.36 529.80 890.21 524.22Q878.06 518.64 871.22 508.38Q864.38 498.12 864.38 484.26L864.38 484.26Q864.38 468.06 871.94 455.28Q879.50 442.50 893.27 435.12Q907.04 427.74 925.40 427.74L925.40 427.74Q941.24 427.74 952.40 433.32Q963.56 438.90 969.50 448.62Q975.44 458.34 975.44 471.12L975.44 471.12Q975.44 475.62 974.81 479.94Q974.18 484.26 973.28 488.22L973.28 488.22L904.34 488.22Q905.60 494.34 910.37 497.04Q915.14 499.74 923.24 499.74L923.24 499.74Q928.82 499.74 934.40 498.03Q939.98 496.32 944.66 492.90L944.66 492.90L961.58 517.56Q951.50 524.40 940.61 527.10Q929.72 529.80 918.56 529.80ZM905.96 468.60L905.96 468.60L938.18 468.60Q938.18 462.48 934.13 458.97Q930.08 455.46 923.60 455.46L923.60 455.46Q916.58 455.46 912.35 459.15Q908.12 462.84 905.96 468.60Z" fill="url(#textGrad)"></path><path d="M124.10 697.80L124.10 697.80Q114.38 697.80 105.02 692.49Q95.66 687.18 89.63 677.01Q83.60 666.84 83.60 652.26L83.60 652.26Q83.60 640.02 87.74 629.76Q91.88 619.50 99.17 611.85Q106.46 604.20 115.91 599.97Q125.36 595.74 135.98 595.74L135.98 595.74Q144.98 595.74 152.27 598.53Q159.56 601.32 164.06 607.98L164.06 607.98L166.22 597.54L206.90 597.54L187.28 696L148.94 696L150.74 687Q139.76 697.80 124.10 697.80ZM139.40 665.76L139.40 665.76Q147.32 665.76 152.27 659.64Q157.22 653.52 157.22 643.26L157.22 643.26Q157.22 636.42 153.35 632.10Q149.48 627.78 142.64 627.78L142.64 627.78Q134.72 627.78 129.77 633.90Q124.82 640.02 124.82 650.28L124.82 650.28Q124.82 657.12 128.69 661.44Q132.56 665.76 139.40 665.76Z M273.02 697.80L273.02 697.80Q264.02 697.80 256.73 695.01Q249.44 692.22 244.94 685.56L244.94 685.56L235.76 730.92L195.08 730.92L221.72 597.54L260.06 597.54L258.26 606.54Q269.24 595.74 284.90 595.74L284.90 595.74Q294.80 595.74 304.07 601.05Q313.34 606.36 319.37 616.44Q325.40 626.52 325.40 641.28L325.40 641.28Q325.40 653.34 321.26 663.69Q317.12 674.04 309.83 681.69Q302.54 689.34 293.09 693.57Q283.64 697.80 273.02 697.80ZM266.36 665.76L266.36 665.76Q274.28 665.76 279.23 659.64Q284.18 653.52 284.18 643.26L284.18 643.26Q284.18 636.42 280.31 632.10Q276.44 627.78 269.60 627.78L269.60 627.78Q261.68 627.78 256.73 633.90Q251.78 640.02 251.78 650.28L251.78 650.28Q251.78 657.12 255.65 661.44Q259.52 665.76 266.36 665.76Z M396.02 697.80L396.02 697.80Q387.02 697.80 379.73 695.01Q372.44 692.22 367.94 685.56L367.94 685.56L358.76 730.92L318.08 730.92L344.72 597.54L383.06 597.54L381.26 606.54Q392.24 595.74 407.90 595.74L407.90 595.74Q417.80 595.74 427.07 601.05Q436.34 606.36 442.37 616.44Q448.40 626.52 448.40 641.28L448.40 641.28Q448.40 653.34 444.26 663.69Q440.12 674.04 432.83 681.69Q425.54 689.34 416.09 693.57Q406.64 697.80 396.02 697.80ZM389.36 665.76L389.36 665.76Q397.28 665.76 402.23 659.64Q407.18 653.52 407.18 643.26L407.18 643.26Q407.18 636.42 403.31 632.10Q399.44 627.78 392.60 627.78L392.60 627.78Q384.68 627.78 379.73 633.90Q374.78 640.02 374.78 650.28L374.78 650.28Q374.78 657.12 378.65 661.44Q382.52 665.76 389.36 665.76Z M469.16 697.80L469.16 697.80Q459.26 697.80 453.05 691.77Q446.84 685.74 446.84 676.38L446.84 676.38Q446.84 665.04 454.31 658.20Q461.78 651.36 472.40 651.36L472.40 651.36Q482.48 651.36 488.51 657.30Q494.54 663.24 494.54 672.78L494.54 672.78Q494.54 680.34 491.12 685.92Q487.70 691.50 481.94 694.65Q476.18 697.80 469.16 697.80Z" fill="#f6f4ef"></path>
    <path d="M83.85 762.42L81.56 762.42L89.35 741.74L91.64 741.74L83.85 762.42Z M98.05 762.42L95.76 762.42L103.55 741.74L105.84 741.74L98.05 762.42Z  M134.00 760L130.41 760Q128.85 760 127.94 759.10Q127.02 758.20 127.02 756.70L127.02 756.70L127.02 749.88L123.57 749.88L123.57 747.90L127.02 747.90L127.02 744.49L129.20 744.49L129.20 747.90L134.11 747.90L134.11 749.88L129.20 749.88L129.20 756.68Q129.20 757.27 129.54 757.65Q129.88 758.02 130.45 758.02L130.45 758.02L134.00 758.02L134.00 760Z M141.35 760L139.18 760L139.18 747.90L141.33 747.90L141.33 750.23L141.35 750.23Q141.53 749.04 142.38 748.36Q143.22 747.68 144.63 747.68L144.63 747.68Q146.50 747.68 147.54 748.84Q148.57 749.99 148.57 752.08L148.57 752.08L148.57 753.14L146.39 753.14L146.39 752.10Q146.39 749.57 143.91 749.57L143.91 749.57Q142.65 749.57 142.00 750.30Q141.35 751.02 141.35 752.37L141.35 752.37L141.35 760Z M156.48 760.22L156.48 760.22Q154.61 760.22 153.52 759.17Q152.43 758.13 152.43 756.44L152.43 756.44Q152.43 754.74 153.56 753.71Q154.70 752.67 156.54 752.67L156.54 752.67L160.09 752.67L160.09 751.75Q160.09 749.53 157.62 749.53L157.62 749.53Q156.52 749.53 155.85 749.93Q155.18 750.34 155.14 751.07L155.14 751.07L152.98 751.07Q153.09 749.59 154.32 748.64Q155.55 747.68 157.62 747.68L157.62 747.68Q159.84 747.68 161.05 748.74Q162.26 749.79 162.26 751.71L162.26 751.71L162.26 760L160.13 760L160.13 757.78L160.09 757.78Q159.93 758.90 158.97 759.56Q158.02 760.22 156.48 760.22ZM157.05 758.39L157.05 758.39Q158.44 758.39 159.26 757.72Q160.09 757.05 160.09 755.89L160.09 755.89L160.09 754.28L156.74 754.28Q155.80 754.28 155.21 754.84Q154.63 755.40 154.63 756.33L154.63 756.33Q154.63 757.27 155.27 757.83Q155.91 758.39 157.05 758.39Z M177.43 760L167.03 760L167.03 758.02L171.27 758.02L171.27 749.88L167.47 749.88L167.47 747.90L173.45 747.90L173.45 758.02L177.43 758.02L177.43 760ZM172.15 745.77L172.15 745.77Q171.40 745.77 170.96 745.38Q170.52 745.00 170.52 744.34L170.52 744.34Q170.52 743.65 170.96 743.26Q171.40 742.86 172.15 742.86L172.15 742.86Q172.90 742.86 173.34 743.26Q173.78 743.65 173.78 744.34L173.78 744.34Q173.78 745.00 173.34 745.38Q172.90 745.77 172.15 745.77Z M183.51 760L181.34 760L181.34 747.90L183.49 747.90L183.49 750.21L183.51 750.21Q183.67 749.02 184.51 748.35Q185.36 747.68 186.75 747.68L186.75 747.68Q188.55 747.68 189.63 748.82Q190.71 749.97 190.71 751.90L190.71 751.90L190.71 760L188.53 760L188.53 752.26Q188.53 750.94 187.87 750.23Q187.21 749.53 186.07 749.53L186.07 749.53Q184.88 749.53 184.20 750.26Q183.51 751.00 183.51 752.32L183.51 752.32L183.51 760Z  M214.40 754.30L214.40 754.30Q213.56 754.30 213.05 753.80Q212.53 753.29 212.53 752.50L212.53 752.50Q212.53 751.66 213.05 751.13Q213.56 750.61 214.40 750.61L214.40 750.61Q215.24 750.61 215.75 751.13Q216.27 751.66 216.27 752.50L216.27 752.50Q216.27 753.29 215.75 753.80Q215.24 754.30 214.40 754.30Z  M247.60 760L244.01 760Q242.45 760 241.53 759.10Q240.62 758.20 240.62 756.70L240.62 756.70L240.62 749.88L237.17 749.88L237.17 747.90L240.62 747.90L240.62 744.49L242.80 744.49L242.80 747.90L247.71 747.90L247.71 749.88L242.80 749.88L242.80 756.68Q242.80 757.27 243.14 757.65Q243.48 758.02 244.05 758.02L244.05 758.02L247.60 758.02L247.60 760Z M254.95 760L252.78 760L252.78 747.90L254.93 747.90L254.93 750.23L254.95 750.23Q255.13 749.04 255.98 748.36Q256.82 747.68 258.23 747.68L258.23 747.68Q260.10 747.68 261.14 748.84Q262.17 749.99 262.17 752.08L262.17 752.08L262.17 753.14L259.99 753.14L259.99 752.10Q259.99 749.57 257.51 749.57L257.51 749.57Q256.25 749.57 255.60 750.30Q254.95 751.02 254.95 752.37L254.95 752.37L254.95 760Z M270.08 760.22L270.08 760.22Q268.21 760.22 267.12 759.17Q266.03 758.13 266.03 756.44L266.03 756.44Q266.03 754.74 267.16 753.71Q268.30 752.67 270.14 752.67L270.14 752.67L273.69 752.67L273.69 751.75Q273.69 749.53 271.22 749.53L271.22 749.53Q270.12 749.53 269.45 749.93Q268.78 750.34 268.74 751.07L268.74 751.07L266.58 751.07Q266.69 749.59 267.92 748.64Q269.15 747.68 271.22 747.68L271.22 747.68Q273.44 747.68 274.65 748.74Q275.86 749.79 275.86 751.71L275.86 751.71L275.86 760L273.73 760L273.73 757.78L273.69 757.78Q273.53 758.90 272.57 759.56Q271.62 760.22 270.08 760.22ZM270.65 758.39L270.65 758.39Q272.04 758.39 272.86 757.72Q273.69 757.05 273.69 755.89L273.69 755.89L273.69 754.28L270.34 754.28Q269.40 754.28 268.81 754.84Q268.23 755.40 268.23 756.33L268.23 756.33Q268.23 757.27 268.87 757.83Q269.51 758.39 270.65 758.39Z M285.58 760.22L285.58 760.22Q283.35 760.22 282.01 758.98Q280.67 757.73 280.67 755.56L280.67 755.56L280.67 752.32Q280.67 750.17 282.01 748.92Q283.35 747.68 285.58 747.68L285.58 747.68Q287.71 747.68 289.02 748.81Q290.33 749.95 290.39 751.90L290.39 751.90L288.24 751.90Q288.17 750.80 287.46 750.20Q286.74 749.59 285.58 749.59L285.58 749.59Q284.32 749.59 283.58 750.31Q282.85 751.02 282.85 752.32L282.85 752.32L282.85 755.56Q282.85 756.88 283.58 757.58Q284.32 758.28 285.58 758.28L285.58 758.28Q286.76 758.28 287.47 757.69Q288.17 757.10 288.24 756.00L288.24 756.00L290.39 756.00Q290.33 757.95 289.02 759.09Q287.71 760.22 285.58 760.22Z M297.22 760L295.05 760L295.05 743.94L297.22 743.94L297.22 752.83L299.45 752.83L302.70 747.90L305.17 747.90L301.36 753.69L305.36 760L302.86 760L299.47 754.70L297.22 754.70L297.22 760Z  M328.00 754.30L328.00 754.30Q327.16 754.30 326.65 753.80Q326.13 753.29 326.13 752.50L326.13 752.50Q326.13 751.66 326.65 751.13Q327.16 750.61 328.00 750.61L328.00 750.61Q328.84 750.61 329.35 751.13Q329.87 751.66 329.87 752.50L329.87 752.50Q329.87 753.29 329.35 753.80Q328.84 754.30 328.00 754.30Z  M356.58 760.22L356.58 760.22Q354.35 760.22 353.01 758.98Q351.67 757.73 351.67 755.56L351.67 755.56L351.67 752.32Q351.67 750.17 353.01 748.92Q354.35 747.68 356.58 747.68L356.58 747.68Q358.71 747.68 360.02 748.81Q361.33 749.95 361.39 751.90L361.39 751.90L359.24 751.90Q359.17 750.80 358.46 750.20Q357.74 749.59 356.58 749.59L356.58 749.59Q355.32 749.59 354.58 750.31Q353.85 751.02 353.85 752.32L353.85 752.32L353.85 755.56Q353.85 756.88 354.58 757.58Q355.32 758.28 356.58 758.28L356.58 758.28Q357.76 758.28 358.47 757.69Q359.17 757.10 359.24 756.00L359.24 756.00L361.39 756.00Q361.33 757.95 360.02 759.09Q358.71 760.22 356.58 760.22Z M370.60 760.18L370.60 760.18Q368.38 760.18 367.07 758.90Q365.76 757.62 365.76 755.34L365.76 755.34L365.76 752.56Q365.76 750.28 367.07 749Q368.38 747.72 370.60 747.72L370.60 747.72Q372.82 747.72 374.13 749Q375.44 750.28 375.44 752.56L375.44 752.56L375.44 755.34Q375.44 757.62 374.13 758.90Q372.82 760.18 370.60 760.18ZM370.60 758.26L370.60 758.26Q371.83 758.26 372.55 757.57Q373.26 756.88 373.26 755.53L373.26 755.53L373.26 752.37Q373.26 751.02 372.55 750.33Q371.83 749.64 370.60 749.64L370.60 749.64Q369.37 749.64 368.65 750.33Q367.94 751.02 367.94 752.37L367.94 752.37L367.94 755.53Q367.94 756.88 368.65 757.57Q369.37 758.26 370.60 758.26Z M382.31 760L380.14 760L380.14 747.90L382.29 747.90L382.29 750.21L382.31 750.21Q382.47 749.02 383.31 748.35Q384.16 747.68 385.55 747.68L385.55 747.68Q387.35 747.68 388.43 748.82Q389.51 749.97 389.51 751.90L389.51 751.90L389.51 760L387.33 760L387.33 752.26Q387.33 750.94 386.67 750.23Q386.01 749.53 384.87 749.53L384.87 749.53Q383.68 749.53 383.00 750.26Q382.31 751.00 382.31 752.32L382.31 752.32L382.31 760Z M403.66 763.96L401.49 763.96L401.49 760.46L401.53 757.71L401.49 757.71Q401.27 758.88 400.40 759.55Q399.53 760.22 398.21 760.22L398.21 760.22Q396.38 760.22 395.30 759.00Q394.23 757.78 394.23 755.67L394.23 755.67L394.23 752.21Q394.23 750.12 395.30 748.90Q396.38 747.68 398.21 747.68L398.21 747.68Q399.55 747.68 400.43 748.36Q401.31 749.04 401.51 750.23L401.51 750.23L401.51 750.23L401.51 747.90L403.66 747.90L403.66 763.96ZM398.96 758.33L398.96 758.33Q400.12 758.33 400.80 757.60Q401.49 756.88 401.49 755.56L401.49 755.56L401.49 752.34Q401.49 751.02 400.80 750.30Q400.12 749.57 398.96 749.57L398.96 749.57Q397.75 749.57 397.07 750.19Q396.40 750.80 396.40 752.15L396.40 752.15L396.40 755.75Q396.40 757.10 397.07 757.71Q397.75 758.33 398.96 758.33Z M413.18 760.22L413.18 760.22Q411.04 760.22 409.77 758.97Q408.49 757.71 408.49 755.56L408.49 755.56L408.49 747.90L410.67 747.90L410.67 755.56Q410.67 756.83 411.34 757.57Q412.01 758.31 413.18 758.31L413.18 758.31Q414.37 758.31 415.05 757.57Q415.73 756.83 415.73 755.56L415.73 755.56L415.73 747.90L417.91 747.90L417.91 755.56Q417.91 757.71 416.62 758.97Q415.33 760.22 413.18 760.22Z M427.40 760.22L427.40 760.22Q425.22 760.22 423.89 758.92Q422.56 757.62 422.56 755.38L422.56 755.38L422.56 752.52Q422.56 750.28 423.89 748.98Q425.22 747.68 427.40 747.68L427.40 747.68Q428.85 747.68 429.94 748.26Q431.03 748.85 431.63 749.89Q432.24 750.94 432.24 752.32L432.24 752.32L432.24 754.50L424.69 754.50L424.69 755.56Q424.69 756.88 425.42 757.62Q426.15 758.37 427.40 758.37L427.40 758.37Q428.46 758.37 429.14 757.98Q429.82 757.58 429.95 756.88L429.95 756.88L432.13 756.88Q431.91 758.42 430.61 759.32Q429.31 760.22 427.40 760.22ZM424.69 752.32L424.69 752.32L424.69 752.89L430.11 752.89L430.11 752.32Q430.11 750.94 429.40 750.19Q428.70 749.44 427.40 749.44L427.40 749.44Q426.10 749.44 425.40 750.19Q424.69 750.94 424.69 752.32Z M439.55 760L437.38 760L437.38 747.90L439.53 747.90L439.53 750.23L439.55 750.23Q439.73 749.04 440.58 748.36Q441.42 747.68 442.83 747.68L442.83 747.68Q444.70 747.68 445.74 748.84Q446.77 749.99 446.77 752.08L446.77 752.08L446.77 753.14L444.59 753.14L444.59 752.10Q444.59 749.57 442.11 749.57L442.11 749.57Q440.85 749.57 440.20 750.30Q439.55 751.02 439.55 752.37L439.55 752.37L439.55 760Z" fill="#c4ccd6"></path><path d="M83.85 796.42L81.56 796.42L89.35 775.74L91.64 775.74L83.85 796.42Z M98.05 796.42L95.76 796.42L103.55 775.74L105.84 775.74L98.05 796.42Z  M126.71 794L124.54 794L124.54 781.90L126.69 781.90L126.69 784.21L126.71 784.21Q126.87 783.02 127.72 782.35Q128.56 781.68 129.95 781.68L129.95 781.68Q131.75 781.68 132.83 782.82Q133.91 783.97 133.91 785.90L133.91 785.90L133.91 794L131.73 794L131.73 786.26Q131.73 784.94 131.07 784.23Q130.41 783.53 129.27 783.53L129.27 783.53Q128.08 783.53 127.40 784.26Q126.71 785.00 126.71 786.32L126.71 786.32L126.71 794Z M143.40 794.18L143.40 794.18Q141.18 794.18 139.87 792.90Q138.56 791.62 138.56 789.34L138.56 789.34L138.56 786.56Q138.56 784.28 139.87 783Q141.18 781.72 143.40 781.72L143.40 781.72Q145.62 781.72 146.93 783Q148.24 784.28 148.24 786.56L148.24 786.56L148.24 789.34Q148.24 791.62 146.93 792.90Q145.62 794.18 143.40 794.18ZM143.40 792.26L143.40 792.26Q144.63 792.26 145.35 791.57Q146.06 790.88 146.06 789.53L146.06 789.53L146.06 786.37Q146.06 785.02 145.35 784.33Q144.63 783.64 143.40 783.64L143.40 783.64Q142.17 783.64 141.45 784.33Q140.74 785.02 140.74 786.37L140.74 786.37L140.74 789.53Q140.74 790.88 141.45 791.57Q142.17 792.26 143.40 792.26Z M155.91 794L153.55 794L151.59 781.90L153.44 781.90L154.63 790.15Q154.70 790.70 154.76 791.34Q154.83 791.98 154.85 792.37L154.85 792.37Q154.89 791.98 154.96 791.34Q155.03 790.70 155.11 790.15L155.11 790.15L156.57 781.90L158.63 781.90L160.09 790.15Q160.17 790.70 160.25 791.33Q160.33 791.95 160.37 792.37L160.37 792.37Q160.42 791.95 160.48 791.33Q160.55 790.70 160.61 790.15L160.61 790.15L161.85 781.90L163.61 781.90L161.56 794L159.23 794L157.89 785.86Q157.80 785.27 157.72 784.54Q157.64 783.81 157.60 783.40L157.60 783.40Q157.58 783.81 157.48 784.54Q157.38 785.27 157.29 785.86L157.29 785.86L155.91 794Z  M186.00 794.18L186.00 794.18Q183.78 794.18 182.47 792.90Q181.16 791.62 181.16 789.34L181.16 789.34L181.16 786.56Q181.16 784.28 182.47 783Q183.78 781.72 186.00 781.72L186.00 781.72Q188.22 781.72 189.53 783Q190.84 784.28 190.84 786.56L190.84 786.56L190.84 789.34Q190.84 791.62 189.53 792.90Q188.22 794.18 186.00 794.18ZM186.00 792.26L186.00 792.26Q187.23 792.26 187.95 791.57Q188.66 790.88 188.66 789.53L188.66 789.53L188.66 786.37Q188.66 785.02 187.95 784.33Q187.23 783.64 186.00 783.64L186.00 783.64Q184.77 783.64 184.05 784.33Q183.34 785.02 183.34 786.37L183.34 786.37L183.34 789.53Q183.34 790.88 184.05 791.57Q184.77 792.26 186.00 792.26Z M197.71 794L195.54 794L195.54 781.90L197.69 781.90L197.69 784.21L197.71 784.21Q197.87 783.02 198.71 782.35Q199.56 781.68 200.95 781.68L200.95 781.68Q202.75 781.68 203.83 782.82Q204.91 783.97 204.91 785.90L204.91 785.90L204.91 794L202.73 794L202.73 786.26Q202.73 784.94 202.07 784.23Q201.41 783.53 200.27 783.53L200.27 783.53Q199.08 783.53 198.40 784.26Q197.71 785.00 197.71 786.32L197.71 786.32L197.71 794Z  M234.23 794L223.83 794L223.83 792.02L228.07 792.02L228.07 783.88L224.27 783.88L224.27 781.90L230.25 781.90L230.25 792.02L234.23 792.02L234.23 794ZM228.95 779.77L228.95 779.77Q228.20 779.77 227.76 779.38Q227.32 779.00 227.32 778.34L227.32 778.34Q227.32 777.65 227.76 777.26Q228.20 776.86 228.95 776.86L228.95 776.86Q229.70 776.86 230.14 777.26Q230.58 777.65 230.58 778.34L230.58 778.34Q230.58 779.00 230.14 779.38Q229.70 779.77 228.95 779.77Z M242.80 794.18L242.80 794.18Q240.58 794.18 239.27 792.90Q237.96 791.62 237.96 789.34L237.96 789.34L237.96 786.56Q237.96 784.28 239.27 783Q240.58 781.72 242.80 781.72L242.80 781.72Q245.02 781.72 246.33 783Q247.64 784.28 247.64 786.56L247.64 786.56L247.64 789.34Q247.64 791.62 246.33 792.90Q245.02 794.18 242.80 794.18ZM242.80 792.26L242.80 792.26Q244.03 792.26 244.75 791.57Q245.46 790.88 245.46 789.53L245.46 789.53L245.46 786.37Q245.46 785.02 244.75 784.33Q244.03 783.64 242.80 783.64L242.80 783.64Q241.57 783.64 240.85 784.33Q240.14 785.02 240.14 786.37L240.14 786.37L240.14 789.53Q240.14 790.88 240.85 791.57Q241.57 792.26 242.80 792.26Z M257.48 794.18L256.52 794.18Q254.45 794.18 253.30 793.25Q252.16 792.33 252.16 790.66L252.16 790.66L254.32 790.66Q254.32 791.45 254.90 791.90Q255.48 792.35 256.52 792.35L256.52 792.35L257.48 792.35Q258.56 792.35 259.14 791.89Q259.73 791.43 259.73 790.59L259.73 790.59Q259.73 789.12 258.28 788.94L258.28 788.94L255.02 788.48Q253.72 788.28 253.02 787.41Q252.31 786.54 252.31 785.16L252.31 785.16Q252.31 783.53 253.41 782.63Q254.51 781.72 256.49 781.72L256.49 781.72L257.46 781.72Q259.31 781.72 260.45 782.60Q261.60 783.48 261.66 784.94L261.66 784.94L259.46 784.94Q259.42 784.32 258.89 783.91Q258.36 783.51 257.46 783.51L257.46 783.51L256.49 783.51Q255.50 783.51 254.96 783.95Q254.43 784.39 254.43 785.13L254.43 785.13Q254.43 786.34 255.64 786.50L255.64 786.50L258.69 786.94Q261.84 787.36 261.84 790.59L261.84 790.59Q261.84 792.31 260.71 793.24Q259.57 794.18 257.48 794.18L257.48 794.18Z  M286.48 791.93L284.32 791.93L284.32 787.71L280.21 787.71L280.21 785.75L284.32 785.75L284.32 781.55L286.48 781.55L286.48 785.75L290.61 785.75L290.61 787.71L286.48 787.71L286.48 791.93Z  M312.68 794.22L312.68 794.22Q310.81 794.22 309.72 793.17Q308.63 792.13 308.63 790.44L308.63 790.44Q308.63 788.74 309.76 787.71Q310.90 786.67 312.74 786.67L312.74 786.67L316.29 786.67L316.29 785.75Q316.29 783.53 313.82 783.53L313.82 783.53Q312.72 783.53 312.05 783.93Q311.38 784.34 311.34 785.07L311.34 785.07L309.18 785.07Q309.29 783.59 310.52 782.64Q311.75 781.68 313.82 781.68L313.82 781.68Q316.04 781.68 317.25 782.74Q318.46 783.79 318.46 785.71L318.46 785.71L318.46 794L316.33 794L316.33 791.78L316.29 791.78Q316.13 792.90 315.17 793.56Q314.22 794.22 312.68 794.22ZM313.25 792.39L313.25 792.39Q314.64 792.39 315.46 791.72Q316.29 791.05 316.29 789.89L316.29 789.89L316.29 788.28L312.94 788.28Q312.00 788.28 311.41 788.84Q310.83 789.40 310.83 790.33L310.83 790.33Q310.83 791.27 311.47 791.83Q312.11 792.39 313.25 792.39Z M325.51 794L323.34 794L323.34 781.90L325.49 781.90L325.49 784.21L325.51 784.21Q325.67 783.02 326.51 782.35Q327.36 781.68 328.75 781.68L328.75 781.68Q330.55 781.68 331.63 782.82Q332.71 783.97 332.71 785.90L332.71 785.90L332.71 794L330.53 794L330.53 786.26Q330.53 784.94 329.87 784.23Q329.21 783.53 328.07 783.53L328.07 783.53Q326.88 783.53 326.20 784.26Q325.51 785.00 325.51 786.32L325.51 786.32L325.51 794Z M341.41 794.22L341.41 794.22Q339.58 794.22 338.50 793.00Q337.43 791.78 337.43 789.69L337.43 789.69L337.43 786.21Q337.43 784.12 338.50 782.90Q339.58 781.68 341.41 781.68L341.41 781.68Q342.75 781.68 343.64 782.36Q344.53 783.04 344.73 784.23L344.73 784.23L344.73 784.23L344.69 781.42L344.69 777.94L346.86 777.94L346.86 794L344.71 794L344.71 791.65L344.71 791.65Q344.51 792.86 343.63 793.54Q342.75 794.22 341.41 794.22ZM342.16 792.33L342.16 792.33Q343.32 792.33 344.00 791.60Q344.69 790.88 344.69 789.56L344.69 789.56L344.69 786.34Q344.69 785.02 344.00 784.30Q343.32 783.57 342.16 783.57L342.16 783.57Q340.95 783.57 340.27 784.20Q339.60 784.83 339.60 786.23L339.60 786.23L339.60 789.67Q339.60 791.07 340.27 791.70Q340.95 792.33 342.16 792.33Z M354.35 794L352.18 794L352.18 781.90L354.33 781.90L354.33 784.23L354.35 784.23Q354.53 783.04 355.38 782.36Q356.22 781.68 357.63 781.68L357.63 781.68Q359.50 781.68 360.54 782.84Q361.57 783.99 361.57 786.08L361.57 786.08L361.57 787.14L359.39 787.14L359.39 786.10Q359.39 783.57 356.91 783.57L356.91 783.57Q355.65 783.57 355.00 784.30Q354.35 785.02 354.35 786.37L354.35 786.37L354.35 794Z M370.60 794.18L370.60 794.18Q368.38 794.18 367.07 792.90Q365.76 791.62 365.76 789.34L365.76 789.34L365.76 786.56Q365.76 784.28 367.07 783Q368.38 781.72 370.60 781.72L370.60 781.72Q372.82 781.72 374.13 783Q375.44 784.28 375.44 786.56L375.44 786.56L375.44 789.34Q375.44 791.62 374.13 792.90Q372.82 794.18 370.60 794.18ZM370.60 792.26L370.60 792.26Q371.83 792.26 372.55 791.57Q373.26 790.88 373.26 789.53L373.26 789.53L373.26 786.37Q373.26 785.02 372.55 784.33Q371.83 783.64 370.60 783.64L370.60 783.64Q369.37 783.64 368.65 784.33Q367.94 785.02 367.94 786.37L367.94 786.37L367.94 789.53Q367.94 790.88 368.65 791.57Q369.37 792.26 370.60 792.26Z M390.43 794L380.03 794L380.03 792.02L384.27 792.02L384.27 783.88L380.47 783.88L380.47 781.90L386.45 781.90L386.45 792.02L390.43 792.02L390.43 794ZM385.15 779.77L385.15 779.77Q384.40 779.77 383.96 779.38Q383.52 779.00 383.52 778.34L383.52 778.34Q383.52 777.65 383.96 777.26Q384.40 776.86 385.15 776.86L385.15 776.86Q385.90 776.86 386.34 777.26Q386.78 777.65 386.78 778.34L386.78 778.34Q386.78 779.00 386.34 779.38Q385.90 779.77 385.15 779.77Z M398.21 794.22L398.21 794.22Q396.38 794.22 395.30 793.00Q394.23 791.78 394.23 789.69L394.23 789.69L394.23 786.21Q394.23 784.12 395.30 782.90Q396.38 781.68 398.21 781.68L398.21 781.68Q399.55 781.68 400.44 782.36Q401.33 783.04 401.53 784.23L401.53 784.23L401.53 784.23L401.49 781.42L401.49 777.94L403.66 777.94L403.66 794L401.51 794L401.51 791.65L401.51 791.65Q401.31 792.86 400.43 793.54Q399.55 794.22 398.21 794.22ZM398.96 792.33L398.96 792.33Q400.12 792.33 400.80 791.60Q401.49 790.88 401.49 789.56L401.49 789.56L401.49 786.34Q401.49 785.02 400.80 784.30Q400.12 783.57 398.96 783.57L398.96 783.57Q397.75 783.57 397.07 784.20Q396.40 784.83 396.40 786.23L396.40 786.23L396.40 789.67Q396.40 791.07 397.07 791.70Q397.75 792.33 398.96 792.33Z" fill="#c4ccd6"></path>
    
    <rect x="80" y="1402" width="920" height="220" rx="6" fill="#f6f4ef" stroke="rgba(0,0,0,0.06)"></rect>
    <rect x="80" y="1402" width="6" height="220" fill="url(#ticketBar)"></rect>
    <rect x="108" y="1434" width="18" height="1" fill="#6B7785"></rect>
    <path d="M137.30 1438.11L137.30 1438.11Q136.52 1438.11 135.95 1437.81Q135.38 1437.52 135.06 1436.98Q134.75 1436.44 134.75 1435.71L134.75 1435.71L134.75 1432.26Q134.75 1431.53 135.06 1430.99Q135.38 1430.45 135.95 1430.16Q136.52 1429.86 137.30 1429.86L137.30 1429.86Q138.08 1429.86 138.65 1430.16Q139.22 1430.45 139.54 1430.99Q139.85 1431.53 139.85 1432.26L139.85 1432.26L139.85 1435.71Q139.85 1436.44 139.54 1436.98Q139.22 1437.52 138.65 1437.81Q138.08 1438.11 137.30 1438.11ZM137.30 1436.92L137.30 1436.92Q137.87 1436.92 138.21 1436.59Q138.55 1436.26 138.55 1435.71L138.55 1435.71L138.55 1432.26Q138.55 1431.71 138.22 1431.38Q137.88 1431.05 137.30 1431.05L137.30 1431.05Q136.72 1431.05 136.38 1431.38Q136.05 1431.71 136.05 1432.26L136.05 1432.26L136.05 1435.71Q136.05 1436.26 136.39 1436.59Q136.73 1436.92 137.30 1436.92ZM137.30 1434.64L137.30 1434.64Q136.97 1434.64 136.77 1434.46Q136.57 1434.28 136.57 1433.95L136.57 1433.95Q136.57 1433.62 136.77 1433.45Q136.97 1433.28 137.30 1433.28L137.30 1433.28Q137.63 1433.28 137.83 1433.45Q138.03 1433.62 138.03 1433.95L138.03 1433.95Q138.03 1434.28 137.83 1434.46Q137.63 1434.64 137.30 1434.64Z M148.67 1438L143.52 1438L143.52 1436.76L145.61 1436.76L145.61 1431.30L143.51 1432.84L143.51 1431.30L145.36 1429.97L146.99 1429.97L146.99 1436.76L148.67 1436.76L148.67 1438Z  M166.40 1435.01L159.80 1435.01L159.80 1433.73L166.40 1433.73L166.40 1435.01Z  M178.79 1438L177.38 1438L179.41 1429.97L181.18 1429.97L183.21 1438L181.81 1438L181.37 1436.05L179.23 1436.05L178.79 1438ZM179.97 1432.76L179.49 1434.93L181.11 1434.93L180.63 1432.78Q180.51 1432.24 180.42 1431.80Q180.33 1431.37 180.30 1431.17L180.30 1431.17Q180.27 1431.37 180.18 1431.80Q180.09 1432.24 179.97 1432.76L179.97 1432.76Z M187.82 1438L186.45 1438L186.45 1429.97L189.12 1429.97Q189.92 1429.97 190.52 1430.28Q191.12 1430.59 191.45 1431.14Q191.78 1431.70 191.78 1432.44L191.78 1432.44Q191.78 1433.19 191.45 1433.75Q191.12 1434.30 190.52 1434.61Q189.92 1434.92 189.12 1434.92L189.12 1434.92L187.82 1434.92L187.82 1438ZM187.82 1431.18L187.82 1433.71L189.12 1433.71Q189.70 1433.71 190.04 1433.36Q190.38 1433.01 190.38 1432.44L190.38 1432.44Q190.38 1431.88 190.04 1431.53Q189.70 1431.18 189.12 1431.18L189.12 1431.18L187.82 1431.18Z M196.42 1438L195.05 1438L195.05 1429.97L197.72 1429.97Q198.52 1429.97 199.12 1430.28Q199.72 1430.59 200.05 1431.14Q200.38 1431.70 200.38 1432.44L200.38 1432.44Q200.38 1433.19 200.05 1433.75Q199.72 1434.30 199.12 1434.61Q198.52 1434.92 197.72 1434.92L197.72 1434.92L196.42 1434.92L196.42 1438ZM196.42 1431.18L196.42 1433.71L197.72 1433.71Q198.30 1433.71 198.64 1433.36Q198.98 1433.01 198.98 1432.44L198.98 1432.44Q198.98 1431.88 198.64 1431.53Q198.30 1431.18 197.72 1431.18L197.72 1431.18L196.42 1431.18Z M208.92 1438L204.13 1438L204.13 1429.97L205.51 1429.97L205.51 1436.76L208.92 1436.76L208.92 1438Z M217.19 1438L212.37 1438L212.37 1429.97L217.19 1429.97L217.19 1431.18L213.72 1431.18L213.72 1433.27L216.80 1433.27L216.80 1434.44L213.72 1434.44L213.72 1436.79L217.19 1436.79L217.19 1438Z  M234.21 1438L229.59 1438L229.59 1436.76L231.21 1436.76L231.21 1431.21L229.59 1431.21L229.59 1429.97L234.21 1429.97L234.21 1431.21L232.59 1431.21L232.59 1436.76L234.21 1436.76L234.21 1438Z M240.50 1438.11L240.50 1438.11Q239.34 1438.11 238.67 1437.45Q237.99 1436.79 237.99 1435.62L237.99 1435.62L237.99 1432.35Q237.99 1431.18 238.67 1430.52Q239.34 1429.86 240.50 1429.86L240.50 1429.86Q241.65 1429.86 242.33 1430.52Q243.01 1431.18 243.01 1432.34L243.01 1432.34L243.01 1435.62Q243.01 1436.79 242.33 1437.45Q241.65 1438.11 240.50 1438.11ZM240.50 1436.90L240.50 1436.90Q241.06 1436.90 241.35 1436.60Q241.63 1436.30 241.63 1435.73L241.63 1435.73L241.63 1432.24Q241.63 1431.67 241.35 1431.37Q241.06 1431.07 240.50 1431.07L240.50 1431.07Q239.94 1431.07 239.65 1431.37Q239.37 1431.67 239.37 1432.24L239.37 1432.24L239.37 1435.73Q239.37 1436.30 239.65 1436.60Q239.94 1436.90 240.50 1436.90Z M249.13 1438.11L249.13 1438.11Q248.32 1438.11 247.71 1437.82Q247.10 1437.54 246.76 1437.00Q246.43 1436.47 246.43 1435.73L246.43 1435.73L247.78 1435.73Q247.78 1436.27 248.15 1436.59Q248.52 1436.91 249.13 1436.91L249.13 1436.91Q249.73 1436.91 250.07 1436.60Q250.42 1436.28 250.42 1435.76L250.42 1435.76Q250.42 1435.36 250.19 1435.06Q249.97 1434.76 249.55 1434.64L249.55 1434.64L248.47 1434.37Q247.60 1434.15 247.10 1433.55Q246.59 1432.94 246.59 1432.10L246.59 1432.10Q246.59 1431.08 247.26 1430.47Q247.93 1429.86 249.06 1429.86L249.06 1429.86Q249.81 1429.86 250.38 1430.13Q250.95 1430.41 251.26 1430.91Q251.56 1431.41 251.56 1432.08L251.56 1432.08L250.22 1432.08Q250.22 1431.62 249.90 1431.33Q249.58 1431.05 249.06 1431.05L249.06 1431.05Q248.54 1431.05 248.24 1431.33Q247.93 1431.61 247.93 1432.06L247.93 1432.06Q247.93 1432.43 248.15 1432.68Q248.36 1432.92 248.75 1433.03L248.75 1433.03L249.86 1433.30Q250.75 1433.52 251.26 1434.18Q251.77 1434.84 251.77 1435.76L251.77 1435.76Q251.77 1436.47 251.45 1437.00Q251.12 1437.53 250.53 1437.82Q249.94 1438.11 249.13 1438.11Z" fill="#6B7785"></path>
    <path d="M115.70 1526.67L104.74 1526.67L124.37 1495.87L134.58 1495.87L141.88 1526.67L131.54 1526.67L130.53 1521.30L118.78 1521.30L115.70 1526.67ZM127.58 1505.94L123.05 1513.82L129.08 1513.82L127.58 1505.94Z M160.08 1527.11L160.08 1527.11Q157.88 1527.11 156.10 1526.42Q154.32 1525.74 153.22 1524.11L153.22 1524.11L150.97 1535.20L141.03 1535.20L147.54 1502.60L156.91 1502.60L156.47 1504.80Q159.16 1502.16 162.98 1502.16L162.98 1502.16Q165.40 1502.16 167.67 1503.46Q169.94 1504.75 171.41 1507.22Q172.88 1509.68 172.88 1513.29L172.88 1513.29Q172.88 1516.24 171.87 1518.77Q170.86 1521.30 169.08 1523.17Q167.30 1525.04 164.99 1526.07Q162.68 1527.11 160.08 1527.11ZM158.45 1519.27L158.45 1519.27Q160.39 1519.27 161.60 1517.78Q162.81 1516.28 162.81 1513.77L162.81 1513.77Q162.81 1512.10 161.86 1511.05Q160.92 1509.99 159.24 1509.99L159.24 1509.99Q157.31 1509.99 156.10 1511.49Q154.89 1512.98 154.89 1515.49L154.89 1515.49Q154.89 1517.16 155.83 1518.22Q156.78 1519.27 158.45 1519.27Z M190.38 1527.11L190.38 1527.11Q188.18 1527.11 186.40 1526.42Q184.62 1525.74 183.52 1524.11L183.52 1524.11L181.27 1535.20L171.33 1535.20L177.84 1502.60L187.21 1502.60L186.77 1504.80Q189.46 1502.16 193.28 1502.16L193.28 1502.16Q195.70 1502.16 197.97 1503.46Q200.24 1504.75 201.71 1507.22Q203.18 1509.68 203.18 1513.29L203.18 1513.29Q203.18 1516.24 202.17 1518.77Q201.16 1521.30 199.38 1523.17Q197.60 1525.04 195.29 1526.07Q192.98 1527.11 190.38 1527.11ZM188.75 1519.27L188.75 1519.27Q190.69 1519.27 191.90 1517.78Q193.11 1516.28 193.11 1513.77L193.11 1513.77Q193.11 1512.10 192.16 1511.05Q191.22 1509.99 189.54 1509.99L189.54 1509.99Q187.61 1509.99 186.40 1511.49Q185.19 1512.98 185.19 1515.49L185.19 1515.49Q185.19 1517.16 186.13 1518.22Q187.08 1519.27 188.75 1519.27Z  M228.58 1527.37L228.58 1527.37Q224.45 1527.37 220.95 1526.49Q217.45 1525.61 215.25 1524.25L215.25 1524.25L219.26 1516.59Q221.85 1518.09 224.47 1518.77Q227.09 1519.45 229.64 1519.45L229.64 1519.45Q231.66 1519.45 232.70 1518.97Q233.73 1518.48 233.73 1517.65L233.73 1517.65Q233.73 1516.81 232.68 1516.35Q231.62 1515.89 229.95 1515.49Q228.28 1515.09 226.41 1514.54Q224.54 1513.99 222.86 1513.09Q221.19 1512.19 220.14 1510.65Q219.08 1509.11 219.08 1506.73L219.08 1506.73Q219.08 1503.21 220.95 1500.62Q222.82 1498.02 226.32 1496.59Q229.82 1495.16 234.66 1495.16L234.66 1495.16Q238.09 1495.16 241.06 1495.84Q244.03 1496.53 246.18 1497.80L246.18 1497.80L242.44 1505.37Q240.60 1504.23 238.42 1503.65Q236.24 1503.08 234.00 1503.08L234.00 1503.08Q231.71 1503.08 230.59 1503.72Q229.46 1504.36 229.46 1505.15L229.46 1505.15Q229.46 1505.99 230.52 1506.47Q231.58 1506.95 233.25 1507.33Q234.92 1507.70 236.81 1508.23Q238.70 1508.76 240.38 1509.64Q242.05 1510.52 243.10 1512.01Q244.16 1513.51 244.16 1515.89L244.16 1515.89Q244.16 1519.32 242.27 1521.89Q240.38 1524.47 236.88 1525.92Q233.38 1527.37 228.58 1527.37Z M255.98 1527.11L255.98 1527.11Q252.90 1527.11 250.74 1525.96Q248.59 1524.82 247.71 1522.60Q246.83 1520.37 247.44 1517.25L247.44 1517.25L248.94 1509.86L245.60 1509.86L247.05 1502.60L250.35 1502.60L251.45 1497.19L261.39 1497.19L260.29 1502.60L265.22 1502.60L263.77 1509.86L258.84 1509.86L257.39 1517.21Q257.17 1518.44 257.65 1519.01Q258.14 1519.58 259.15 1519.58L259.15 1519.58Q259.76 1519.58 260.27 1519.43Q260.78 1519.27 261.35 1519.01L261.35 1519.01L262.49 1525.70Q261.13 1526.45 259.43 1526.78Q257.74 1527.11 255.98 1527.11Z M278.32 1527.11L278.32 1527.11Q274.36 1527.11 271.41 1525.72Q268.46 1524.33 266.85 1521.83Q265.25 1519.32 265.25 1515.97L265.25 1515.97Q265.25 1512.01 267.18 1508.89Q269.12 1505.77 272.51 1503.96Q275.90 1502.16 280.25 1502.16L280.25 1502.16Q284.26 1502.16 287.18 1503.54Q290.11 1504.93 291.71 1507.42Q293.32 1509.90 293.32 1513.29L293.32 1513.29Q293.32 1517.25 291.38 1520.37Q289.45 1523.50 286.08 1525.30Q282.72 1527.11 278.32 1527.11ZM278.89 1519.36L278.89 1519.36Q280.82 1519.36 282.03 1517.84Q283.24 1516.33 283.24 1513.77L283.24 1513.77Q283.24 1512.23 282.32 1511.07Q281.40 1509.90 279.68 1509.90L279.68 1509.90Q277.74 1509.90 276.53 1511.42Q275.32 1512.94 275.32 1515.49L275.32 1515.49Q275.32 1517.21 276.27 1518.28Q277.22 1519.36 278.89 1519.36Z M303.38 1526.67L293.44 1526.67L298.23 1502.60L307.60 1502.60L307.12 1505.06Q308.66 1503.52 310.84 1502.84Q313.02 1502.16 315.57 1502.16L315.57 1502.16L313.81 1510.96Q312.71 1510.78 311.65 1510.78L311.65 1510.78Q309.19 1510.78 307.67 1511.88Q306.15 1512.98 305.62 1515.53L305.62 1515.53L303.38 1526.67Z M327.34 1527.11L327.34 1527.11Q323.38 1527.11 320.41 1525.74Q317.44 1524.38 315.77 1521.87Q314.10 1519.36 314.10 1515.97L314.10 1515.97Q314.10 1512.01 315.95 1508.89Q317.80 1505.77 321.16 1503.96Q324.53 1502.16 329.02 1502.16L329.02 1502.16Q332.89 1502.16 335.62 1503.52Q338.34 1504.89 339.80 1507.26Q341.25 1509.64 341.25 1512.76L341.25 1512.76Q341.25 1513.86 341.09 1514.92Q340.94 1515.97 340.72 1516.94L340.72 1516.94L323.87 1516.94Q324.18 1518.44 325.34 1519.10Q326.51 1519.76 328.49 1519.76L328.49 1519.76Q329.85 1519.76 331.22 1519.34Q332.58 1518.92 333.72 1518.09L333.72 1518.09L337.86 1524.11Q335.40 1525.79 332.73 1526.45Q330.07 1527.11 327.34 1527.11ZM324.26 1512.15L324.26 1512.15L332.14 1512.15Q332.14 1510.65 331.15 1509.79Q330.16 1508.93 328.58 1508.93L328.58 1508.93Q326.86 1508.93 325.83 1509.84Q324.79 1510.74 324.26 1512.15Z" fill="#070E14"></path>
    <path d="M111.04 1552.77L111.04 1552.77Q109.96 1552.77 109.32 1552.20Q108.68 1551.64 108.68 1550.65L108.68 1550.65L109.67 1550.65Q109.67 1551.23 110.04 1551.56Q110.41 1551.89 111.04 1551.89L111.04 1551.89Q111.64 1551.89 112.00 1551.55Q112.35 1551.22 112.35 1550.66L112.35 1550.66Q112.35 1550.24 112.12 1549.92Q111.89 1549.61 111.47 1549.50L111.47 1549.50L110.39 1549.21Q109.68 1549.01 109.27 1548.48Q108.85 1547.96 108.85 1547.24L108.85 1547.24Q108.85 1546.65 109.11 1546.20Q109.38 1545.76 109.86 1545.51Q110.34 1545.27 110.97 1545.27L110.97 1545.27Q111.61 1545.27 112.09 1545.51Q112.58 1545.76 112.85 1546.20Q113.12 1546.64 113.12 1547.22L113.12 1547.22L112.14 1547.22Q112.14 1546.74 111.81 1546.44Q111.49 1546.14 110.97 1546.14L110.97 1546.14Q110.45 1546.14 110.14 1546.44Q109.82 1546.74 109.82 1547.22L109.82 1547.22Q109.82 1547.61 110.03 1547.87Q110.24 1548.14 110.62 1548.25L110.62 1548.25L111.73 1548.55Q112.48 1548.75 112.90 1549.31Q113.32 1549.88 113.32 1550.66L113.32 1550.66Q113.32 1551.30 113.04 1551.77Q112.76 1552.25 112.25 1552.51Q111.73 1552.77 111.04 1552.77Z M118.58 1552.77L118.58 1552.77Q117.57 1552.77 116.97 1552.20Q116.38 1551.64 116.38 1550.65L116.38 1550.65L116.38 1547.38Q116.38 1546.40 116.97 1545.83Q117.57 1545.27 118.58 1545.27L118.58 1545.27Q119.58 1545.27 120.17 1545.84Q120.77 1546.41 120.77 1547.38L120.77 1547.38L119.78 1547.38Q119.78 1546.79 119.46 1546.47Q119.14 1546.15 118.58 1546.15L118.58 1546.15Q118.01 1546.15 117.69 1546.47Q117.37 1546.79 117.37 1547.38L117.37 1547.38L117.37 1550.65Q117.37 1551.25 117.69 1551.57Q118.01 1551.89 118.58 1551.89L118.58 1551.89Q119.14 1551.89 119.46 1551.57Q119.78 1551.25 119.78 1550.65L119.78 1550.65L120.77 1550.65Q120.77 1551.63 120.17 1552.20Q119.58 1552.77 118.58 1552.77Z M124.47 1552.67L123.46 1552.67L125.35 1545.37L126.66 1545.37L128.54 1552.67L127.53 1552.67L127.07 1550.77L124.93 1550.77L124.47 1552.67ZM125.66 1547.76L125.12 1549.95L126.87 1549.95L126.34 1547.77Q126.20 1547.17 126.11 1546.75Q126.02 1546.33 126 1546.18L126 1546.18Q125.98 1546.33 125.89 1546.75Q125.80 1547.17 125.66 1547.76L125.66 1547.76Z M132.29 1552.67L131.36 1552.67L131.36 1545.37L132.64 1545.37L134.82 1551.53Q134.79 1551.27 134.76 1550.88Q134.74 1550.50 134.72 1550.08Q134.71 1549.67 134.71 1549.30L134.71 1549.30L134.71 1545.37L135.65 1545.37L135.65 1552.67L134.36 1552.67L132.19 1546.51Q132.22 1546.77 132.24 1547.14Q132.26 1547.52 132.28 1547.93Q132.29 1548.34 132.29 1548.70L132.29 1548.70L132.29 1552.67Z  M149 1552.67L148.01 1552.67L148.01 1546.27L146.03 1546.27L146.03 1545.37L150.97 1545.37L150.97 1546.27L149 1546.27L149 1552.67Z M156 1552.77L156 1552.77Q155 1552.77 154.42 1552.19Q153.84 1551.61 153.84 1550.55L153.84 1550.55L153.84 1547.48Q153.84 1546.43 154.42 1545.85Q155 1545.27 156 1545.27L156 1545.27Q157 1545.27 157.58 1545.84Q158.16 1546.42 158.16 1547.48L158.16 1547.48L158.16 1550.55Q158.16 1551.61 157.58 1552.19Q157 1552.77 156 1552.77ZM156 1551.89L156 1551.89Q156.56 1551.89 156.87 1551.57Q157.17 1551.25 157.17 1550.65L157.17 1550.65L157.17 1547.38Q157.17 1546.79 156.87 1546.47Q156.57 1546.15 156 1546.15L156 1546.15Q155.43 1546.15 155.13 1546.47Q154.83 1546.79 154.83 1547.38L154.83 1547.38L154.83 1550.65Q154.83 1551.25 155.13 1551.57Q155.44 1551.89 156 1551.89Z  M172.99 1552.67L169.01 1552.67L169.01 1551.77L170.50 1551.77L170.50 1546.27L169.01 1546.27L169.01 1545.37L172.99 1545.37L172.99 1546.27L171.50 1546.27L171.50 1551.77L172.99 1551.77L172.99 1552.67Z M177.29 1552.67L176.36 1552.67L176.36 1545.37L177.64 1545.37L179.82 1551.53Q179.79 1551.27 179.76 1550.88Q179.74 1550.50 179.72 1550.08Q179.71 1549.67 179.71 1549.30L179.71 1549.30L179.71 1545.37L180.65 1545.37L180.65 1552.67L179.36 1552.67L177.19 1546.51Q177.22 1546.77 177.24 1547.14Q177.26 1547.52 177.28 1547.93Q177.29 1548.34 177.29 1548.70L177.29 1548.70L177.29 1552.67Z M186.04 1552.77L186.04 1552.77Q184.96 1552.77 184.32 1552.20Q183.68 1551.64 183.68 1550.65L183.68 1550.65L184.67 1550.65Q184.67 1551.23 185.04 1551.56Q185.41 1551.89 186.04 1551.89L186.04 1551.89Q186.64 1551.89 187.00 1551.55Q187.35 1551.22 187.35 1550.66L187.35 1550.66Q187.35 1550.24 187.12 1549.92Q186.89 1549.61 186.47 1549.50L186.47 1549.50L185.39 1549.21Q184.68 1549.01 184.26 1548.48Q183.85 1547.96 183.85 1547.24L183.85 1547.24Q183.85 1546.65 184.12 1546.20Q184.38 1545.76 184.86 1545.51Q185.34 1545.27 185.97 1545.27L185.97 1545.27Q186.61 1545.27 187.09 1545.51Q187.58 1545.76 187.85 1546.20Q188.12 1546.64 188.12 1547.22L188.12 1547.22L187.14 1547.22Q187.14 1546.74 186.81 1546.44Q186.49 1546.14 185.97 1546.14L185.97 1546.14Q185.45 1546.14 185.13 1546.44Q184.82 1546.74 184.82 1547.22L184.82 1547.22Q184.82 1547.61 185.03 1547.87Q185.24 1548.14 185.62 1548.25L185.62 1548.25L186.73 1548.55Q187.48 1548.75 187.90 1549.31Q188.32 1549.88 188.32 1550.66L188.32 1550.66Q188.32 1551.30 188.04 1551.77Q187.76 1552.25 187.25 1552.51Q186.73 1552.77 186.04 1552.77Z M194 1552.67L193.01 1552.67L193.01 1546.27L191.03 1546.27L191.03 1545.37L195.97 1545.37L195.97 1546.27L194 1546.27L194 1552.67Z M199.47 1552.67L198.46 1552.67L200.35 1545.37L201.66 1545.37L203.54 1552.67L202.53 1552.67L202.07 1550.77L199.93 1550.77L199.47 1552.67ZM200.66 1547.76L200.12 1549.95L201.87 1549.95L201.34 1547.77Q201.20 1547.17 201.11 1546.75Q201.02 1546.33 201 1546.18L201 1546.18Q200.98 1546.33 200.89 1546.75Q200.80 1547.17 200.66 1547.76L200.66 1547.76Z M211.02 1552.67L206.78 1552.67L206.78 1545.37L207.77 1545.37L207.77 1551.77L211.02 1551.77L211.02 1552.67Z M218.52 1552.67L214.28 1552.67L214.28 1545.37L215.27 1545.37L215.27 1551.77L218.52 1551.77L218.52 1552.67Z" fill="#6B7785"></path>
    <image x="808" y="1427" width="170" height="170"></image>
  
    <rect x="80" y="1660" width="920" height="220" rx="6" fill="#f6f4ef" stroke="rgba(0,0,0,0.06)"></rect>
    <rect x="80" y="1660" width="6" height="220" fill="url(#ticketBar)"></rect>
    <rect x="108" y="1692" width="18" height="1" fill="#6B7785"></rect>
    <path d="M137.30 1696.11L137.30 1696.11Q136.52 1696.11 135.95 1695.81Q135.38 1695.52 135.06 1694.98Q134.75 1694.44 134.75 1693.71L134.75 1693.71L134.75 1690.26Q134.75 1689.53 135.06 1688.99Q135.38 1688.45 135.95 1688.16Q136.52 1687.86 137.30 1687.86L137.30 1687.86Q138.08 1687.86 138.65 1688.16Q139.22 1688.45 139.54 1688.99Q139.85 1689.53 139.85 1690.26L139.85 1690.26L139.85 1693.71Q139.85 1694.44 139.54 1694.98Q139.22 1695.52 138.65 1695.81Q138.08 1696.11 137.30 1696.11ZM137.30 1694.92L137.30 1694.92Q137.87 1694.92 138.21 1694.59Q138.55 1694.26 138.55 1693.71L138.55 1693.71L138.55 1690.26Q138.55 1689.71 138.22 1689.38Q137.88 1689.05 137.30 1689.05L137.30 1689.05Q136.72 1689.05 136.38 1689.38Q136.05 1689.71 136.05 1690.26L136.05 1690.26L136.05 1693.71Q136.05 1694.26 136.39 1694.59Q136.73 1694.92 137.30 1694.92ZM137.30 1692.64L137.30 1692.64Q136.97 1692.64 136.77 1692.46Q136.57 1692.28 136.57 1691.95L136.57 1691.95Q136.57 1691.62 136.77 1691.45Q136.97 1691.28 137.30 1691.28L137.30 1691.28Q137.63 1691.28 137.83 1691.45Q138.03 1691.62 138.03 1691.95L138.03 1691.95Q138.03 1692.28 137.83 1692.46Q137.63 1692.64 137.30 1692.64Z M148.52 1696L143.41 1696L143.41 1694.76L146.31 1691.80Q147.01 1691.06 147.01 1690.30L147.01 1690.30Q147.01 1689.76 146.70 1689.43Q146.38 1689.09 145.86 1689.09L145.86 1689.09Q145.32 1689.09 144.99 1689.44Q144.67 1689.79 144.67 1690.36L144.67 1690.36L143.29 1690.36Q143.29 1689.61 143.62 1689.05Q143.95 1688.49 144.54 1688.17Q145.12 1687.86 145.89 1687.86L145.89 1687.86Q146.65 1687.86 147.22 1688.16Q147.79 1688.45 148.11 1688.99Q148.42 1689.52 148.42 1690.24L148.42 1690.24Q148.42 1690.85 148.13 1691.47Q147.84 1692.08 147.16 1692.74L147.16 1692.74L145.14 1694.76L148.52 1694.76L148.52 1696Z  M166.40 1693.01L159.80 1693.01L159.80 1691.73L166.40 1691.73L166.40 1693.01Z  M178.79 1696L177.38 1696L179.41 1687.97L181.18 1687.97L183.21 1696L181.81 1696L181.37 1694.05L179.23 1694.05L178.79 1696ZM179.97 1690.76L179.49 1692.93L181.11 1692.93L180.63 1690.78Q180.51 1690.24 180.42 1689.80Q180.33 1689.37 180.30 1689.17L180.30 1689.17Q180.27 1689.37 180.18 1689.80Q180.09 1690.24 179.97 1690.76L179.97 1690.76Z M187.65 1696L186.39 1696L186.39 1687.97L188.07 1687.97L190.31 1694.46Q190.27 1694.11 190.24 1693.63Q190.21 1693.15 190.18 1692.66Q190.15 1692.16 190.15 1691.78L190.15 1691.78L190.15 1687.97L191.41 1687.97L191.41 1696L189.72 1696L187.51 1689.51Q187.54 1689.83 187.57 1690.28Q187.60 1690.73 187.62 1691.20Q187.65 1691.68 187.65 1692.07L187.65 1692.07L187.65 1696Z M197.41 1696L195.02 1696L195.02 1687.97L197.41 1687.97Q198.23 1687.97 198.83 1688.28Q199.42 1688.60 199.75 1689.16Q200.08 1689.72 200.08 1690.48L200.08 1690.48L200.08 1693.48Q200.08 1694.24 199.75 1694.81Q199.42 1695.37 198.83 1695.69Q198.23 1696 197.41 1696L197.41 1696ZM196.40 1689.20L196.40 1694.77L197.41 1694.77Q198.01 1694.77 198.36 1694.42Q198.71 1694.08 198.71 1693.48L198.71 1693.48L198.71 1690.48Q198.71 1689.89 198.36 1689.55Q198.01 1689.20 197.41 1689.20L197.41 1689.20L196.40 1689.20Z M205.01 1696L203.65 1696L203.65 1687.97L206.18 1687.97Q206.98 1687.97 207.57 1688.27Q208.16 1688.56 208.49 1689.10Q208.82 1689.63 208.82 1690.36L208.82 1690.36Q208.82 1691.16 208.42 1691.76Q208.02 1692.36 207.35 1692.61L207.35 1692.61L208.93 1696L207.42 1696L206.01 1692.81L205.01 1692.81L205.01 1696ZM205.01 1689.18L205.01 1691.60L206.18 1691.60Q206.76 1691.60 207.09 1691.28Q207.42 1690.96 207.42 1690.40L207.42 1690.40Q207.42 1689.84 207.08 1689.51Q206.75 1689.18 206.18 1689.18L206.18 1689.18L205.01 1689.18Z M214.70 1696.11L214.70 1696.11Q213.54 1696.11 212.87 1695.45Q212.19 1694.79 212.19 1693.62L212.19 1693.62L212.19 1690.35Q212.19 1689.18 212.87 1688.52Q213.54 1687.86 214.70 1687.86L214.70 1687.86Q215.85 1687.86 216.53 1688.52Q217.21 1689.18 217.21 1690.34L217.21 1690.34L217.21 1693.62Q217.21 1694.79 216.53 1695.45Q215.85 1696.11 214.70 1696.11ZM214.70 1694.90L214.70 1694.90Q215.26 1694.90 215.55 1694.60Q215.83 1694.30 215.83 1693.73L215.83 1693.73L215.83 1690.24Q215.83 1689.67 215.55 1689.37Q215.26 1689.07 214.70 1689.07L214.70 1689.07Q214.14 1689.07 213.85 1689.37Q213.57 1689.67 213.57 1690.24L213.57 1690.24L213.57 1693.73Q213.57 1694.30 213.85 1694.60Q214.14 1694.90 214.70 1694.90Z M225.61 1696L220.99 1696L220.99 1694.76L222.61 1694.76L222.61 1689.21L220.99 1689.21L220.99 1687.97L225.61 1687.97L225.61 1689.21L223.99 1689.21L223.99 1694.76L225.61 1694.76L225.61 1696Z M231.81 1696L229.42 1696L229.42 1687.97L231.81 1687.97Q232.63 1687.97 233.23 1688.28Q233.82 1688.60 234.15 1689.16Q234.48 1689.72 234.48 1690.48L234.48 1690.48L234.48 1693.48Q234.48 1694.24 234.15 1694.81Q233.82 1695.37 233.23 1695.69Q232.63 1696 231.81 1696L231.81 1696ZM230.80 1689.20L230.80 1694.77L231.81 1694.77Q232.41 1694.77 232.76 1694.42Q233.11 1694.08 233.11 1693.48L233.11 1693.48L233.11 1690.48Q233.11 1689.89 232.76 1689.55Q232.41 1689.20 231.81 1689.20L231.81 1689.20L230.80 1689.20Z" fill="#6B7785"></path>
    <path d="M125.60 1785.37L125.60 1785.37Q120.85 1785.37 117.28 1783.63Q113.72 1781.89 111.76 1778.79Q109.80 1775.69 109.80 1771.60L109.80 1771.60Q109.80 1767.55 111.23 1764.16Q112.66 1760.77 115.30 1758.31Q117.94 1755.85 121.57 1754.50Q125.20 1753.16 129.60 1753.16L129.60 1753.16Q134.44 1753.16 137.94 1754.68Q141.44 1756.20 143.60 1759.19L143.60 1759.19L136.16 1764.95Q134.66 1763.02 132.99 1762.29Q131.32 1761.57 129.12 1761.57L129.12 1761.57Q126.44 1761.57 124.43 1762.75Q122.43 1763.94 121.35 1766.05Q120.28 1768.17 120.28 1770.94L120.28 1770.94Q120.28 1773.62 122.06 1775.29Q123.84 1776.97 127.05 1776.97L127.05 1776.97Q128.64 1776.97 130.09 1776.53L130.09 1776.53L131.72 1768.43L140.74 1768.43L138.10 1781.72Q135.68 1783.48 132.46 1784.42Q129.25 1785.37 125.60 1785.37Z M155.24 1785.11L155.24 1785.11Q151.28 1785.11 148.33 1783.72Q145.38 1782.33 143.78 1779.83Q142.17 1777.32 142.17 1773.97L142.17 1773.97Q142.17 1770.01 144.11 1766.89Q146.04 1763.77 149.43 1761.96Q152.82 1760.16 157.18 1760.16L157.18 1760.16Q161.18 1760.16 164.11 1761.54Q167.03 1762.93 168.64 1765.42Q170.24 1767.90 170.24 1771.29L170.24 1771.29Q170.24 1775.25 168.31 1778.37Q166.37 1781.50 163.01 1783.30Q159.64 1785.11 155.24 1785.11ZM155.81 1777.36L155.81 1777.36Q157.75 1777.36 158.96 1775.84Q160.17 1774.33 160.17 1771.77L160.17 1771.77Q160.17 1770.23 159.24 1769.07Q158.32 1767.90 156.60 1767.90L156.60 1767.90Q154.67 1767.90 153.46 1769.42Q152.25 1770.94 152.25 1773.49L152.25 1773.49Q152.25 1775.21 153.19 1776.28Q154.14 1777.36 155.81 1777.36Z M184.48 1785.11L184.48 1785.11Q180.52 1785.11 177.58 1783.72Q174.63 1782.33 173.02 1779.83Q171.42 1777.32 171.42 1773.97L171.42 1773.97Q171.42 1770.01 173.35 1766.89Q175.29 1763.77 178.68 1761.96Q182.06 1760.16 186.42 1760.16L186.42 1760.16Q190.42 1760.16 193.35 1761.54Q196.28 1762.93 197.88 1765.42Q199.49 1767.90 199.49 1771.29L199.49 1771.29Q199.49 1775.25 197.55 1778.37Q195.62 1781.50 192.25 1783.30Q188.88 1785.11 184.48 1785.11ZM185.06 1777.36L185.06 1777.36Q186.99 1777.36 188.20 1775.84Q189.41 1774.33 189.41 1771.77L189.41 1771.77Q189.41 1770.23 188.49 1769.07Q187.56 1767.90 185.85 1767.90L185.85 1767.90Q183.91 1767.90 182.70 1769.42Q181.49 1770.94 181.49 1773.49L181.49 1773.49Q181.49 1775.21 182.44 1776.28Q183.38 1777.36 185.06 1777.36Z M211.04 1793.64L211.04 1793.64Q203.65 1793.64 199.12 1790.65L199.12 1790.65L203.34 1783.87Q204.80 1784.97 206.93 1785.61Q209.06 1786.25 211.22 1786.25L211.22 1786.25Q214.12 1786.25 215.44 1785.04Q216.76 1783.83 217.20 1781.67L217.20 1781.67L217.34 1781.06Q214.87 1783.35 211.26 1783.35L211.26 1783.35Q208.62 1783.35 206.25 1782.11Q203.87 1780.88 202.38 1778.55Q200.88 1776.22 200.88 1772.96L200.88 1772.96Q200.88 1770.28 201.87 1767.97Q202.86 1765.66 204.64 1763.90Q206.42 1762.14 208.78 1761.15Q211.13 1760.16 213.82 1760.16L213.82 1760.16Q216.32 1760.16 218.28 1761.08Q220.24 1762.01 221.16 1764.25L221.16 1764.25L221.16 1764.25L221.87 1760.60L231.33 1760.60L227.50 1779.83Q226.05 1787.17 221.80 1790.41Q217.56 1793.64 211.04 1793.64ZM214.43 1775.56L214.43 1775.56Q216.37 1775.56 217.53 1774.33Q218.70 1773.09 218.70 1771.07L218.70 1771.07Q218.70 1769.71 217.80 1768.85Q216.90 1767.99 215.22 1767.99L215.22 1767.99Q213.33 1767.99 212.12 1769.20Q210.91 1770.41 210.91 1772.48L210.91 1772.48Q210.91 1773.84 211.86 1774.70Q212.80 1775.56 214.43 1775.56Z M240.33 1784.67L230.39 1784.67L236.90 1752.02L246.84 1752.02L240.33 1784.67Z M258.58 1785.11L258.58 1785.11Q254.62 1785.11 251.65 1783.74Q248.68 1782.38 247.00 1779.87Q245.33 1777.36 245.33 1773.97L245.33 1773.97Q245.33 1770.01 247.18 1766.89Q249.03 1763.77 252.39 1761.96Q255.76 1760.16 260.25 1760.16L260.25 1760.16Q264.12 1760.16 266.85 1761.52Q269.58 1762.89 271.03 1765.26Q272.48 1767.64 272.48 1770.76L272.48 1770.76Q272.48 1771.86 272.33 1772.92Q272.17 1773.97 271.95 1774.94L271.95 1774.94L255.10 1774.94Q255.41 1776.44 256.57 1777.10Q257.74 1777.76 259.72 1777.76L259.72 1777.76Q261.08 1777.76 262.45 1777.34Q263.81 1776.92 264.96 1776.09L264.96 1776.09L269.09 1782.11Q266.63 1783.79 263.97 1784.45Q261.30 1785.11 258.58 1785.11ZM255.50 1770.15L255.50 1770.15L263.37 1770.15Q263.37 1768.65 262.38 1767.79Q261.39 1766.93 259.81 1766.93L259.81 1766.93Q258.09 1766.93 257.06 1767.84Q256.02 1768.74 255.50 1770.15Z  M295.64 1784.67L285.25 1784.67L291.41 1753.87L305.10 1753.87Q311.30 1753.87 314.67 1756.55Q318.03 1759.23 318.03 1764.07L318.03 1764.07Q318.03 1767.95 316.12 1770.89Q314.20 1773.84 310.71 1775.47Q307.21 1777.10 302.46 1777.10L302.46 1777.10L297.13 1777.10L295.64 1784.67ZM300.17 1761.87L298.72 1769.09L302.98 1769.09Q305.14 1769.09 306.33 1768.01Q307.52 1766.93 307.52 1765.00L307.52 1765.00Q307.52 1763.33 306.48 1762.60Q305.45 1761.87 303.64 1761.87L303.64 1761.87L300.17 1761.87Z M327.08 1784.67L317.14 1784.67L323.65 1752.02L333.59 1752.02L327.08 1784.67Z M341.98 1785.11L341.98 1785.11Q339.60 1785.11 337.32 1783.81Q335.03 1782.51 333.55 1780.02Q332.08 1777.54 332.08 1773.97L332.08 1773.97Q332.08 1770.98 333.09 1768.47Q334.10 1765.97 335.89 1764.10Q337.67 1762.23 339.98 1761.19Q342.29 1760.16 344.88 1760.16L344.88 1760.16Q347.08 1760.16 348.87 1760.84Q350.65 1761.52 351.75 1763.15L351.75 1763.15L352.28 1760.60L362.22 1760.60L357.42 1784.67L348.05 1784.67L348.49 1782.47Q345.81 1785.11 341.98 1785.11ZM345.72 1777.27L345.72 1777.27Q347.66 1777.27 348.87 1775.78Q350.08 1774.28 350.08 1771.77L350.08 1771.77Q350.08 1770.10 349.13 1769.05Q348.18 1767.99 346.51 1767.99L346.51 1767.99Q344.58 1767.99 343.37 1769.49Q342.16 1770.98 342.16 1773.49L342.16 1773.49Q342.16 1775.16 343.10 1776.22Q344.05 1777.27 345.72 1777.27Z M365.24 1793.64L365.24 1793.64Q363.26 1793.64 361.30 1793.07Q359.34 1792.50 358.16 1791.57L358.16 1791.57L362.47 1784.67Q363.22 1785.24 364.14 1785.59Q365.06 1785.94 366.08 1785.94L366.08 1785.94Q367.57 1785.94 368.54 1784.93L368.54 1784.93L363.26 1760.60L373.16 1760.60L375.62 1773.53L383.19 1760.60L392.92 1760.60L378.13 1785.15Q376.15 1788.45 374.26 1790.30Q372.37 1792.15 370.19 1792.89Q368.01 1793.64 365.24 1793.64Z" fill="#070E14"></path>
    <path d="M111.04 1810.77L111.04 1810.77Q109.96 1810.77 109.32 1810.20Q108.68 1809.64 108.68 1808.65L108.68 1808.65L109.67 1808.65Q109.67 1809.23 110.04 1809.56Q110.41 1809.89 111.04 1809.89L111.04 1809.89Q111.64 1809.89 112.00 1809.55Q112.35 1809.22 112.35 1808.66L112.35 1808.66Q112.35 1808.24 112.12 1807.92Q111.89 1807.61 111.47 1807.50L111.47 1807.50L110.39 1807.21Q109.68 1807.01 109.27 1806.48Q108.85 1805.96 108.85 1805.24L108.85 1805.24Q108.85 1804.65 109.11 1804.20Q109.38 1803.76 109.86 1803.51Q110.34 1803.27 110.97 1803.27L110.97 1803.27Q111.61 1803.27 112.09 1803.51Q112.58 1803.76 112.85 1804.20Q113.12 1804.64 113.12 1805.22L113.12 1805.22L112.14 1805.22Q112.14 1804.74 111.81 1804.44Q111.49 1804.14 110.97 1804.14L110.97 1804.14Q110.45 1804.14 110.14 1804.44Q109.82 1804.74 109.82 1805.22L109.82 1805.22Q109.82 1805.61 110.03 1805.87Q110.24 1806.14 110.62 1806.25L110.62 1806.25L111.73 1806.55Q112.48 1806.75 112.90 1807.31Q113.32 1807.88 113.32 1808.66L113.32 1808.66Q113.32 1809.30 113.04 1809.77Q112.76 1810.25 112.25 1810.51Q111.73 1810.77 111.04 1810.77Z M118.58 1810.77L118.58 1810.77Q117.57 1810.77 116.97 1810.20Q116.38 1809.64 116.38 1808.65L116.38 1808.65L116.38 1805.38Q116.38 1804.40 116.97 1803.83Q117.57 1803.27 118.58 1803.27L118.58 1803.27Q119.58 1803.27 120.17 1803.84Q120.77 1804.41 120.77 1805.38L120.77 1805.38L119.78 1805.38Q119.78 1804.79 119.46 1804.47Q119.14 1804.15 118.58 1804.15L118.58 1804.15Q118.01 1804.15 117.69 1804.47Q117.37 1804.79 117.37 1805.38L117.37 1805.38L117.37 1808.65Q117.37 1809.25 117.69 1809.57Q118.01 1809.89 118.58 1809.89L118.58 1809.89Q119.14 1809.89 119.46 1809.57Q119.78 1809.25 119.78 1808.65L119.78 1808.65L120.77 1808.65Q120.77 1809.63 120.17 1810.20Q119.58 1810.77 118.58 1810.77Z M124.47 1810.67L123.46 1810.67L125.35 1803.37L126.66 1803.37L128.54 1810.67L127.53 1810.67L127.07 1808.77L124.93 1808.77L124.47 1810.67ZM125.66 1805.76L125.12 1807.95L126.87 1807.95L126.34 1805.77Q126.20 1805.17 126.11 1804.75Q126.02 1804.33 126 1804.18L126 1804.18Q125.98 1804.33 125.89 1804.75Q125.80 1805.17 125.66 1805.76L125.66 1805.76Z M132.29 1810.67L131.36 1810.67L131.36 1803.37L132.64 1803.37L134.82 1809.53Q134.79 1809.27 134.76 1808.88Q134.74 1808.50 134.72 1808.08Q134.71 1807.67 134.71 1807.30L134.71 1807.30L134.71 1803.37L135.65 1803.37L135.65 1810.67L134.36 1810.67L132.19 1804.51Q132.22 1804.77 132.24 1805.14Q132.26 1805.52 132.28 1805.93Q132.29 1806.34 132.29 1806.70L132.29 1806.70L132.29 1810.67Z  M149 1810.67L148.01 1810.67L148.01 1804.27L146.03 1804.27L146.03 1803.37L150.97 1803.37L150.97 1804.27L149 1804.27L149 1810.67Z M156 1810.77L156 1810.77Q155 1810.77 154.42 1810.19Q153.84 1809.61 153.84 1808.55L153.84 1808.55L153.84 1805.48Q153.84 1804.43 154.42 1803.85Q155 1803.27 156 1803.27L156 1803.27Q157 1803.27 157.58 1803.84Q158.16 1804.42 158.16 1805.48L158.16 1805.48L158.16 1808.55Q158.16 1809.61 157.58 1810.19Q157 1810.77 156 1810.77ZM156 1809.89L156 1809.89Q156.56 1809.89 156.87 1809.57Q157.17 1809.25 157.17 1808.65L157.17 1808.65L157.17 1805.38Q157.17 1804.79 156.87 1804.47Q156.57 1804.15 156 1804.15L156 1804.15Q155.43 1804.15 155.13 1804.47Q154.83 1804.79 154.83 1805.38L154.83 1805.38L154.83 1808.65Q154.83 1809.25 155.13 1809.57Q155.44 1809.89 156 1809.89Z  M172.99 1810.67L169.01 1810.67L169.01 1809.77L170.50 1809.77L170.50 1804.27L169.01 1804.27L169.01 1803.37L172.99 1803.37L172.99 1804.27L171.50 1804.27L171.50 1809.77L172.99 1809.77L172.99 1810.67Z M177.29 1810.67L176.36 1810.67L176.36 1803.37L177.64 1803.37L179.82 1809.53Q179.79 1809.27 179.76 1808.88Q179.74 1808.50 179.72 1808.08Q179.71 1807.67 179.71 1807.30L179.71 1807.30L179.71 1803.37L180.65 1803.37L180.65 1810.67L179.36 1810.67L177.19 1804.51Q177.22 1804.77 177.24 1805.14Q177.26 1805.52 177.28 1805.93Q177.29 1806.34 177.29 1806.70L177.29 1806.70L177.29 1810.67Z M186.04 1810.77L186.04 1810.77Q184.96 1810.77 184.32 1810.20Q183.68 1809.64 183.68 1808.65L183.68 1808.65L184.67 1808.65Q184.67 1809.23 185.04 1809.56Q185.41 1809.89 186.04 1809.89L186.04 1809.89Q186.64 1809.89 187.00 1809.55Q187.35 1809.22 187.35 1808.66L187.35 1808.66Q187.35 1808.24 187.12 1807.92Q186.89 1807.61 186.47 1807.50L186.47 1807.50L185.39 1807.21Q184.68 1807.01 184.26 1806.48Q183.85 1805.96 183.85 1805.24L183.85 1805.24Q183.85 1804.65 184.12 1804.20Q184.38 1803.76 184.86 1803.51Q185.34 1803.27 185.97 1803.27L185.97 1803.27Q186.61 1803.27 187.09 1803.51Q187.58 1803.76 187.85 1804.20Q188.12 1804.64 188.12 1805.22L188.12 1805.22L187.14 1805.22Q187.14 1804.74 186.81 1804.44Q186.49 1804.14 185.97 1804.14L185.97 1804.14Q185.45 1804.14 185.13 1804.44Q184.82 1804.74 184.82 1805.22L184.82 1805.22Q184.82 1805.61 185.03 1805.87Q185.24 1806.14 185.62 1806.25L185.62 1806.25L186.73 1806.55Q187.48 1806.75 187.90 1807.31Q188.32 1807.88 188.32 1808.66L188.32 1808.66Q188.32 1809.30 188.04 1809.77Q187.76 1810.25 187.25 1810.51Q186.73 1810.77 186.04 1810.77Z M194 1810.67L193.01 1810.67L193.01 1804.27L191.03 1804.27L191.03 1803.37L195.97 1803.37L195.97 1804.27L194 1804.27L194 1810.67Z M199.47 1810.67L198.46 1810.67L200.35 1803.37L201.66 1803.37L203.54 1810.67L202.53 1810.67L202.07 1808.77L199.93 1808.77L199.47 1810.67ZM200.66 1805.76L200.12 1807.95L201.87 1807.95L201.34 1805.77Q201.20 1805.17 201.11 1804.75Q201.02 1804.33 201 1804.18L201 1804.18Q200.98 1804.33 200.89 1804.75Q200.80 1805.17 200.66 1805.76L200.66 1805.76Z M211.02 1810.67L206.78 1810.67L206.78 1803.37L207.77 1803.37L207.77 1809.77L211.02 1809.77L211.02 1810.67Z M218.52 1810.67L214.28 1810.67L214.28 1803.37L215.27 1803.37L215.27 1809.77L218.52 1809.77L218.52 1810.67Z" fill="#6B7785"></path>
    <image x="808" y="1685" width="170" height="170"></image>
  
    
    <image x="80" y="1784" width="333.22314049586777" height="56"></image>
    <path d="M817.56 1816L816.18 1816L816.18 1805.78L819.49 1805.78Q820.47 1805.78 821.19 1806.16Q821.90 1806.54 822.29 1807.21Q822.69 1807.89 822.69 1808.83L822.69 1808.83Q822.69 1809.76 822.29 1810.43Q821.90 1811.11 821.18 1811.49Q820.46 1811.87 819.49 1811.87L819.49 1811.87L817.56 1811.87L817.56 1816ZM817.56 1807.01L817.56 1810.64L819.49 1810.64Q820.31 1810.64 820.78 1810.14Q821.26 1809.64 821.26 1808.83L821.26 1808.83Q821.26 1808.01 820.78 1807.51Q820.31 1807.01 819.49 1807.01L819.49 1807.01L817.56 1807.01Z M830.54 1816.14L830.54 1816.14Q829.14 1816.14 828.33 1815.33Q827.52 1814.52 827.52 1813.03L827.52 1813.03L827.52 1808.73Q827.52 1807.26 828.33 1806.45Q829.14 1805.64 830.54 1805.64L830.54 1805.64Q831.94 1805.64 832.76 1806.44Q833.57 1807.25 833.57 1808.73L833.57 1808.73L833.57 1813.03Q833.57 1814.52 832.76 1815.33Q831.94 1816.14 830.54 1816.14ZM830.54 1814.91L830.54 1814.91Q831.33 1814.91 831.76 1814.46Q832.18 1814.01 832.18 1813.17L832.18 1813.17L832.18 1808.59Q832.18 1807.77 831.76 1807.32Q831.34 1806.87 830.54 1806.87L830.54 1806.87Q829.75 1806.87 829.33 1807.32Q828.91 1807.77 828.91 1808.59L828.91 1808.59L828.91 1813.17Q828.91 1814.01 829.33 1814.46Q829.76 1814.91 830.54 1814.91Z M840.85 1816L839.19 1816L838.01 1805.78L839.24 1805.78L840.00 1813.23Q840.04 1813.68 840.08 1814.19Q840.11 1814.70 840.12 1815.02L840.12 1815.02Q840.15 1814.70 840.19 1814.19Q840.24 1813.68 840.31 1813.23L840.31 1813.23L841.29 1805.78L842.67 1805.78L843.58 1813.23Q843.62 1813.68 843.68 1814.19Q843.74 1814.70 843.78 1815.02L843.78 1815.02Q843.79 1814.70 843.83 1814.19Q843.88 1813.68 843.92 1813.23L843.92 1813.23L844.69 1805.78L845.89 1805.78L844.67 1816L842.99 1816L842.11 1808.44Q842.06 1807.98 842.02 1807.49Q841.99 1807.01 841.97 1806.72L841.97 1806.72Q841.93 1807.01 841.90 1807.49Q841.87 1807.98 841.82 1808.44L841.82 1808.44L840.85 1816Z M856.45 1816L850.50 1816L850.50 1805.78L856.45 1805.78L856.45 1807.03L851.87 1807.03L851.87 1810.06L855.96 1810.06L855.96 1811.27L851.87 1811.27L851.87 1814.75L856.45 1814.75L856.45 1816Z M863.16 1816L861.79 1816L861.79 1805.78L864.95 1805.78Q865.89 1805.78 866.59 1806.15Q867.29 1806.52 867.68 1807.19Q868.08 1807.85 868.08 1808.75L868.08 1808.75Q868.08 1809.78 867.55 1810.53Q867.03 1811.27 866.16 1811.58L866.16 1811.58L868.22 1816L866.69 1816L864.74 1811.73L863.16 1811.73L863.16 1816ZM863.16 1807.01L863.16 1810.50L864.95 1810.50Q865.74 1810.50 866.19 1810.02Q866.65 1809.55 866.65 1808.76L866.65 1808.76Q866.65 1807.96 866.19 1807.49Q865.72 1807.01 864.95 1807.01L864.95 1807.01L863.16 1807.01Z M879.25 1816L873.30 1816L873.30 1805.78L879.25 1805.78L879.25 1807.03L874.67 1807.03L874.67 1810.06L878.76 1810.06L878.76 1811.27L874.67 1811.27L874.67 1814.75L879.25 1814.75L879.25 1816Z M887.32 1816L884.58 1816L884.58 1805.78L887.32 1805.78Q888.31 1805.78 889.05 1806.16Q889.78 1806.55 890.19 1807.24Q890.60 1807.94 890.60 1808.87L890.60 1808.87L890.60 1812.89Q890.60 1813.83 890.19 1814.53Q889.78 1815.23 889.05 1815.62Q888.31 1816 887.32 1816L887.32 1816ZM885.96 1807.01L885.96 1814.77L887.32 1814.77Q888.20 1814.77 888.71 1814.26Q889.21 1813.76 889.21 1812.89L889.21 1812.89L889.21 1808.87Q889.21 1808.01 888.71 1807.51Q888.20 1807.01 887.32 1807.01L887.32 1807.01L885.96 1807.01Z  M910.54 1816L907.39 1816L907.39 1805.78L910.34 1805.78Q911.76 1805.78 912.58 1806.49Q913.40 1807.19 913.40 1808.43L913.40 1808.43Q913.40 1809.22 912.90 1809.85Q912.40 1810.47 911.62 1810.61L911.62 1810.61L911.62 1810.65Q912.21 1810.72 912.66 1811.07Q913.12 1811.42 913.38 1811.96Q913.63 1812.50 913.63 1813.14L913.63 1813.14Q913.63 1814.46 912.80 1815.23Q911.97 1816 910.54 1816L910.54 1816ZM908.75 1807.00L908.75 1810.09L910.33 1810.09Q911.11 1810.09 911.56 1809.68Q912.01 1809.27 912.01 1808.55L912.01 1808.55Q912.01 1807.82 911.56 1807.41Q911.11 1807.00 910.34 1807.00L910.34 1807.00L908.75 1807.00ZM908.75 1811.27L908.75 1814.78L910.41 1814.78Q911.27 1814.78 911.76 1814.33Q912.25 1813.87 912.25 1813.09L912.25 1813.09Q912.25 1812.28 911.76 1811.77Q911.27 1811.27 910.41 1811.27L910.41 1811.27L908.75 1811.27Z M922.44 1816L921.06 1816L921.06 1812.21L917.99 1805.78L919.46 1805.78L921.35 1809.81Q921.52 1810.18 921.63 1810.47Q921.73 1810.76 921.76 1810.89L921.76 1810.89Q921.80 1810.76 921.91 1810.47Q922.01 1810.18 922.19 1809.81L922.19 1809.81L924.07 1805.78L925.50 1805.78L922.44 1812.21L922.44 1816Z" fill="#8896a6"></path>
    <rect x="935.9444444444445" y="1786" width="70.05555555555556" height="52" rx="4" fill="#fff"></rect>
    <image x="941.9444444444445" y="1790" width="58.05555555555556" height="44"></image>
  
  </svg>